<?xml version="1.0" standalone="no"?>
<!DOCTYPE svg PUBLIC "-//W3C//DTD SVG 1.1//EN" "http://www.w3.org/Graphics/SVG/1.1/DTD/svg11.dtd" >
<svg>
<defs>
<font id="Boogaloo Adjusted Regular" horiz-adv-x="250" >
<font-face units-per-em="100" ascent="80" descent="-20" />
<glyph unicode=" " horiz-adv-x="24.199999999999999" d="" />
<glyph unicode="!" horiz-adv-x="27.800000000000001" d="M9.400000000000000 19.600000000000001 Q7.600000000000023 34.500000000000000 7.600000000000023 46.750000000000000 Q7.600000000000023 59.000000000000000 9.500000000000000 73.100000000000023 C14.366666666666674 72.166666666666629 20.450000000000045 71.000000000000000 24.100000000000023 70.300000000000011 Q19.100000000000023 50.899999999999977 17.399999999999977 18.600000000000023 C14.733333333333348 18.933333333333337 11.399999999999977 19.350000000000023 9.399999999999977 19.600000000000023 zM18.899999999999999 13.400000000000000 Q20.000000000000000 11.399999999999977 20.000000000000000 6.399999999999977 Q20.000000000000000 1.399999999999977 18.399999999999977 -2.299999999999955 C14.433333333333280 -1.533333333333303 9.475000000000023 -0.575000000000045 6.500000000000000 0.000000000000000 Q7.500000000000000 3.699999999999989 7.500000000000000 7.750000000000000 Q7.500000000000000 11.800000000000011 7.299999999999955 14.600000000000023 C11.166666666666629 14.199999999999989 16.000000000000000 13.699999999999989 18.899999999999977 13.399999999999977 z" />
<glyph unicode="&#x22;" horiz-adv-x="34.799999999999997" d="M3.700000000000000 70.400000000000006 C6.399999999999977 70.175000000000011 11.799999999999955 69.725000000000023 14.500000000000000 69.500000000000000 Q14.000000000000000 57.800000000000011 11.700000000000045 42.600000000000023 C8.633333333333326 42.866666666666674 4.799999999999955 43.199999999999989 2.500000000000000 43.399999999999977 Q3.299999999999955 53.699999999999989 3.700000000000045 70.399999999999977 zM20.300000000000001 70.400000000000006 C23.000000000000000 70.175000000000011 28.399999999999977 69.725000000000023 31.100000000000023 69.500000000000000 Q30.600000000000023 57.800000000000011 28.299999999999955 42.600000000000023 C25.233333333333348 42.866666666666674 21.399999999999977 43.199999999999989 19.100000000000023 43.399999999999977 Q19.899999999999977 53.699999999999989 20.299999999999955 70.399999999999977 z" />
<glyph unicode="#" horiz-adv-x="83.299999999999997" d="M52.200000000000003 72.599999999999994 C55.024999999999977 72.375000000000000 60.674999999999955 71.925000000000011 63.500000000000000 71.699999999999989 Q61.500000000000000 59.399999999999977 60.700000000000045 53.000000000000000 Q67.500000000000000 52.800000000000011 73.500000000000000 52.100000000000023 C72.600000000000023 48.433333333333337 71.475000000000023 43.850000000000023 70.799999999999955 41.100000000000023 Q65.200000000000045 41.900000000000034 59.399999999999977 42.000000000000000 Q58.299999999999955 30.500000000000000 58.299999999999955 30.100000000000023 Q65.100000000000023 29.899999999999977 71.100000000000023 29.199999999999989 C70.200000000000045 25.533333333333303 69.075000000000045 20.949999999999989 68.399999999999977 18.199999999999989 Q63.000000000000000 19.000000000000000 57.399999999999977 19.100000000000023 Q56.200000000000045 6.300000000000011 55.399999999999977 0.000000000000000 C51.533333333333303 0.000000000000000 46.700000000000045 0.000000000000000 43.799999999999955 0.000000000000000 Q44.899999999999977 9.899999999999977 45.600000000000023 19.300000000000011 Q42.200000000000045 19.300000000000011 35.200000000000045 19.100000000000023 Q33.299999999999955 4.899999999999977 31.700000000000045 -2.899999999999977 C27.933333333333280 -2.533333333333303 23.225000000000023 -2.075000000000045 20.399999999999977 -1.799999999999955 Q21.799999999999955 5.600000000000023 23.399999999999977 18.699999999999989 Q14.799999999999955 18.500000000000000 10.500000000000000 18.500000000000000 C10.899999999999977 22.166666666666686 11.399999999999977 26.750000000000000 11.700000000000045 29.500000000000000 Q15.799999999999955 29.500000000000000 24.600000000000023 29.699999999999989 Q25.399999999999977 37.199999999999989 25.700000000000045 41.600000000000023 Q21.500000000000000 41.399999999999977 12.899999999999977 41.399999999999977 C13.299999999999955 45.066666666666663 13.799999999999955 49.649999999999977 14.100000000000023 52.399999999999977 Q18.100000000000023 52.399999999999977 26.700000000000045 52.600000000000023 Q27.399999999999977 61.600000000000023 28.500000000000000 70.600000000000023 C32.366666666666674 70.300000000000011 37.200000000000045 69.925000000000011 40.100000000000023 69.699999999999989 Q39.299999999999955 63.800000000000011 38.399999999999977 53.000000000000000 Q45.200000000000045 53.199999999999989 49.000000000000000 53.199999999999989 Q50.700000000000045 65.699999999999989 52.200000000000045 72.600000000000023 zM47.600000000000001 42.200000000000003 Q44.299999999999955 42.199999999999989 37.500000000000000 42.000000000000000 Q37.200000000000045 38.699999999999989 36.399999999999977 30.100000000000023 Q43.000000000000000 30.299999999999955 46.500000000000000 30.300000000000011 Q47.299999999999955 36.800000000000011 47.600000000000023 42.199999999999989 z" />
<glyph unicode="$" horiz-adv-x="48.399999999999999" d="M21.600000000000001 61.700000000000003 C21.549999999999955 64.574999999999989 21.450000000000045 70.324999999999989 21.399999999999977 73.199999999999989 C23.899999999999977 73.000000000000000 28.899999999999977 72.600000000000023 31.399999999999977 72.399999999999977 Q31.399999999999977 64.500000000000000 31.600000000000023 61.600000000000023 Q37.000000000000000 59.899999999999977 40.500000000000000 55.199999999999989 Q44.000000000000000 50.500000000000000 44.000000000000000 46.699999999999989 Q44.000000000000000 40.500000000000000 41.899999999999977 36.199999999999989 C38.133333333333326 37.333333333333314 33.424999999999955 38.750000000000000 30.600000000000023 39.600000000000023 Q31.700000000000045 42.399999999999977 31.700000000000045 44.500000000000000 Q31.700000000000045 46.600000000000023 30.200000000000045 48.100000000000023 Q28.700000000000045 49.699999999999989 26.700000000000045 49.699999999999989 Q24.700000000000045 49.699999999999989 23.200000000000045 48.399999999999977 Q21.799999999999955 47.100000000000023 21.799999999999955 44.750000000000000 Q21.799999999999955 42.399999999999977 23.399999999999977 40.000000000000000 Q25.000000000000000 37.600000000000023 27.399999999999977 36.100000000000023 Q35.799999999999955 31.000000000000000 39.600000000000023 27.050000000000011 Q43.399999999999977 23.100000000000023 43.399999999999977 17.100000000000023 Q43.399999999999977 11.100000000000023 40.000000000000000 6.949999999999989 Q36.600000000000023 2.800000000000011 31.200000000000045 1.299999999999955 Q31.200000000000045 -4.399999999999977 30.100000000000023 -11.600000000000023 C26.766666666666652 -11.299999999999955 22.600000000000023 -10.924999999999955 20.100000000000023 -10.700000000000045 Q21.100000000000023 -3.799999999999955 21.200000000000045 1.100000000000023 Q12.399999999999977 3.199999999999989 5.700000000000045 14.300000000000011 C7.733333333333348 16.266666666666652 10.274999999999977 18.725000000000023 11.799999999999955 20.199999999999989 Q20.200000000000045 12.399999999999977 25.399999999999977 12.399999999999977 Q29.100000000000023 12.399999999999977 29.100000000000023 15.399999999999977 Q29.100000000000023 17.600000000000023 27.299999999999955 19.600000000000023 Q25.500000000000000 21.600000000000023 21.299999999999955 24.600000000000023 Q8.399999999999977 33.899999999999977 8.399999999999977 44.800000000000011 Q8.399999999999977 51.300000000000011 12.149999999999977 55.750000000000000 Q15.899999999999977 60.199999999999989 21.600000000000023 61.699999999999989 z" />
<glyph unicode="%" horiz-adv-x="67.599999999999994" d="M13.199999999999999 51.399999999999999 Q12.000000000000000 47.500000000000000 12.000000000000000 43.800000000000011 Q12.000000000000000 37.000000000000000 16.200000000000045 37.000000000000000 Q17.700000000000045 37.000000000000000 19.000000000000000 39.850000000000023 Q20.299999999999955 42.699999999999989 20.299999999999955 46.399999999999977 Q20.299999999999955 55.300000000000011 16.399999999999977 55.300000000000011 Q14.399999999999977 55.300000000000011 13.200000000000045 51.399999999999977 zM6.400000000000000 32.000000000000000 Q2.799999999999955 36.100000000000023 2.799999999999955 43.550000000000011 Q2.799999999999955 51.000000000000000 6.500000000000000 57.600000000000023 Q10.299999999999955 64.300000000000011 16.649999999999977 64.300000000000011 Q23.000000000000000 64.300000000000011 26.200000000000045 59.300000000000011 Q29.399999999999977 54.300000000000011 29.399999999999977 46.800000000000011 Q29.399999999999977 39.300000000000011 25.299999999999955 33.600000000000023 Q21.200000000000045 27.899999999999977 16.200000000000045 27.899999999999977 Q10.000000000000000 27.899999999999977 6.399999999999977 32.000000000000000 zM50.200000000000003 21.000000000000000 Q49.000000000000000 17.100000000000023 49.000000000000000 13.399999999999977 Q49.000000000000000 6.600000000000023 53.200000000000045 6.600000000000023 Q54.700000000000045 6.600000000000023 56.000000000000000 9.449999999999989 Q57.299999999999955 12.300000000000011 57.299999999999955 16.000000000000000 Q57.299999999999955 24.899999999999977 53.399999999999977 24.899999999999977 Q51.399999999999977 24.899999999999977 50.200000000000045 21.000000000000000 zM43.399999999999999 1.600000000000000 Q39.799999999999955 5.699999999999989 39.799999999999955 13.149999999999977 Q39.799999999999955 20.600000000000023 43.500000000000000 27.199999999999989 Q47.299999999999955 33.899999999999977 53.649999999999977 33.899999999999977 Q60.000000000000000 33.899999999999977 63.200000000000045 28.899999999999977 Q66.399999999999977 23.899999999999977 66.399999999999977 16.399999999999977 Q66.399999999999977 8.899999999999977 62.299999999999955 3.199999999999989 Q58.200000000000045 -2.500000000000000 53.200000000000045 -2.500000000000000 Q47.000000000000000 -2.500000000000000 43.399999999999977 1.600000000000023 zM18.300000000000001 -2.300000000000000 C16.375000000000000 -1.575000000000045 12.524999999999977 -0.125000000000000 10.600000000000023 0.600000000000023 Q35.600000000000023 44.199999999999989 56.000000000000000 66.600000000000023 C58.133333333333326 65.266666666666652 60.799999999999955 63.600000000000023 62.399999999999977 62.600000000000023 Q50.799999999999955 49.600000000000023 40.500000000000000 34.199999999999989 Q30.200000000000045 18.800000000000011 18.299999999999955 -2.299999999999955 z" />
<glyph unicode="&#x26;" horiz-adv-x="53.899999999999999" d="M46.500000000000000 -4.900000000000000 Q44.299999999999955 -2.700000000000045 36.700000000000045 4.500000000000000 Q26.200000000000045 -1.000000000000000 20.500000000000000 -1.000000000000000 Q12.399999999999977 -1.000000000000000 7.149999999999977 3.149999999999977 Q1.899999999999977 7.300000000000011 1.899999999999977 14.000000000000000 Q1.899999999999977 18.699999999999989 5.000000000000000 22.600000000000023 Q8.100000000000023 26.500000000000000 14.100000000000023 31.199999999999989 Q8.600000000000023 40.500000000000000 8.600000000000023 47.399999999999977 Q8.600000000000023 56.500000000000000 15.100000000000023 62.850000000000023 Q21.600000000000023 69.199999999999989 29.700000000000045 69.199999999999989 Q37.799999999999955 69.199999999999989 42.799999999999955 64.500000000000000 Q47.799999999999955 59.800000000000011 47.799999999999955 53.100000000000023 Q47.799999999999955 44.800000000000011 40.299999999999955 37.800000000000011 Q36.799999999999955 34.500000000000000 30.500000000000000 29.600000000000023 Q33.700000000000045 25.399999999999977 39.200000000000045 19.399999999999977 Q42.000000000000000 21.300000000000011 48.399999999999977 25.800000000000011 C51.266666666666652 23.133333333333326 54.850000000000023 19.800000000000011 57.000000000000000 17.800000000000011 Q53.899999999999977 15.399999999999977 47.399999999999977 10.899999999999977 Q48.899999999999977 9.399999999999977 52.100000000000023 6.350000000000023 Q55.299999999999955 3.300000000000011 56.500000000000000 2.100000000000023 C53.166666666666629 -0.233333333333348 49.000000000000000 -3.149999999999977 46.500000000000000 -4.899999999999977 zM23.699999999999999 55.000000000000000 Q21.600000000000023 52.399999999999977 21.600000000000023 48.350000000000023 Q21.600000000000023 44.300000000000011 24.399999999999977 39.000000000000000 Q35.299999999999955 47.100000000000023 35.299999999999955 51.100000000000023 Q35.299999999999955 54.100000000000023 33.500000000000000 55.899999999999977 Q31.700000000000045 57.699999999999989 28.700000000000045 57.699999999999989 Q25.799999999999955 57.699999999999989 23.700000000000045 55.000000000000000 zM16.500000000000000 11.400000000000000 Q18.100000000000023 10.000000000000000 20.450000000000045 10.000000000000000 Q22.799999999999955 10.000000000000000 28.500000000000000 13.000000000000000 Q24.200000000000045 17.399999999999977 20.500000000000000 22.199999999999989 Q14.899999999999977 17.800000000000011 14.899999999999977 15.300000000000011 Q14.899999999999977 12.899999999999977 16.500000000000000 11.399999999999977 z" />
<glyph unicode="'" horiz-adv-x="18.100000000000001" d="M3.700000000000000 70.400000000000006 C6.399999999999977 70.175000000000011 11.799999999999955 69.725000000000023 14.500000000000000 69.500000000000000 Q14.000000000000000 57.800000000000011 11.700000000000045 42.600000000000023 C8.633333333333326 42.866666666666674 4.799999999999955 43.199999999999989 2.500000000000000 43.399999999999977 Q3.299999999999955 53.699999999999989 3.700000000000045 70.399999999999977 z" />
<glyph unicode="(" horiz-adv-x="35.399999999999999" d="M23.500000000000000 20.699999999999999 Q23.500000000000000 -0.899999999999977 32.700000000000045 -20.000000000000000 C28.366666666666674 -21.533333333333303 22.950000000000045 -23.450000000000045 19.700000000000045 -24.600000000000023 Q10.000000000000000 -6.799999999999955 10.000000000000000 18.699999999999989 Q10.000000000000000 33.699999999999989 13.500000000000000 48.600000000000023 Q17.000000000000000 63.500000000000000 22.299999999999955 73.399999999999977 C25.500000000000000 71.600000000000023 29.500000000000000 69.350000000000023 31.899999999999977 68.000000000000000 Q28.299999999999955 59.600000000000023 25.899999999999977 46.649999999999977 Q23.500000000000000 33.699999999999989 23.500000000000000 20.699999999999989 z" />
<glyph unicode=")" horiz-adv-x="35.399999999999999" d="M12.500000000000000 28.300000000000001 Q12.500000000000000 49.899999999999977 3.299999999999955 69.000000000000000 C7.633333333333326 70.533333333333303 13.049999999999955 72.449999999999989 16.299999999999955 73.600000000000023 Q26.000000000000000 55.800000000000011 26.000000000000000 30.300000000000011 Q26.000000000000000 15.300000000000011 22.500000000000000 0.399999999999977 Q19.000000000000000 -14.500000000000000 13.700000000000045 -24.399999999999977 C10.500000000000000 -22.600000000000023 6.500000000000000 -20.350000000000023 4.100000000000023 -19.000000000000000 Q7.700000000000045 -10.600000000000023 10.100000000000023 2.350000000000023 Q12.500000000000000 15.300000000000011 12.500000000000000 28.300000000000011 z" />
<glyph unicode="*" horiz-adv-x="47.5" d="M26.800000000000001 70.299999999999997 Q27.799999999999955 68.199999999999989 27.799999999999955 66.199999999999989 Q27.799999999999955 64.199999999999989 27.000000000000000 60.100000000000023 Q26.200000000000045 56.100000000000023 25.899999999999977 53.600000000000023 Q31.000000000000000 56.399999999999977 37.000000000000000 62.800000000000011 Q40.799999999999955 59.500000000000000 43.899999999999977 52.800000000000011 Q42.100000000000023 51.100000000000023 40.100000000000023 50.500000000000000 Q38.100000000000023 49.899999999999977 34.000000000000000 49.399999999999977 Q30.000000000000000 48.899999999999977 27.799999999999955 48.500000000000000 Q32.299999999999955 44.199999999999989 39.899999999999977 40.800000000000011 Q38.000000000000000 36.199999999999989 32.500000000000000 31.100000000000023 Q30.500000000000000 32.199999999999989 29.250000000000000 33.899999999999977 Q28.000000000000000 35.600000000000023 26.299999999999955 39.300000000000011 Q24.600000000000023 43.100000000000023 23.500000000000000 45.100000000000023 Q20.799999999999955 39.800000000000011 19.899999999999977 31.199999999999989 Q14.700000000000045 31.699999999999989 8.399999999999977 35.300000000000011 Q8.799999999999955 37.500000000000000 10.000000000000000 39.199999999999989 Q11.200000000000045 40.899999999999977 14.200000000000045 43.600000000000023 Q17.200000000000045 46.300000000000011 18.899999999999977 48.100000000000023 Q16.500000000000000 48.399999999999977 13.399999999999977 48.399999999999977 Q10.299999999999955 48.399999999999977 4.600000000000023 47.300000000000011 Q4.100000000000023 49.300000000000011 4.100000000000023 52.500000000000000 Q4.100000000000023 55.699999999999989 4.899999999999977 59.500000000000000 Q5.299999999999955 59.600000000000023 6.850000000000023 59.600000000000023 Q8.399999999999977 59.600000000000023 10.600000000000023 58.600000000000023 Q12.899999999999977 57.699999999999989 15.850000000000023 55.949999999999989 Q18.799999999999955 54.199999999999989 20.299999999999955 53.500000000000000 Q19.200000000000045 59.500000000000000 15.200000000000045 66.800000000000011 Q19.500000000000000 69.399999999999977 26.799999999999955 70.300000000000011 z" />
<glyph unicode="+" horiz-adv-x="83.299999999999997" d="M70.400000000000006 24.000000000000000 Q65.100000000000023 24.500000000000000 59.950000000000045 24.500000000000000 Q54.799999999999955 24.500000000000000 47.799999999999955 24.300000000000011 C47.799999999999955 23.866666666666674 47.799999999999955 23.324999999999989 47.799999999999955 23.000000000000000 Q47.799999999999955 12.899999999999977 48.299999999999955 -0.100000000000023 C43.633333333333326 0.200000000000045 37.799999999999955 0.575000000000045 34.299999999999955 0.799999999999955 Q33.799999999999955 13.800000000000011 33.799999999999955 23.000000000000000 C33.799999999999955 23.166666666666686 33.799999999999955 23.375000000000000 33.799999999999955 23.500000000000000 Q32.600000000000023 23.300000000000011 12.700000000000045 22.300000000000011 C12.500000000000000 26.300000000000011 12.250000000000000 31.300000000000011 12.100000000000023 34.300000000000011 Q26.700000000000045 34.800000000000011 33.899999999999977 35.600000000000023 Q34.399999999999977 49.000000000000000 35.399999999999977 60.300000000000011 C40.066666666666606 59.899999999999977 45.899999999999977 59.399999999999977 49.399999999999977 59.100000000000023 Q48.299999999999955 47.800000000000011 48.000000000000000 36.300000000000011 Q55.000000000000000 36.500000000000000 60.799999999999955 36.500000000000000 Q66.600000000000023 36.500000000000000 71.799999999999955 36.000000000000000 C71.333333333333371 32.000000000000000 70.750000000000000 27.000000000000000 70.399999999999977 24.000000000000000 z" />
<glyph unicode="," horiz-adv-x="26" d="M7.500000000000000 19.699999999999999 C10.825000000000045 18.600000000000023 17.475000000000023 16.399999999999977 20.799999999999955 15.300000000000011 Q19.799999999999955 6.199999999999989 13.000000000000000 -12.000000000000000 C9.933333333333280 -11.766666666666652 6.100000000000023 -11.475000000000023 3.799999999999955 -11.299999999999955 Q6.500000000000000 5.100000000000023 7.500000000000000 19.699999999999989 z" />
<glyph unicode="-" horiz-adv-x="32.399999999999999" d="M3.400000000000000 27.399999999999999 C8.250000000000000 27.625000000000000 17.950000000000045 28.074999999999989 22.799999999999955 28.300000000000011 Q25.799999999999955 28.300000000000011 28.299999999999955 28.000000000000000 C28.433333333333280 24.399999999999977 28.600000000000023 19.899999999999977 28.700000000000045 17.199999999999989 Q25.700000000000045 17.500000000000000 22.799999999999955 17.500000000000000 C16.733333333333348 17.199999999999989 9.149999999999977 16.824999999999989 4.600000000000023 16.600000000000023 C4.299999999999955 19.300000000000011 3.700000000000045 24.699999999999989 3.399999999999977 27.399999999999977 z" />
<glyph unicode="." horiz-adv-x="26" d="M18.800000000000001 15.900000000000000 Q19.899999999999977 12.399999999999977 19.899999999999977 6.949999999999989 Q19.899999999999977 1.500000000000000 18.500000000000000 -2.100000000000023 C14.000000000000000 -1.733333333333348 8.375000000000000 -1.274999999999977 5.000000000000000 -1.000000000000000 Q5.899999999999977 6.600000000000023 5.899999999999977 10.649999999999977 Q5.899999999999977 14.699999999999989 5.799999999999955 17.100000000000023 C10.133333333333326 16.699999999999989 15.549999999999955 16.199999999999989 18.799999999999955 15.899999999999977 z" />
<glyph unicode="/" horiz-adv-x="41" d="M7.600000000000000 -8.300000000000001 C5.100000000000023 -8.049999999999955 0.100000000000023 -7.549999999999955 -2.399999999999977 -7.299999999999955 Q-0.700000000000045 -3.100000000000023 5.149999999999977 11.399999999999977 Q11.000000000000000 25.899999999999977 14.200000000000045 33.399999999999977 Q23.799999999999955 56.600000000000023 33.000000000000000 73.100000000000023 C35.933333333333280 71.533333333333303 39.600000000000023 69.574999999999989 41.799999999999955 68.399999999999977 Q36.200000000000045 59.800000000000011 30.350000000000023 47.000000000000000 Q24.500000000000000 34.199999999999989 17.000000000000000 15.300000000000011 Q9.600000000000023 -3.600000000000023 7.600000000000023 -8.299999999999955 z" />
<glyph unicode="0" horiz-adv-x="48.399999999999999" d="M20.000000000000000 44.600000000000001 Q17.799999999999955 35.899999999999977 17.799999999999955 26.949999999999989 Q17.799999999999955 18.000000000000000 19.799999999999955 13.600000000000023 Q21.899999999999977 9.199999999999989 25.399999999999977 9.199999999999989 Q28.100000000000023 9.199999999999989 30.450000000000045 16.149999999999977 Q32.799999999999955 23.100000000000023 32.799999999999955 31.800000000000011 Q32.799999999999955 53.300000000000011 25.700000000000045 53.300000000000011 Q22.200000000000045 53.300000000000011 20.000000000000000 44.600000000000023 zM4.800000000000000 25.199999999999999 Q4.799999999999955 34.699999999999989 7.149999999999977 43.449999999999989 Q9.500000000000000 52.199999999999989 14.399999999999977 58.199999999999989 Q19.299999999999955 64.300000000000011 26.000000000000000 64.300000000000011 Q32.700000000000045 64.300000000000011 37.299999999999955 59.800000000000011 Q45.799999999999955 51.300000000000011 45.799999999999955 31.800000000000011 Q45.799999999999955 23.300000000000011 42.799999999999955 15.449999999999989 Q39.799999999999955 7.600000000000023 35.100000000000023 2.899999999999977 Q30.399999999999977 -1.799999999999955 25.399999999999977 -1.799999999999955 Q15.799999999999955 -1.799999999999955 10.299999999999955 5.600000000000023 Q4.799999999999955 13.000000000000000 4.799999999999955 25.199999999999989 z" />
<glyph unicode="1" horiz-adv-x="48.399999999999999" d="M36.600000000000001 62.299999999999997 Q34.600000000000023 45.899999999999977 34.600000000000023 28.850000000000023 Q34.600000000000023 11.800000000000011 36.000000000000000 -1.799999999999955 C31.533333333333303 -1.366666666666674 25.950000000000045 -0.825000000000045 22.600000000000023 -0.500000000000000 Q21.899999999999977 11.199999999999989 21.899999999999977 22.350000000000023 Q21.899999999999977 33.500000000000000 22.700000000000045 43.500000000000000 C20.833333333333371 41.000000000000000 18.500000000000000 37.875000000000000 17.100000000000023 36.000000000000000 C15.200000000000045 37.600000000000023 11.399999999999977 40.800000000000011 9.500000000000000 42.399999999999977 Q15.799999999999955 51.600000000000023 22.799999999999955 65.000000000000000 C27.399999999999977 64.100000000000023 33.149999999999977 62.975000000000023 36.600000000000023 62.300000000000011 z" />
<glyph unicode="2" horiz-adv-x="48.399999999999999" d="M28.899999999999999 64.700000000000003 Q36.799999999999955 64.699999999999989 41.049999999999955 59.699999999999989 Q45.299999999999955 54.699999999999989 45.299999999999955 47.100000000000023 Q45.299999999999955 42.000000000000000 39.700000000000045 32.350000000000023 Q34.100000000000023 22.699999999999989 25.500000000000000 12.899999999999977 Q27.700000000000045 13.699999999999989 34.549999999999955 13.699999999999989 Q41.399999999999977 13.699999999999989 45.100000000000023 13.000000000000000 C44.700000000000045 9.233333333333348 44.200000000000045 4.524999999999977 43.899999999999977 1.700000000000045 Q37.700000000000045 2.199999999999989 33.500000000000000 2.199999999999989 Q22.000000000000000 2.199999999999989 7.899999999999977 -2.600000000000023 C6.466666666666697 0.299999999999955 4.674999999999955 3.925000000000011 3.600000000000023 6.100000000000023 Q14.500000000000000 15.199999999999989 23.899999999999977 28.399999999999977 Q33.299999999999955 41.600000000000023 33.299999999999955 47.100000000000023 Q33.299999999999955 52.699999999999989 28.899999999999977 52.699999999999989 Q25.299999999999955 52.699999999999989 21.450000000000045 48.550000000000011 Q17.600000000000023 44.399999999999977 13.200000000000045 37.000000000000000 C9.866666666666674 39.333333333333314 5.700000000000045 42.250000000000000 3.200000000000045 44.000000000000000 Q16.200000000000045 64.699999999999989 28.899999999999977 64.699999999999989 z" />
<glyph unicode="3" horiz-adv-x="48.399999999999999" d="M17.000000000000000 62.299999999999997 Q21.899999999999977 64.300000000000011 28.000000000000000 64.300000000000011 Q34.100000000000023 64.300000000000011 38.600000000000023 60.199999999999989 Q43.100000000000023 56.100000000000023 43.100000000000023 48.750000000000000 Q43.100000000000023 41.399999999999977 31.500000000000000 33.300000000000011 Q41.500000000000000 28.100000000000023 41.500000000000000 19.250000000000000 Q41.500000000000000 10.399999999999977 34.899999999999977 4.699999999999989 Q28.299999999999955 -1.000000000000000 21.700000000000045 -1.000000000000000 Q15.100000000000023 -1.000000000000000 9.600000000000023 1.100000000000023 C9.000000000000000 4.766666666666652 8.250000000000000 9.350000000000023 7.799999999999955 12.100000000000023 Q11.299999999999955 11.000000000000000 16.399999999999977 11.000000000000000 Q21.500000000000000 11.000000000000000 25.500000000000000 13.199999999999989 Q29.500000000000000 15.500000000000000 29.500000000000000 18.550000000000011 Q29.500000000000000 21.600000000000023 27.000000000000000 23.600000000000023 Q24.500000000000000 25.699999999999989 20.600000000000023 25.699999999999989 Q16.700000000000045 25.699999999999989 12.200000000000045 24.300000000000011 C11.066666666666720 27.733333333333348 9.649999999999977 32.024999999999977 8.799999999999955 34.600000000000023 Q19.299999999999955 38.100000000000023 24.950000000000045 42.050000000000011 Q30.600000000000023 46.000000000000000 30.600000000000023 49.199999999999989 Q30.600000000000023 52.800000000000011 26.700000000000045 52.800000000000011 Q21.500000000000000 52.800000000000011 12.600000000000023 46.600000000000023 C10.466666666666697 49.766666666666652 7.799999999999955 53.725000000000023 6.200000000000045 56.100000000000023 Q12.200000000000045 60.399999999999977 17.000000000000000 62.300000000000011 z" />
<glyph unicode="4" horiz-adv-x="48.399999999999999" d="M27.300000000000001 16.300000000000001 Q23.799999999999955 16.300000000000011 13.600000000000023 15.100000000000023 C9.633333333333326 17.800000000000011 4.674999999999955 21.175000000000011 1.700000000000045 23.199999999999989 Q1.700000000000045 25.600000000000023 11.149999999999977 42.449999999999989 Q20.600000000000023 59.300000000000011 26.000000000000000 65.199999999999989 C31.500000000000000 64.666666666666686 38.375000000000000 64.000000000000000 42.500000000000000 63.600000000000023 Q40.100000000000023 44.800000000000011 39.500000000000000 27.300000000000011 C41.633333333333326 27.100000000000023 44.299999999999955 26.850000000000023 45.899999999999977 26.699999999999989 C45.549999999999955 24.074999999999989 44.850000000000023 18.824999999999989 44.500000000000000 16.199999999999989 C43.200000000000045 16.199999999999989 40.600000000000023 16.199999999999989 39.299999999999955 16.199999999999989 Q39.299999999999955 4.800000000000011 39.799999999999955 -3.000000000000000 C35.799999999999955 -2.666666666666629 30.799999999999955 -2.250000000000000 27.799999999999955 -2.000000000000000 Q27.299999999999955 5.100000000000023 27.299999999999955 16.300000000000011 zM16.600000000000001 26.699999999999999 Q21.600000000000023 27.399999999999977 27.399999999999977 27.399999999999977 Q28.100000000000023 40.600000000000023 29.799999999999955 52.100000000000023 Q21.299999999999955 37.399999999999977 16.600000000000023 26.699999999999989 z" />
<glyph unicode="5" horiz-adv-x="48.399999999999999" d="M42.399999999999999 64.599999999999994 C42.399999999999977 61.850000000000023 42.399999999999977 56.350000000000023 42.399999999999977 53.600000000000023 Q34.399999999999977 53.600000000000023 24.899999999999977 52.100000000000023 Q24.799999999999955 51.100000000000023 22.799999999999955 38.300000000000011 Q33.000000000000000 38.300000000000011 39.000000000000000 34.050000000000011 Q45.000000000000000 29.800000000000011 45.000000000000000 22.000000000000000 Q45.000000000000000 4.199999999999989 12.100000000000023 -2.799999999999955 C11.166666666666629 0.799999999999955 10.000000000000000 5.300000000000011 9.299999999999955 8.000000000000000 Q32.000000000000000 13.000000000000000 32.000000000000000 21.000000000000000 Q32.000000000000000 23.800000000000011 29.049999999999955 25.600000000000023 Q26.100000000000023 27.399999999999977 21.899999999999977 27.399999999999977 Q20.600000000000023 27.399999999999977 14.399999999999977 26.100000000000023 C12.466666666666697 27.633333333333326 10.049999999999955 29.550000000000011 8.600000000000023 30.699999999999989 C10.000000000000000 38.274999999999977 12.799999999999955 53.425000000000011 14.200000000000045 61.000000000000000 Q30.899999999999977 64.600000000000023 42.399999999999977 64.600000000000023 z" />
<glyph unicode="6" horiz-adv-x="48.399999999999999" d="M29.899999999999999 38.799999999999997 Q36.100000000000023 38.800000000000011 40.799999999999955 34.300000000000011 Q45.500000000000000 29.800000000000011 45.500000000000000 20.500000000000000 Q45.500000000000000 11.199999999999989 39.549999999999955 4.050000000000011 Q33.600000000000023 -3.100000000000023 25.000000000000000 -3.100000000000023 Q16.399999999999977 -3.100000000000023 11.250000000000000 3.800000000000011 Q6.100000000000023 10.699999999999989 6.100000000000023 22.000000000000000 Q6.100000000000023 34.600000000000023 11.299999999999955 45.000000000000000 Q14.100000000000023 50.699999999999989 16.450000000000045 54.500000000000000 Q18.799999999999955 58.300000000000011 23.299999999999955 64.899999999999977 C28.433333333333280 64.466666666666697 34.850000000000023 63.925000000000011 38.700000000000045 63.600000000000023 Q25.200000000000045 49.500000000000000 20.700000000000045 36.899999999999977 Q25.500000000000000 38.800000000000011 29.899999999999977 38.800000000000011 zM18.699999999999999 24.800000000000001 C18.674999999999955 24.100000000000023 18.625000000000000 22.699999999999989 18.600000000000023 22.000000000000000 Q18.600000000000023 15.699999999999989 20.500000000000000 11.800000000000011 Q22.399999999999977 7.899999999999977 25.399999999999977 7.899999999999977 Q28.500000000000000 7.899999999999977 30.750000000000000 11.300000000000011 Q33.000000000000000 14.699999999999989 33.000000000000000 19.100000000000023 Q33.000000000000000 23.600000000000023 31.350000000000023 25.699999999999989 Q29.700000000000045 27.800000000000011 26.899999999999977 27.800000000000011 Q24.100000000000023 27.800000000000011 18.700000000000045 24.800000000000011 z" />
<glyph unicode="7" horiz-adv-x="48.399999999999999" d="M40.100000000000001 64.900000000000006 C40.899999999999977 62.074999999999989 42.500000000000000 56.425000000000011 43.299999999999955 53.600000000000023 Q27.899999999999977 22.399999999999977 23.600000000000023 -1.500000000000000 C19.666666666666629 -1.133333333333326 14.750000000000000 -0.674999999999955 11.799999999999955 -0.399999999999977 Q17.000000000000000 26.899999999999977 31.700000000000045 53.600000000000023 Q18.899999999999977 52.600000000000023 10.000000000000000 51.399999999999977 C9.266666666666652 55.000000000000000 8.350000000000023 59.500000000000000 7.799999999999955 62.199999999999989 Q20.500000000000000 63.900000000000034 40.100000000000023 64.899999999999977 z" />
<glyph unicode="8" horiz-adv-x="48.399999999999999" d="M11.300000000000001 2.000000000000000 Q5.399999999999977 7.300000000000011 5.399999999999977 15.800000000000011 Q5.399999999999977 24.300000000000011 13.399999999999977 31.500000000000000 Q6.899999999999977 37.500000000000000 6.899999999999977 45.600000000000023 Q6.899999999999977 53.699999999999989 13.000000000000000 59.899999999999977 Q19.100000000000023 66.100000000000023 27.299999999999955 66.100000000000023 Q35.500000000000000 66.100000000000023 40.399999999999977 60.100000000000023 Q45.399999999999977 54.199999999999989 45.399999999999977 48.000000000000000 Q45.399999999999977 38.399999999999977 36.100000000000023 31.300000000000011 Q40.200000000000045 29.000000000000000 42.750000000000000 25.100000000000023 Q45.299999999999955 21.199999999999989 45.299999999999955 16.300000000000011 Q45.299999999999955 9.100000000000023 39.399999999999977 2.899999999999977 Q33.500000000000000 -3.299999999999955 25.299999999999955 -3.299999999999955 Q17.200000000000045 -3.299999999999955 11.299999999999955 2.000000000000000 zM30.899999999999999 9.699999999999999 Q33.299999999999955 11.699999999999989 33.299999999999955 14.750000000000000 Q33.299999999999955 17.800000000000011 31.700000000000045 20.000000000000000 Q30.100000000000023 22.199999999999989 28.500000000000000 23.350000000000023 Q26.899999999999977 24.500000000000000 24.200000000000045 26.000000000000000 Q17.399999999999977 21.500000000000000 17.399999999999977 15.600000000000023 Q17.399999999999977 12.100000000000023 19.799999999999955 9.899999999999977 Q22.200000000000045 7.699999999999989 25.399999999999977 7.699999999999989 Q28.600000000000023 7.699999999999989 30.899999999999977 9.699999999999989 zM21.199999999999999 52.600000000000001 Q18.899999999999977 50.199999999999989 18.899999999999977 47.300000000000011 Q18.899999999999977 44.399999999999977 20.500000000000000 41.600000000000023 Q22.200000000000045 38.800000000000011 24.299999999999955 37.500000000000000 Q28.600000000000023 40.100000000000023 31.000000000000000 42.500000000000000 Q33.399999999999977 44.899999999999977 33.399999999999977 47.500000000000000 Q33.399999999999977 50.199999999999989 31.549999999999955 52.649999999999977 Q29.700000000000045 55.100000000000023 26.600000000000023 55.100000000000023 Q23.500000000000000 55.100000000000023 21.200000000000045 52.600000000000023 z" />
<glyph unicode="9" horiz-adv-x="48.399999999999999" d="M22.000000000000000 21.000000000000000 Q14.299999999999955 21.000000000000000 9.350000000000023 26.649999999999977 Q4.399999999999977 32.300000000000011 4.399999999999977 40.100000000000023 Q4.399999999999977 49.699999999999989 11.200000000000045 57.500000000000000 Q18.000000000000000 65.300000000000011 26.600000000000023 65.300000000000011 Q33.500000000000000 65.300000000000011 39.299999999999955 59.800000000000011 Q42.299999999999955 56.899999999999977 44.149999999999977 51.550000000000011 Q46.000000000000000 46.199999999999989 46.000000000000000 39.000000000000000 Q46.000000000000000 23.100000000000023 23.299999999999955 -5.100000000000023 C20.133333333333326 -2.866666666666674 16.174999999999955 -0.075000000000045 13.799999999999955 1.600000000000023 Q22.500000000000000 11.500000000000000 29.500000000000000 22.699999999999989 Q24.799999999999955 21.000000000000000 22.000000000000000 21.000000000000000 zM23.000000000000000 32.000000000000000 Q27.700000000000045 32.000000000000000 33.600000000000023 36.500000000000000 Q34.000000000000000 38.899999999999977 34.000000000000000 40.000000000000000 Q34.000000000000000 47.500000000000000 31.750000000000000 50.899999999999977 Q29.500000000000000 54.300000000000011 26.100000000000023 54.300000000000011 Q22.700000000000045 54.300000000000011 19.549999999999955 49.899999999999977 Q16.399999999999977 45.500000000000000 16.399999999999977 40.100000000000023 Q16.399999999999977 36.800000000000011 18.250000000000000 34.399999999999977 Q20.100000000000023 32.000000000000000 23.000000000000000 32.000000000000000 z" />
<glyph unicode=":" horiz-adv-x="26" d="M18.800000000000001 15.900000000000000 Q19.899999999999977 12.399999999999977 19.899999999999977 6.949999999999989 Q19.899999999999977 1.500000000000000 18.500000000000000 -2.100000000000023 C14.000000000000000 -1.733333333333348 8.375000000000000 -1.274999999999977 5.000000000000000 -1.000000000000000 Q5.899999999999977 6.600000000000023 5.899999999999977 10.649999999999977 Q5.899999999999977 14.699999999999989 5.799999999999955 17.100000000000023 C10.133333333333326 16.699999999999989 15.549999999999955 16.199999999999989 18.799999999999955 15.899999999999977 zM19.399999999999999 46.500000000000000 Q20.500000000000000 43.000000000000000 20.500000000000000 37.550000000000011 Q20.500000000000000 32.100000000000023 19.100000000000023 28.500000000000000 C14.600000000000023 28.866666666666674 8.975000000000023 29.324999999999989 5.600000000000023 29.600000000000023 Q6.500000000000000 37.199999999999989 6.500000000000000 41.250000000000000 Q6.500000000000000 45.300000000000011 6.399999999999977 47.699999999999989 C10.733333333333348 47.300000000000011 16.149999999999977 46.800000000000011 19.399999999999977 46.500000000000000 z" />
<glyph unicode=";" horiz-adv-x="26" d="M19.399999999999999 46.500000000000000 Q20.500000000000000 43.000000000000000 20.500000000000000 37.550000000000011 Q20.500000000000000 32.100000000000023 19.100000000000023 28.500000000000000 C14.600000000000023 28.866666666666674 8.975000000000023 29.324999999999989 5.600000000000023 29.600000000000023 Q6.500000000000000 37.199999999999989 6.500000000000000 41.250000000000000 Q6.500000000000000 45.300000000000011 6.399999999999977 47.699999999999989 C10.733333333333348 47.300000000000011 16.149999999999977 46.800000000000011 19.399999999999977 46.500000000000000 zM7.500000000000000 19.699999999999999 C10.825000000000045 18.600000000000023 17.475000000000023 16.399999999999977 20.799999999999955 15.300000000000011 Q19.799999999999955 6.199999999999989 13.000000000000000 -12.000000000000000 C9.933333333333280 -11.766666666666652 6.100000000000023 -11.475000000000023 3.799999999999955 -11.299999999999955 Q6.500000000000000 5.100000000000023 7.500000000000000 19.699999999999989 z" />
<glyph unicode="&#x3c;" horiz-adv-x="83.299999999999997" d="M12.800000000000001 25.000000000000000 C13.075000000000045 27.725000000000023 13.625000000000000 33.175000000000011 13.899999999999977 35.899999999999977 Q43.100000000000023 46.199999999999989 67.500000000000000 59.500000000000000 C68.333333333333371 55.333333333333314 69.375000000000000 50.125000000000000 70.000000000000000 47.000000000000000 Q50.399999999999977 37.300000000000011 28.600000000000023 29.800000000000011 Q50.600000000000023 18.399999999999977 70.500000000000000 12.500000000000000 C69.633333333333326 8.800000000000011 68.549999999999955 4.175000000000011 67.899999999999977 1.399999999999977 Q40.899999999999977 8.799999999999955 12.799999999999955 25.000000000000000 z" />
<glyph unicode="=" horiz-adv-x="83.299999999999997" d="M12.300000000000001 46.399999999999999 C21.200000000000045 46.600000000000023 39.000000000000000 47.000000000000000 47.899999999999977 47.199999999999989 Q62.799999999999955 47.199999999999989 72.000000000000000 46.100000000000023 C71.399999999999977 42.100000000000023 70.649999999999977 37.100000000000023 70.200000000000045 34.100000000000023 Q62.100000000000023 35.199999999999989 48.899999999999977 35.199999999999989 C36.700000000000045 34.933333333333280 21.450000000000045 34.599999999999966 12.299999999999955 34.399999999999977 C12.299999999999955 37.399999999999977 12.299999999999955 43.399999999999977 12.299999999999955 46.399999999999977 zM12.300000000000001 24.500000000000000 C21.200000000000045 24.700000000000045 39.000000000000000 25.099999999999966 47.899999999999977 25.300000000000011 Q62.799999999999955 25.300000000000011 72.000000000000000 24.199999999999989 C71.399999999999977 20.199999999999989 70.649999999999977 15.199999999999989 70.200000000000045 12.199999999999989 Q62.100000000000023 13.300000000000011 48.899999999999977 13.300000000000011 C36.700000000000045 13.033333333333303 21.450000000000045 12.699999999999989 12.299999999999955 12.500000000000000 C12.299999999999955 15.500000000000000 12.299999999999955 21.500000000000000 12.299999999999955 24.500000000000000 z" />
<glyph unicode="&#x3e;" horiz-adv-x="83.299999999999997" d="M70.500000000000000 35.899999999999999 C70.225000000000023 33.175000000000011 69.674999999999955 27.725000000000023 69.399999999999977 25.000000000000000 Q40.200000000000045 14.699999999999989 15.799999999999955 1.399999999999977 C14.966666666666697 5.566666666666663 13.924999999999955 10.774999999999977 13.299999999999955 13.899999999999977 Q32.899999999999977 23.600000000000023 54.700000000000045 31.100000000000023 Q32.700000000000045 42.500000000000000 12.799999999999955 48.399999999999977 C13.666666666666629 52.100000000000023 14.750000000000000 56.725000000000023 15.399999999999977 59.500000000000000 Q42.399999999999977 52.100000000000023 70.500000000000000 35.899999999999977 z" />
<glyph unicode="?" horiz-adv-x="41.899999999999999" d="M23.399999999999999 70.000000000000000 Q31.100000000000023 70.000000000000000 35.500000000000000 65.050000000000011 Q39.899999999999977 60.100000000000023 39.899999999999977 52.600000000000023 Q39.899999999999977 49.100000000000023 38.600000000000023 46.699999999999989 Q37.299999999999955 44.300000000000011 36.500000000000000 43.100000000000023 Q35.799999999999955 41.899999999999977 34.049999999999955 39.899999999999977 Q32.299999999999955 37.899999999999977 31.399999999999977 37.000000000000000 Q28.000000000000000 33.100000000000023 25.200000000000045 30.300000000000011 Q20.700000000000045 25.500000000000000 20.700000000000045 21.699999999999989 Q20.700000000000045 20.300000000000011 21.200000000000045 18.600000000000023 C18.366666666666674 18.933333333333337 14.825000000000045 19.350000000000023 12.700000000000045 19.600000000000023 Q9.500000000000000 21.800000000000011 9.500000000000000 24.850000000000023 Q9.500000000000000 27.899999999999977 11.500000000000000 31.000000000000000 Q13.500000000000000 34.199999999999989 16.100000000000023 37.149999999999977 Q18.700000000000045 40.100000000000023 20.600000000000023 42.199999999999989 Q22.600000000000023 44.399999999999977 23.549999999999955 45.500000000000000 Q24.500000000000000 46.600000000000023 25.700000000000045 48.199999999999989 Q27.899999999999977 51.300000000000011 27.899999999999977 53.350000000000023 Q27.899999999999977 55.399999999999977 26.700000000000045 56.699999999999989 Q25.500000000000000 58.000000000000000 23.399999999999977 58.000000000000000 Q18.700000000000045 58.000000000000000 8.600000000000023 48.100000000000023 C5.533333333333303 50.766666666666652 1.700000000000045 54.100000000000023 -0.600000000000023 56.100000000000023 Q12.500000000000000 70.000000000000000 23.399999999999977 70.000000000000000 zM21.899999999999999 13.400000000000000 Q23.000000000000000 11.399999999999977 23.000000000000000 6.399999999999977 Q23.000000000000000 1.399999999999977 21.399999999999977 -2.299999999999955 C17.433333333333280 -1.533333333333303 12.475000000000023 -0.575000000000045 9.500000000000000 0.000000000000000 Q10.500000000000000 3.699999999999989 10.500000000000000 7.750000000000000 Q10.500000000000000 11.800000000000011 10.299999999999955 14.600000000000023 C14.166666666666629 14.199999999999989 19.000000000000000 13.699999999999989 21.899999999999977 13.399999999999977 z" />
<glyph unicode="@" horiz-adv-x="83.400000000000006" d="M53.100000000000001 -12.900000000000000 Q47.000000000000000 -15.399999999999977 40.350000000000023 -15.399999999999977 Q33.700000000000045 -15.399999999999977 27.000000000000000 -13.000000000000000 Q20.399999999999977 -10.600000000000023 15.000000000000000 -5.799999999999955 Q9.600000000000023 -1.000000000000000 6.500000000000000 7.100000000000023 Q3.399999999999977 15.300000000000011 3.399999999999977 25.850000000000023 Q3.399999999999977 36.399999999999977 6.600000000000023 45.199999999999989 Q9.899999999999977 54.100000000000023 15.299999999999955 60.050000000000011 Q20.700000000000045 66.000000000000000 27.700000000000045 69.300000000000011 Q34.799999999999955 72.600000000000023 42.450000000000045 72.600000000000023 Q50.100000000000023 72.600000000000023 56.600000000000023 70.199999999999989 Q63.200000000000045 67.800000000000011 68.500000000000000 62.949999999999989 Q73.799999999999955 58.100000000000023 76.899999999999977 49.899999999999977 Q80.000000000000000 41.800000000000011 80.000000000000000 31.050000000000011 Q80.000000000000000 20.300000000000011 74.200000000000045 13.100000000000023 Q68.500000000000000 5.899999999999977 60.000000000000000 5.899999999999977 Q55.299999999999955 5.899999999999977 51.850000000000023 8.649999999999977 Q48.399999999999977 11.399999999999977 47.399999999999977 16.699999999999989 Q42.600000000000023 7.100000000000023 37.100000000000023 7.100000000000023 Q29.399999999999977 7.100000000000023 26.399999999999977 11.399999999999977 Q23.399999999999977 15.699999999999989 23.399999999999977 24.000000000000000 Q23.399999999999977 32.300000000000011 27.350000000000023 41.449999999999989 Q31.299999999999955 50.600000000000023 36.299999999999955 50.600000000000023 Q40.799999999999955 50.600000000000023 45.799999999999955 48.199999999999989 Q45.799999999999955 49.000000000000000 45.600000000000023 51.199999999999989 C49.500000000000000 50.866666666666674 54.375000000000000 50.449999999999989 57.299999999999955 50.199999999999989 Q57.299999999999955 33.399999999999977 56.600000000000023 20.399999999999977 Q57.000000000000000 18.300000000000011 58.149999999999977 17.250000000000000 Q59.299999999999955 16.199999999999989 60.700000000000045 16.199999999999989 Q64.700000000000045 16.199999999999989 66.950000000000045 20.800000000000011 Q69.200000000000045 25.399999999999977 69.200000000000045 32.600000000000023 Q69.200000000000045 39.899999999999977 67.000000000000000 46.300000000000011 Q64.799999999999955 52.699999999999989 61.000000000000000 56.399999999999977 Q53.600000000000023 63.899999999999977 42.299999999999955 63.899999999999977 Q31.000000000000000 63.899999999999977 22.600000000000023 53.300000000000011 Q14.200000000000045 42.699999999999989 14.200000000000045 26.100000000000023 Q14.200000000000045 9.500000000000000 22.000000000000000 1.299999999999955 Q29.799999999999955 -6.799999999999955 41.299999999999955 -6.799999999999955 Q45.399999999999977 -6.799999999999955 49.799999999999955 -4.899999999999977 C50.899999999999977 -7.566666666666720 52.274999999999977 -10.899999999999977 53.100000000000023 -12.899999999999977 zM46.100000000000001 38.899999999999999 Q43.799999999999955 40.800000000000011 41.250000000000000 40.800000000000011 Q38.700000000000045 40.800000000000011 36.899999999999977 35.000000000000000 Q35.100000000000023 29.199999999999989 35.100000000000023 23.550000000000011 Q35.100000000000023 17.899999999999977 38.500000000000000 17.899999999999977 Q39.799999999999955 17.899999999999977 42.000000000000000 21.649999999999977 Q44.200000000000045 25.399999999999977 46.000000000000000 31.300000000000011 C46.033333333333303 33.833333333333314 46.075000000000045 37.000000000000000 46.100000000000023 38.899999999999977 z" />
<glyph unicode="A" horiz-adv-x="51.600000000000001" d="M35.253742827974222 0.051727973471941 C34.690307120980606 3.763795980103964 33.563435706993573 11.187931993368011 33.000000000000000 14.899999999999977 C29.308597414558562 14.926386426432430 21.925792243675687 14.979159279297392 18.234389658234250 15.005545705729844 Q17.482653195493754 11.254526984789436 16.704117383840071 7.363520707012356 Q15.925581572186502 3.472514429235275 15.227443807272266 0.001470821968383 Q14.716409548892216 0.000707253578526 14.472363799293134 0.000406388202805 Q14.228318049694167 0.000105522827084 13.562504412157637 0.000702447043750 C10.444834073193306 0.007102291772071 4.209493395264644 0.019901981228486 1.091823056300314 0.026301825956807 C5.368867292225218 17.319726369467617 13.922955764075027 51.906575456489236 18.200000000000045 69.199999999999989 C22.808201292720696 69.186370267423399 32.024603878162111 69.159110802270618 36.632805170882875 69.145481069694029 C39.924603878162088 51.855367974296314 46.508201292720742 17.275141783500771 49.799999999999955 -0.014971311896943 C46.163435706993596 0.001703509445292 38.890307120980651 0.035053152129649 35.253742827974179 0.051727973471998 zM26.500000000000000 56.100000000000001 C24.924999999999955 48.324999999999989 21.774999999999977 32.774999999999977 20.200000000000045 25.000000000000000 C23.008399353639675 24.999207756324495 28.625198060918933 24.997623268972745 31.433597414558562 24.996831025297183 C30.200198060918979 32.772623268972893 27.733399353639697 48.324207756324313 26.500000000000000 56.100000000000023 z" />
<glyph unicode="B" horiz-adv-x="52.299999999999997" d="M8.000000000000000 66.000000000000000 Q19.700000000000045 69.600000000000023 28.799999999999955 69.850000000000023 Q37.899999999999977 70.100000000000023 44.500000000000000 65.000000000000000 Q51.100000000000023 60.000000000000000 51.100000000000023 52.600000000000023 Q51.100000000000023 41.500000000000000 38.700000000000045 35.000000000000000 Q50.299999999999955 30.300000000000011 50.299999999999955 19.300000000000011 Q50.299999999999955 11.199999999999989 41.799999999999955 5.600000000000023 Q33.299999999999955 0.000000000000000 24.000000000000000 0.000000000000000 Q24.000000000000000 0.000000000000000 8.000000000000000 0.000000000000000 Q8.000000000000000 22.000000000000000 8.000000000000000 37.000000000000000 Q8.000000000000000 52.000000000000000 8.000000000000000 66.000000000000000 zM34.600000000000001 56.200000000000003 Q31.700000000000045 58.300000000000011 28.350000000000023 58.300000000000011 Q25.000000000000000 58.300000000000011 21.200000000000045 57.100000000000023 Q21.600000000000023 45.100000000000023 21.600000000000023 39.000000000000000 Q26.200000000000045 39.399999999999977 31.899999999999977 43.149999999999977 Q37.600000000000023 46.899999999999977 37.600000000000023 51.199999999999989 Q37.600000000000023 54.199999999999989 34.600000000000023 56.199999999999989 zM33.200000000000003 13.300000000000001 Q36.899999999999977 16.000000000000000 36.899999999999977 19.449999999999989 Q36.899999999999977 22.899999999999977 32.600000000000023 25.500000000000000 Q28.299999999999955 28.100000000000023 21.500000000000000 28.699999999999989 Q21.299999999999955 16.899999999999977 21.100000000000023 11.000000000000000 Q22.899999999999977 10.699999999999989 26.200000000000045 10.699999999999989 Q29.500000000000000 10.699999999999989 33.200000000000045 13.300000000000011 z" />
<glyph unicode="C" horiz-adv-x="48.200000000000003" d="M26.899999999999999 57.500000000000000 Q22.500000000000000 57.500000000000000 19.200000000000045 46.649999999999977 Q15.899999999999977 35.800000000000011 15.899999999999977 27.399999999999977 Q15.899999999999977 9.800000000000011 25.100000000000023 9.800000000000011 Q27.700000000000045 9.800000000000011 29.649999999999977 12.050000000000011 Q31.600000000000023 14.300000000000011 32.399999999999977 16.699999999999989 Q33.299999999999955 19.100000000000023 34.500000000000000 23.300000000000011 C38.733333333333348 22.966666666666640 44.024999999999977 22.550000000000011 47.200000000000045 22.300000000000011 Q44.600000000000023 10.000000000000000 39.450000000000045 3.500000000000000 Q34.299999999999955 -3.000000000000000 25.100000000000023 -3.000000000000000 Q14.299999999999955 -3.000000000000000 8.450000000000045 5.149999999999977 Q2.600000000000023 13.300000000000011 2.600000000000023 25.899999999999977 Q2.600000000000023 40.600000000000023 8.399999999999977 54.500000000000000 Q11.200000000000045 61.399999999999977 16.250000000000000 65.850000000000023 Q21.299999999999955 70.300000000000011 27.799999999999955 70.300000000000011 Q35.799999999999955 70.300000000000011 39.399999999999977 65.000000000000000 Q41.200000000000045 62.399999999999977 42.350000000000023 59.699999999999989 Q43.500000000000000 57.000000000000000 44.000000000000000 52.800000000000011 Q44.899999999999977 46.100000000000023 45.100000000000023 38.399999999999977 C40.799999999999955 38.800000000000011 35.424999999999955 39.300000000000011 32.200000000000045 39.600000000000023 Q32.200000000000045 52.500000000000000 29.799999999999955 55.800000000000011 Q28.700000000000045 57.500000000000000 26.899999999999977 57.500000000000000 z" />
<glyph unicode="D" horiz-adv-x="50.200000000000003" d="M23.800000000000001 70.099999999999994 Q35.500000000000000 70.100000000000023 41.850000000000023 60.899999999999977 Q48.200000000000045 51.699999999999989 48.200000000000045 38.600000000000023 Q48.200000000000045 28.500000000000000 45.000000000000000 19.550000000000011 Q41.799999999999955 10.600000000000023 35.000000000000000 4.500000000000000 Q28.200000000000045 -1.500000000000000 19.100000000000023 -1.500000000000000 Q17.299999999999955 -1.500000000000000 5.500000000000000 -0.100000000000023 Q6.000000000000000 22.000000000000000 6.000000000000000 36.000000000000000 Q6.000000000000000 50.000000000000000 6.000000000000000 66.699999999999989 Q15.700000000000045 70.100000000000023 23.799999999999955 70.100000000000023 zM30.699999999999999 18.800000000000001 Q35.299999999999955 27.000000000000000 35.299999999999955 36.449999999999989 Q35.299999999999955 45.899999999999977 32.000000000000000 52.000000000000000 Q28.799999999999955 58.100000000000023 24.299999999999955 58.100000000000023 Q21.899999999999977 58.100000000000023 19.799999999999955 57.300000000000011 Q20.200000000000045 42.500000000000000 20.200000000000045 32.449999999999989 Q20.200000000000045 22.399999999999977 19.600000000000023 11.500000000000000 Q20.299999999999955 10.699999999999989 21.600000000000023 10.699999999999989 Q26.200000000000045 10.699999999999989 30.700000000000045 18.800000000000011 z" />
<glyph unicode="E" horiz-adv-x="44.700000000000003" d="M8.000000000000000 0.000000000000000 Q8.000000000000000 16.000000000000000 8.000000000000000 30.000000000000000 Q8.000000000000000 44.000000000000000 8.700000000000045 66.199999999999989 Q25.884327490003557 67.759960956626799 42.184327490003625 68.322144223312932 C42.156218326669091 64.381429482208603 42.121081872500895 59.455536055828247 42.100000000000023 56.500000000000000 Q30.799999999999955 56.500000000000000 21.100000000000023 55.800000000000011 Q20.700000000000045 44.600000000000023 20.600000000000023 38.600000000000023 Q29.224528474326803 39.666950694376567 39.624528474326780 39.866950694376555 C39.651957871230252 36.266382638956770 39.686244617359648 31.765672569682067 39.706816665037309 29.065246528117200 Q33.006816665037263 28.965246528117234 20.399999999999977 27.399999999999977 Q20.399999999999977 15.399999999999977 20.500000000000000 10.100000000000023 Q30.642412401362776 10.186538548929263 43.051613198042446 10.940534565529902 C43.078474539526269 7.310670727468789 43.112051216380905 2.773340929892413 43.132197222493687 0.050943051346621 Q33.938161804401261 -0.147534718827728 22.899999999999977 -0.081436107580998 C17.933333333333280 -0.054290738387181 11.725000000000023 -0.020359026895221 8.000000000000000 0.000000000000000 z" />
<glyph unicode="F" horiz-adv-x="42.200000000000003" d="M42.100000000000001 68.138661383920223 C42.100000000000023 65.228996037940192 42.100000000000023 59.409665345980045 42.100000000000023 56.500000000000000 Q30.311961822711737 56.500000000000000 20.511961822711783 55.800000000000011 Q20.311961822711737 52.899999999999977 20.455980911355937 45.550000000000011 Q20.600000000000023 38.199999999999989 20.500000000000000 36.500000000000000 Q31.700000000000045 38.000000000000000 38.500000000000000 38.000000000000000 C38.525919553970880 34.350650822865646 38.558318996434537 29.788964351447703 38.577758661912640 27.051952468596937 Q27.312421086658333 27.078640344868177 20.334662424745716 25.926687876271274 Q19.534662424745761 12.226687876271285 20.000000000000000 0.000000000000000 C16.000000000000000 0.000000000000000 11.000000000000000 0.000000000000000 8.000000000000000 0.000000000000000 Q8.000000000000000 16.000000000000000 8.000000000000000 30.000000000000000 Q8.000000000000000 44.000000000000000 8.000000000000000 66.000000000000000 Q25.100000000000023 67.938661383920078 42.100000000000023 68.138661383920237 z" />
<glyph unicode="G" horiz-adv-x="49.799999999999997" d="M33.299999999999997 39.700000000000003 Q33.700000000000045 41.699999999999989 33.700000000000045 46.250000000000000 Q33.700000000000045 50.800000000000011 32.200000000000045 54.600000000000023 Q30.700000000000045 58.500000000000000 27.799999999999955 58.500000000000000 Q24.299999999999955 58.500000000000000 21.000000000000000 49.449999999999989 Q17.700000000000045 40.399999999999977 17.700000000000045 30.000000000000000 Q17.700000000000045 19.699999999999989 19.700000000000045 13.850000000000023 Q21.700000000000045 8.000000000000000 25.600000000000023 8.000000000000000 Q29.500000000000000 8.000000000000000 31.500000000000000 11.600000000000023 Q33.500000000000000 15.199999999999989 34.500000000000000 22.199999999999989 Q30.899999999999977 22.199999999999989 26.799999999999955 21.500000000000000 C26.100000000000023 24.800000000000011 25.225000000000023 28.925000000000011 24.700000000000045 31.399999999999977 Q33.799999999999955 32.000000000000000 47.500000000000000 33.600000000000023 Q48.100000000000023 28.399999999999977 48.100000000000023 24.100000000000023 Q48.100000000000023 19.800000000000011 45.500000000000000 13.399999999999977 Q43.000000000000000 7.000000000000000 37.950000000000045 2.100000000000023 Q32.899999999999977 -2.799999999999955 26.899999999999977 -2.799999999999955 Q16.500000000000000 -2.799999999999955 10.250000000000000 5.300000000000011 Q4.000000000000000 13.399999999999977 4.000000000000000 28.199999999999989 Q4.000000000000000 39.100000000000023 6.700000000000045 48.600000000000023 Q9.399999999999977 58.100000000000023 14.700000000000045 64.199999999999989 Q20.000000000000000 70.300000000000011 26.799999999999955 70.300000000000011 Q33.399999999999977 70.300000000000011 39.200000000000045 65.500000000000000 Q42.200000000000045 63.000000000000000 44.049999999999955 58.350000000000023 Q45.899999999999977 53.699999999999989 45.899999999999977 48.600000000000023 Q45.899999999999977 43.500000000000000 45.000000000000000 38.699999999999989 C41.100000000000023 39.033333333333360 36.225000000000023 39.449999999999989 33.299999999999955 39.699999999999989 z" />
<glyph unicode="H" horiz-adv-x="53.899999999999999" d="M20.100000000000001 50.100000000000001 C20.125000000000000 47.225000000000023 20.174999999999955 41.475000000000023 20.200000000000045 38.600000000000023 C23.950000000000045 38.824999999999989 31.450000000000045 39.274999999999977 35.200000000000045 39.500000000000000 Q35.200000000000045 55.100000000000023 35.700000000000045 72.600000000000023 C40.100000000000023 72.199999999999989 45.600000000000023 71.699999999999989 48.899999999999977 71.399999999999977 Q48.000000000000000 55.500000000000000 48.000000000000000 36.949999999999989 Q48.000000000000000 18.399999999999977 49.100000000000023 -0.299999999999955 C44.833333333333371 0.066666666666720 39.500000000000000 0.524999999999977 36.299999999999955 0.799999999999955 Q35.399999999999977 9.399999999999977 35.200000000000045 28.399999999999977 C30.299999999999955 28.100000000000023 24.174999999999955 27.725000000000023 20.500000000000000 27.500000000000000 Q20.799999999999955 13.300000000000011 21.399999999999977 -1.399999999999977 C16.866666666666674 -1.000000000000000 11.200000000000045 -0.500000000000000 7.799999999999955 -0.200000000000045 Q6.700000000000045 20.899999999999977 6.700000000000045 38.600000000000023 Q6.700000000000045 56.300000000000011 7.500000000000000 69.199999999999989 C11.899999999999977 68.800000000000011 17.399999999999977 68.300000000000011 20.700000000000045 68.000000000000000 Q20.100000000000023 59.100000000000023 20.100000000000023 50.100000000000023 z" />
<glyph unicode="I" horiz-adv-x="28.899999999999999" d="M23.300000000000001 69.200000000000003 Q22.399999999999977 53.399999999999977 22.399999999999977 33.600000000000023 Q22.399999999999977 13.800000000000011 23.700000000000045 -2.500000000000000 C19.200000000000045 -2.100000000000023 13.575000000000045 -1.600000000000023 10.200000000000045 -1.299999999999955 Q8.899999999999977 19.100000000000023 8.899999999999977 35.550000000000011 Q8.899999999999977 52.000000000000000 9.799999999999955 70.399999999999977 C14.299999999999955 70.000000000000000 19.924999999999955 69.500000000000000 23.299999999999955 69.199999999999989 z" />
<glyph unicode="J" horiz-adv-x="41" d="M12.800000000000001 22.899999999999999 Q12.399999999999977 20.899999999999977 12.399999999999977 17.750000000000000 Q12.399999999999977 14.600000000000023 13.700000000000045 11.899999999999977 Q15.100000000000023 9.199999999999989 17.299999999999955 9.199999999999989 Q20.299999999999955 9.199999999999989 21.649999999999977 13.850000000000023 Q23.000000000000000 18.500000000000000 23.000000000000000 24.000000000000000 Q23.000000000000000 47.000000000000000 21.200000000000045 70.100000000000023 C25.899999999999977 69.699999999999989 31.774999999999977 69.199999999999989 35.299999999999955 68.899999999999977 Q36.700000000000045 50.899999999999977 36.700000000000045 24.000000000000000 Q36.700000000000045 15.000000000000000 32.799999999999955 6.800000000000011 Q30.799999999999955 2.500000000000000 27.149999999999977 -0.250000000000000 Q23.500000000000000 -3.000000000000000 18.799999999999955 -3.000000000000000 Q10.399999999999977 -3.000000000000000 5.299999999999955 2.850000000000023 Q0.200000000000045 8.699999999999989 0.200000000000045 17.399999999999977 Q0.200000000000045 20.399999999999977 1.000000000000000 24.100000000000023 C4.933333333333280 23.699999999999989 9.850000000000023 23.199999999999989 12.799999999999955 22.899999999999977 z" />
<glyph unicode="K" horiz-adv-x="51.5" d="M6.700000000000000 0.600000000000000 Q6.000000000000000 15.899999999999977 6.000000000000000 35.100000000000023 Q6.000000000000000 54.300000000000011 7.000000000000000 67.899999999999977 C11.566666666666720 67.466666666666697 17.274999999999977 66.925000000000011 20.700000000000045 66.600000000000023 Q19.700000000000045 54.199999999999989 19.700000000000045 35.899999999999977 Q32.299999999999955 56.600000000000023 38.700000000000045 70.600000000000023 C42.899999999999977 68.933333333333337 48.149999999999977 66.850000000000023 51.299999999999955 65.600000000000023 Q44.100000000000023 51.199999999999989 31.799999999999955 32.199999999999989 Q41.799999999999955 16.300000000000011 51.100000000000023 8.199999999999989 C48.033333333333303 4.733333333333348 44.200000000000045 0.399999999999977 41.899999999999977 -2.200000000000045 Q30.299999999999955 9.100000000000023 19.700000000000045 28.699999999999989 Q19.700000000000045 10.399999999999977 20.399999999999977 -0.899999999999977 C15.833333333333371 -0.399999999999977 10.125000000000000 0.225000000000023 6.700000000000045 0.600000000000023 z" />
<glyph unicode="L" horiz-adv-x="38.799999999999997" d="M8.500000000000000 0.600000000000000 Q7.200000000000045 21.199999999999989 7.200000000000045 38.350000000000023 Q7.200000000000045 55.500000000000000 8.299999999999955 69.500000000000000 C12.733333333333348 69.100000000000023 18.274999999999977 68.600000000000023 21.600000000000023 68.300000000000011 Q20.100000000000023 51.100000000000023 20.100000000000023 35.399999999999977 Q20.100000000000023 19.699999999999989 20.600000000000023 12.300000000000011 Q24.200000000000045 12.800000000000011 38.299999999999955 14.300000000000011 C38.966666666666697 10.433333333333337 39.799999999999955 5.600000000000023 40.299999999999955 2.699999999999989 Q32.799999999999955 1.799999999999955 19.100000000000023 -0.299999999999955 C15.566666666666720 0.000000000000000 11.149999999999977 0.375000000000000 8.500000000000000 0.600000000000023 z" />
<glyph unicode="M" horiz-adv-x="65" d="M5.600000000000000 -0.600000000000000 Q4.799999999999955 25.399999999999977 4.799999999999955 38.600000000000023 Q4.799999999999955 51.800000000000011 6.500000000000000 66.800000000000011 C12.766666666666652 66.300000000000011 20.600000000000023 65.675000000000011 25.299999999999955 65.300000000000011 Q28.799999999999955 52.699999999999989 32.700000000000045 30.000000000000000 Q38.299999999999955 48.300000000000011 42.600000000000023 69.600000000000023 C48.899999999999977 69.033333333333303 56.774999999999977 68.324999999999989 61.500000000000000 67.899999999999977 Q62.299999999999955 37.000000000000000 62.299999999999955 22.750000000000000 Q62.299999999999955 8.500000000000000 61.399999999999977 -2.600000000000023 C56.833333333333371 -2.166666666666629 51.125000000000000 -1.625000000000000 47.700000000000045 -1.299999999999955 Q49.000000000000000 11.300000000000011 49.899999999999977 52.100000000000023 C49.633333333333326 52.133333333333326 49.299999999999955 52.175000000000011 49.100000000000023 52.199999999999989 Q48.100000000000023 48.300000000000011 45.899999999999977 38.800000000000011 Q41.299999999999955 19.100000000000023 37.000000000000000 5.199999999999989 C33.966666666666697 5.466666666666640 30.174999999999955 5.800000000000011 27.899999999999977 6.000000000000000 Q25.500000000000000 15.600000000000023 22.350000000000023 30.850000000000023 Q19.200000000000045 46.100000000000023 17.500000000000000 53.300000000000011 C17.233333333333348 53.333333333333314 16.899999999999977 53.375000000000000 16.700000000000045 53.399999999999977 Q17.600000000000023 20.000000000000000 18.799999999999955 -1.799999999999955 C14.399999999999977 -1.399999999999977 8.899999999999977 -0.899999999999977 5.600000000000023 -0.600000000000023 z" />
<glyph unicode="N" horiz-adv-x="54.399999999999999" d="M50.000000000000000 70.400000000000006 C50.024999999999977 58.774999999999977 50.075000000000045 35.524999999999977 50.100000000000023 23.899999999999977 Q50.100000000000023 12.399999999999977 49.299999999999955 -0.799999999999955 C45.566666666666606 -0.433333333333280 40.899999999999977 0.024999999999977 38.100000000000023 0.299999999999955 Q25.200000000000045 29.600000000000023 17.000000000000000 44.199999999999989 Q17.100000000000023 29.399999999999977 17.100000000000023 -3.000000000000000 C13.200000000000045 -2.566666666666720 8.325000000000045 -2.024999999999977 5.399999999999977 -1.700000000000045 Q5.100000000000023 4.500000000000000 5.100000000000023 10.300000000000011 Q5.100000000000023 34.500000000000000 7.799999999999955 66.699999999999989 C12.233333333333348 66.266666666666652 17.774999999999977 65.725000000000023 21.100000000000023 65.399999999999977 Q31.000000000000000 38.100000000000023 38.899999999999977 23.899999999999977 Q38.299999999999955 54.100000000000023 37.500000000000000 71.500000000000000 C41.666666666666629 71.133333333333326 46.875000000000000 70.675000000000011 50.000000000000000 70.399999999999977 z" />
<glyph unicode="O" horiz-adv-x="52.100000000000001" d="M9.900000000000000 5.100000000000000 Q3.399999999999977 13.699999999999989 3.399999999999977 31.149999999999977 Q3.399999999999977 48.600000000000023 10.500000000000000 59.600000000000023 Q17.700000000000045 70.600000000000023 27.399999999999977 70.600000000000023 Q37.100000000000023 70.600000000000023 43.500000000000000 62.000000000000000 Q50.000000000000000 53.399999999999977 50.000000000000000 36.100000000000023 Q50.000000000000000 18.800000000000011 42.799999999999955 7.699999999999989 Q35.600000000000023 -3.399999999999977 26.049999999999955 -3.399999999999977 Q16.500000000000000 -3.399999999999977 9.899999999999977 5.100000000000023 zM19.899999999999999 50.899999999999999 Q16.700000000000045 43.199999999999989 16.700000000000045 31.449999999999989 Q16.700000000000045 19.699999999999989 19.399999999999977 14.000000000000000 Q22.200000000000045 8.399999999999977 26.299999999999955 8.399999999999977 Q30.399999999999977 8.399999999999977 33.500000000000000 16.199999999999989 Q36.700000000000045 24.000000000000000 36.700000000000045 35.750000000000000 Q36.700000000000045 47.500000000000000 34.000000000000000 53.100000000000023 Q31.399999999999977 58.699999999999989 27.500000000000000 58.699999999999989 Q23.100000000000023 58.699999999999989 19.899999999999977 50.899999999999977 z" />
<glyph unicode="P" horiz-adv-x="46.5" d="M6.900000000000000 -1.700000000000000 Q6.500000000000000 9.600000000000023 6.500000000000000 25.449999999999989 Q6.500000000000000 41.300000000000011 7.500000000000000 67.800000000000011 Q15.899999999999977 70.899999999999977 24.750000000000000 70.899999999999977 Q33.600000000000023 70.899999999999977 40.500000000000000 64.300000000000011 Q47.500000000000000 57.800000000000011 47.500000000000000 47.850000000000023 Q47.500000000000000 37.899999999999977 39.899999999999977 30.600000000000023 Q32.399999999999977 23.399999999999977 20.200000000000045 20.000000000000000 Q20.200000000000045 8.800000000000011 20.500000000000000 -3.000000000000000 C15.966666666666697 -2.566666666666720 10.299999999999955 -2.024999999999977 6.899999999999977 -1.700000000000045 zM33.799999999999997 47.299999999999997 Q33.799999999999955 52.600000000000023 31.049999999999955 55.899999999999977 Q28.299999999999955 59.199999999999989 24.899999999999977 59.199999999999989 Q24.000000000000000 59.199999999999989 20.799999999999955 58.699999999999989 Q20.299999999999955 44.600000000000023 20.200000000000045 31.399999999999977 Q26.500000000000000 33.399999999999977 30.100000000000023 37.699999999999989 Q33.799999999999955 42.000000000000000 33.799999999999955 47.300000000000011 z" />
<glyph unicode="Q" horiz-adv-x="52.100000000000001" d="M9.900000000000000 5.100000000000000 Q3.399999999999977 13.699999999999989 3.399999999999977 31.149999999999977 Q3.399999999999977 48.600000000000023 10.500000000000000 59.600000000000023 Q17.700000000000045 70.600000000000023 27.399999999999977 70.600000000000023 Q37.100000000000023 70.600000000000023 43.500000000000000 62.000000000000000 Q50.000000000000000 53.399999999999977 50.000000000000000 35.800000000000011 Q50.000000000000000 18.199999999999989 42.000000000000000 6.500000000000000 Q45.799999999999955 1.399999999999977 51.799999999999955 -3.799999999999955 C47.500000000000000 -5.399999999999977 42.125000000000000 -7.399999999999977 38.899999999999977 -8.600000000000023 Q35.500000000000000 -4.399999999999977 33.500000000000000 -1.399999999999977 Q29.799999999999955 -3.399999999999977 26.299999999999955 -3.399999999999977 Q16.500000000000000 -3.399999999999977 9.899999999999977 5.100000000000023 zM19.899999999999999 50.899999999999999 Q16.700000000000045 43.199999999999989 16.700000000000045 31.449999999999989 Q16.700000000000045 19.699999999999989 19.399999999999977 14.000000000000000 Q22.200000000000045 8.399999999999977 26.299999999999955 8.399999999999977 Q26.799999999999955 8.399999999999977 27.600000000000023 8.600000000000023 Q25.500000000000000 13.100000000000023 24.600000000000023 17.600000000000023 C27.666666666666629 17.366666666666674 31.500000000000000 17.074999999999989 33.799999999999955 16.899999999999977 Q36.700000000000045 25.100000000000023 36.700000000000045 36.300000000000011 Q36.700000000000045 47.500000000000000 34.000000000000000 53.100000000000023 Q31.399999999999977 58.699999999999989 27.500000000000000 58.699999999999989 Q23.100000000000023 58.699999999999989 19.899999999999977 50.899999999999977 z" />
<glyph unicode="R" horiz-adv-x="52.5" d="M6.200000000000000 -0.900000000000000 Q7.500000000000000 23.100000000000023 7.500000000000000 41.899999999999977 Q7.500000000000000 60.699999999999989 7.399999999999977 66.600000000000023 Q18.399999999999977 71.800000000000011 30.299999999999955 71.800000000000011 Q39.100000000000023 71.800000000000011 45.049999999999955 66.199999999999989 Q51.000000000000000 60.600000000000023 51.000000000000000 50.399999999999977 Q51.000000000000000 38.600000000000023 34.299999999999955 27.699999999999989 Q43.399999999999977 16.300000000000011 52.899999999999977 2.600000000000023 C49.700000000000045 0.233333333333348 45.700000000000045 -2.725000000000023 43.299999999999955 -4.500000000000000 Q37.000000000000000 5.000000000000000 20.700000000000045 26.500000000000000 Q20.399999999999977 11.100000000000023 19.799999999999955 -2.399999999999977 C15.266666666666652 -1.899999999999977 9.600000000000023 -1.274999999999977 6.200000000000045 -0.899999999999977 zM33.600000000000001 41.899999999999999 Q38.799999999999955 47.100000000000023 38.799999999999955 51.300000000000011 Q38.799999999999955 55.500000000000000 36.299999999999955 57.800000000000011 Q33.899999999999977 60.100000000000023 29.899999999999977 60.100000000000023 Q25.899999999999977 60.100000000000023 21.100000000000023 58.399999999999977 Q21.100000000000023 41.500000000000000 21.000000000000000 33.300000000000011 Q28.399999999999977 36.800000000000011 33.600000000000023 41.899999999999977 z" />
<glyph unicode="S" horiz-adv-x="47.5" d="M30.199999999999999 43.700000000000003 Q31.500000000000000 48.600000000000023 31.500000000000000 51.899999999999977 Q31.500000000000000 55.199999999999989 29.700000000000045 57.300000000000011 Q27.899999999999977 59.500000000000000 25.049999999999955 59.500000000000000 Q22.200000000000045 59.500000000000000 20.299999999999955 56.699999999999989 Q18.399999999999977 53.899999999999977 18.399999999999977 50.300000000000011 Q18.399999999999977 43.300000000000011 26.399999999999977 38.300000000000011 Q34.399999999999977 33.100000000000023 37.299999999999955 30.800000000000011 Q40.200000000000045 28.500000000000000 41.399999999999977 26.600000000000023 Q44.399999999999977 21.699999999999989 44.399999999999977 16.500000000000000 Q44.399999999999977 7.500000000000000 38.350000000000023 2.149999999999977 Q32.299999999999955 -3.200000000000045 24.700000000000045 -3.200000000000045 Q15.700000000000045 -3.200000000000045 9.600000000000023 4.399999999999977 Q5.200000000000045 9.899999999999977 1.500000000000000 18.100000000000023 C4.733333333333348 19.666666666666686 8.774999999999977 21.625000000000000 11.200000000000045 22.800000000000011 Q13.500000000000000 16.800000000000011 16.950000000000045 12.649999999999977 Q20.399999999999977 8.500000000000000 24.299999999999955 8.500000000000000 Q26.799999999999955 8.500000000000000 28.799999999999955 10.100000000000023 Q30.799999999999955 11.699999999999989 30.799999999999955 14.899999999999977 Q30.799999999999955 18.199999999999989 28.299999999999955 21.000000000000000 Q25.799999999999955 23.800000000000011 21.600000000000023 26.699999999999989 Q17.399999999999977 29.600000000000023 15.100000000000023 31.449999999999989 Q12.799999999999955 33.300000000000011 10.000000000000000 36.199999999999989 Q4.700000000000045 41.800000000000011 4.700000000000045 50.550000000000011 Q4.700000000000045 59.300000000000011 10.799999999999955 65.199999999999989 Q16.899999999999977 71.199999999999989 25.299999999999955 71.199999999999989 Q33.700000000000045 71.199999999999989 39.399999999999977 64.699999999999989 Q45.200000000000045 58.199999999999989 45.200000000000045 51.350000000000023 Q45.200000000000045 44.500000000000000 42.600000000000023 39.600000000000023 C38.466666666666697 40.966666666666697 33.299999999999955 42.675000000000011 30.200000000000045 43.699999999999989 z" />
<glyph unicode="T" horiz-adv-x="38.700000000000003" d="M14.500000000000000 -0.200000000000000 Q13.500000000000000 17.500000000000000 13.500000000000000 30.649999999999977 Q13.500000000000000 43.800000000000011 14.100000000000023 58.100000000000023 C10.033333333333303 57.533333333333303 4.950000000000045 56.824999999999989 1.899999999999977 56.399999999999977 C1.350000000000023 59.300000000000011 0.250000000000000 65.100000000000023 -0.299999999999955 68.000000000000000 Q9.500000000000000 69.699999999999989 19.100000000000023 70.500000000000000 C25.333333333333371 70.833333333333314 33.125000000000000 71.250000000000000 37.799999999999955 71.500000000000000 C38.274999999999977 68.725000000000023 39.225000000000023 63.175000000000011 39.700000000000045 60.399999999999977 Q34.200000000000045 60.100000000000023 27.299999999999955 59.500000000000000 Q26.700000000000045 45.100000000000023 26.700000000000045 33.100000000000023 Q26.700000000000045 21.100000000000023 27.100000000000023 -1.299999999999955 C22.899999999999977 -0.933333333333280 17.649999999999977 -0.475000000000023 14.500000000000000 -0.200000000000045 z" />
<glyph unicode="U" horiz-adv-x="53.899999999999999" d="M19.100000000000001 23.500000000000000 Q19.100000000000023 18.300000000000011 21.399999999999977 14.199999999999989 Q23.700000000000045 10.100000000000023 26.799999999999955 10.100000000000023 Q30.000000000000000 10.100000000000023 31.899999999999977 12.899999999999977 Q33.799999999999955 15.699999999999989 34.600000000000023 20.300000000000011 Q36.000000000000000 28.399999999999977 36.000000000000000 39.050000000000011 Q36.000000000000000 49.699999999999989 34.700000000000045 70.300000000000011 C39.233333333333348 69.833333333333314 44.899999999999977 69.250000000000000 48.299999999999955 68.899999999999977 Q49.700000000000045 48.300000000000011 49.700000000000045 40.899999999999977 Q49.700000000000045 33.500000000000000 49.500000000000000 30.500000000000000 Q49.299999999999955 27.600000000000023 48.700000000000045 23.699999999999989 Q48.100000000000023 19.800000000000011 47.100000000000023 16.399999999999977 Q46.100000000000023 13.000000000000000 44.399999999999977 9.600000000000023 Q42.700000000000045 6.199999999999989 40.399999999999977 3.800000000000011 Q35.299999999999955 -1.700000000000045 26.549999999999955 -1.700000000000045 Q17.799999999999955 -1.700000000000045 11.600000000000023 6.100000000000023 Q5.399999999999977 13.899999999999977 5.399999999999977 23.500000000000000 Q5.399999999999977 44.600000000000023 7.700000000000045 68.500000000000000 C12.233333333333348 68.066666666666663 17.899999999999977 67.524999999999977 21.299999999999955 67.199999999999989 Q19.100000000000023 45.300000000000011 19.100000000000023 23.500000000000000 z" />
<glyph unicode="V" horiz-adv-x="47.5" d="M2.100000000000000 68.000000000000000 C5.325000000000045 67.699999999999989 11.774999999999977 67.100000000000023 15.000000000000000 66.800000000000011 Q18.799999999999955 41.899999999999977 24.500000000000000 18.899999999999977 C24.633333333333326 18.933333333333337 24.799999999999955 18.975000000000023 24.899999999999977 19.000000000000000 Q31.899999999999977 45.899999999999977 36.200000000000045 71.600000000000023 C40.600000000000023 71.233333333333348 46.100000000000023 70.774999999999977 49.399999999999977 70.500000000000000 Q42.700000000000045 36.100000000000023 29.500000000000000 -0.600000000000023 C25.666666666666629 -0.266666666666652 20.875000000000000 0.149999999999977 18.000000000000000 0.399999999999977 Q7.799999999999955 36.500000000000000 2.100000000000023 68.000000000000000 z" />
<glyph unicode="W" horiz-adv-x="66.299999999999997" d="M29.899999999999999 62.600000000000001 C32.399999999999977 62.375000000000000 37.399999999999977 61.925000000000011 39.899999999999977 61.699999999999989 Q40.600000000000023 53.699999999999989 42.049999999999955 40.550000000000011 Q43.500000000000000 27.399999999999977 44.100000000000023 21.899999999999977 C44.266666666666652 21.933333333333337 44.475000000000023 21.975000000000023 44.600000000000023 22.000000000000000 Q51.700000000000045 52.600000000000023 53.799999999999955 69.899999999999977 C58.166666666666629 69.533333333333303 63.625000000000000 69.074999999999989 66.899999999999977 68.800000000000011 Q61.299999999999955 35.699999999999989 50.500000000000000 0.799999999999955 C47.299999999999955 1.066666666666720 43.299999999999955 1.399999999999977 40.899999999999977 1.600000000000023 Q37.500000000000000 13.399999999999977 33.299999999999955 32.500000000000000 Q29.000000000000000 11.899999999999977 25.100000000000023 -0.399999999999977 C21.899999999999977 -0.133333333333326 17.899999999999977 0.200000000000045 15.500000000000000 0.399999999999977 Q7.000000000000000 42.800000000000011 4.000000000000000 69.199999999999989 C8.299999999999955 68.833333333333314 13.674999999999955 68.375000000000000 16.899999999999977 68.100000000000023 Q18.500000000000000 51.199999999999989 21.899999999999977 21.899999999999977 C22.066666666666720 21.933333333333337 22.274999999999977 21.975000000000023 22.399999999999977 22.000000000000000 Q28.200000000000045 48.699999999999989 29.899999999999977 62.600000000000023 z" />
<glyph unicode="X" horiz-adv-x="46.299999999999997" d="M2.300000000000000 3.500000000000000 Q8.700000000000045 19.199999999999989 16.299999999999955 33.600000000000023 Q8.399999999999977 51.399999999999977 5.000000000000000 66.699999999999989 C9.633333333333326 66.300000000000011 15.424999999999955 65.800000000000011 18.899999999999977 65.500000000000000 Q19.899999999999977 58.100000000000023 23.899999999999977 43.699999999999989 Q30.500000000000000 57.100000000000023 38.100000000000023 70.000000000000000 C41.333333333333371 67.233333333333348 45.375000000000000 63.774999999999977 47.799999999999955 61.699999999999989 Q39.500000000000000 49.300000000000011 30.600000000000023 32.500000000000000 Q36.299999999999955 18.600000000000023 45.200000000000045 -0.799999999999955 C40.700000000000045 -0.333333333333371 35.075000000000045 0.250000000000000 31.700000000000045 0.600000000000023 Q27.799999999999955 9.500000000000000 23.299999999999955 22.000000000000000 Q15.399999999999977 5.000000000000000 12.799999999999955 -3.000000000000000 C9.299999999999955 -0.833333333333371 4.924999999999955 1.875000000000000 2.299999999999955 3.500000000000000 z" />
<glyph unicode="Y" horiz-adv-x="44.399999999999999" d="M16.100000000000001 19.100000000000001 C16.100000000000023 21.024999999999977 16.100000000000023 24.875000000000000 16.100000000000023 26.800000000000011 Q3.000000000000000 54.500000000000000 1.600000000000023 66.699999999999989 C5.766666666666652 66.300000000000011 10.975000000000023 65.800000000000011 14.100000000000023 65.500000000000000 Q16.299999999999955 54.300000000000011 23.299999999999955 38.699999999999989 Q31.600000000000023 56.800000000000011 36.200000000000045 71.399999999999977 C40.066666666666720 71.033333333333303 44.899999999999977 70.574999999999989 47.799999999999955 70.300000000000011 Q40.399999999999977 49.199999999999989 30.000000000000000 27.399999999999977 Q29.799999999999955 18.399999999999977 29.799999999999955 11.600000000000023 Q29.799999999999955 4.800000000000011 30.200000000000045 -2.100000000000023 C25.799999999999955 -1.633333333333326 20.299999999999955 -1.049999999999955 17.000000000000000 -0.700000000000045 Q16.100000000000023 8.600000000000023 16.100000000000023 19.100000000000023 z" />
<glyph unicode="Z" horiz-adv-x="45.799999999999997" d="M19.300000000000001 12.199999999999999 Q22.899999999999977 12.500000000000000 28.799999999999955 12.500000000000000 Q34.700000000000045 12.500000000000000 44.000000000000000 11.100000000000023 C43.433333333333280 7.133333333333326 42.725000000000023 2.175000000000011 42.299999999999955 -0.799999999999955 Q31.000000000000000 0.700000000000045 24.850000000000023 0.700000000000045 Q18.700000000000045 0.700000000000045 5.500000000000000 -1.500000000000000 C4.966666666666697 2.000000000000000 4.299999999999955 6.375000000000000 3.899999999999977 9.000000000000000 Q22.700000000000045 39.000000000000000 31.500000000000000 56.199999999999989 Q17.700000000000045 55.399999999999977 7.399999999999977 53.899999999999977 C6.766666666666652 57.800000000000011 5.975000000000023 62.675000000000011 5.500000000000000 65.600000000000023 Q17.799999999999955 68.199999999999989 44.799999999999955 68.500000000000000 C45.366666666666674 65.600000000000023 46.075000000000045 61.975000000000023 46.500000000000000 59.800000000000011 Q31.700000000000045 31.600000000000023 19.299999999999955 12.199999999999989 z" />
<glyph unicode="[" horiz-adv-x="37.299999999999997" d="M20.899999999999999 -12.100000000000000 C24.825000000000045 -11.875000000000000 32.674999999999955 -11.424999999999955 36.600000000000023 -11.200000000000045 C36.750000000000000 -13.649999999999977 37.049999999999955 -18.549999999999955 37.200000000000045 -21.000000000000000 Q29.100000000000023 -23.299999999999955 18.000000000000000 -23.799999999999955 C14.166666666666629 -23.433333333333280 9.375000000000000 -22.975000000000023 6.500000000000000 -22.700000000000045 Q7.700000000000045 9.500000000000000 7.700000000000045 30.850000000000023 Q7.700000000000045 52.199999999999989 6.500000000000000 71.000000000000000 Q16.200000000000045 72.399999999999977 23.600000000000023 72.399999999999977 Q31.000000000000000 72.399999999999977 34.899999999999977 71.500000000000000 C35.899999999999977 68.166666666666686 37.149999999999977 64.000000000000000 37.899999999999977 61.500000000000000 Q32.700000000000045 61.899999999999977 26.100000000000023 61.899999999999977 C24.500000000000000 61.800000000000011 22.500000000000000 61.675000000000011 21.299999999999955 61.600000000000023 Q19.700000000000045 35.100000000000023 19.700000000000045 19.100000000000023 Q19.700000000000045 3.100000000000023 20.899999999999977 -12.100000000000023 z" />
<glyph unicode="\" horiz-adv-x="41" d="M44.000000000000000 -7.300000000000000 C41.500000000000000 -7.549999999999955 36.500000000000000 -8.049999999999955 34.000000000000000 -8.299999999999955 Q32.000000000000000 -3.600000000000023 24.549999999999955 15.300000000000011 Q17.100000000000023 34.199999999999989 11.200000000000045 47.000000000000000 Q5.399999999999977 59.800000000000011 -0.200000000000045 68.399999999999977 C2.733333333333348 69.966666666666697 6.399999999999977 71.925000000000011 8.600000000000023 73.100000000000023 Q17.799999999999955 56.600000000000023 27.399999999999977 33.399999999999977 Q30.600000000000023 25.899999999999977 36.450000000000045 11.399999999999977 Q42.299999999999955 -3.100000000000023 44.000000000000000 -7.299999999999955 z" />
<glyph unicode="]" horiz-adv-x="37.299999999999997" d="M18.500000000000000 60.700000000000003 C14.575000000000045 60.475000000000023 6.725000000000023 60.024999999999977 2.799999999999955 59.800000000000011 C2.649999999999977 62.250000000000000 2.350000000000023 67.149999999999977 2.200000000000045 69.600000000000023 Q10.299999999999955 71.900000000000034 21.399999999999977 72.399999999999977 C25.233333333333348 72.033333333333303 30.024999999999977 71.574999999999989 32.899999999999977 71.300000000000011 Q31.700000000000045 39.100000000000023 31.700000000000045 17.699999999999989 Q31.700000000000045 -3.700000000000045 32.899999999999977 -22.399999999999977 Q23.200000000000045 -23.799999999999955 15.799999999999955 -23.799999999999955 Q8.399999999999977 -23.799999999999955 4.500000000000000 -22.899999999999977 C3.500000000000000 -19.566666666666720 2.250000000000000 -15.399999999999977 1.500000000000000 -12.899999999999977 Q6.700000000000045 -13.299999999999955 13.299999999999955 -13.299999999999955 C14.899999999999977 -13.200000000000045 16.899999999999977 -13.075000000000045 18.100000000000023 -13.000000000000000 Q19.700000000000045 13.500000000000000 19.700000000000045 29.500000000000000 Q19.700000000000045 45.500000000000000 18.500000000000000 60.699999999999989 z" />
<glyph unicode="^" horiz-adv-x="100" d="M45.200000000000003 74.200000000000003 C47.924999999999955 73.925000000000011 53.375000000000000 73.375000000000000 56.100000000000023 73.100000000000023 Q67.500000000000000 55.100000000000023 82.700000000000045 39.500000000000000 C78.200000000000045 38.333333333333314 72.575000000000045 36.875000000000000 69.200000000000045 36.000000000000000 Q57.399999999999977 49.399999999999977 50.000000000000000 61.399999999999977 Q37.399999999999977 47.899999999999977 30.700000000000045 35.500000000000000 C26.666666666666629 36.699999999999989 21.625000000000000 38.199999999999989 18.600000000000023 39.100000000000023 Q26.600000000000023 55.899999999999977 45.200000000000045 74.199999999999989 z" />
<glyph unicode="_" horiz-adv-x="50" d="M0.000000000000000 -12.000000000000000 C6.500000000000000 -11.799999999999955 19.500000000000000 -11.399999999999977 26.000000000000000 -11.200000000000045 Q40.899999999999977 -11.200000000000045 50.100000000000023 -12.299999999999955 C49.500000000000000 -15.966666666666697 48.750000000000000 -20.549999999999955 48.299999999999955 -23.299999999999955 Q41.700000000000045 -22.200000000000045 27.000000000000000 -22.200000000000045 C18.000000000000000 -22.466666666666697 6.750000000000000 -22.799999999999955 0.000000000000000 -23.000000000000000 C0.000000000000000 -20.250000000000000 0.000000000000000 -14.750000000000000 0.000000000000000 -12.000000000000000 z" />
<glyph unicode="`" horiz-adv-x="50" d="M32.299999999999997 57.200000000000003 C31.174999999999955 55.774999999999977 28.924999999999955 52.925000000000011 27.799999999999955 51.500000000000000 Q18.000000000000000 56.500000000000000 8.500000000000000 58.800000000000011 C10.299999999999955 61.766666666666652 12.549999999999955 65.475000000000023 13.899999999999977 67.699999999999989 Q21.000000000000000 64.600000000000023 32.299999999999955 57.199999999999989 z" />
<glyph unicode="a" horiz-adv-x="39" d="M10.300000000000001 42.700000000000003 Q14.500000000000000 48.199999999999989 21.299999999999955 48.199999999999989 Q28.100000000000023 48.199999999999989 31.299999999999955 42.500000000000000 Q34.600000000000023 36.899999999999977 34.600000000000023 26.500000000000000 Q34.600000000000023 16.100000000000023 33.399999999999977 -2.200000000000045 C30.600000000000023 -1.966666666666697 27.100000000000023 -1.674999999999955 25.000000000000000 -1.500000000000000 C24.799999999999955 -0.700000000000045 24.399999999999977 0.899999999999977 24.200000000000045 1.700000000000045 Q19.500000000000000 -1.000000000000000 14.600000000000023 -1.000000000000000 Q9.700000000000045 -1.000000000000000 6.500000000000000 2.199999999999989 Q3.299999999999955 5.500000000000000 3.299999999999955 11.600000000000023 Q3.299999999999955 17.699999999999989 9.299999999999955 22.100000000000023 Q15.399999999999977 26.500000000000000 23.299999999999955 26.699999999999989 C23.299999999999955 27.600000000000023 23.299999999999955 28.725000000000023 23.299999999999955 29.399999999999977 Q23.299999999999955 37.300000000000011 19.500000000000000 37.300000000000011 Q17.600000000000023 37.300000000000011 16.049999999999955 34.649999999999977 Q14.500000000000000 32.000000000000000 13.799999999999955 28.600000000000023 C10.733333333333348 28.899999999999977 6.899999999999977 29.274999999999977 4.600000000000023 29.500000000000000 Q6.100000000000023 37.300000000000011 10.299999999999955 42.699999999999989 zM13.500000000000000 11.000000000000000 Q13.500000000000000 7.800000000000011 17.299999999999955 7.800000000000011 Q19.899999999999977 7.800000000000011 22.799999999999955 9.000000000000000 C22.866666666666674 11.800000000000011 22.950000000000045 15.300000000000011 23.000000000000000 17.399999999999977 Q18.299999999999955 17.000000000000000 15.899999999999977 15.050000000000011 Q13.500000000000000 13.100000000000023 13.500000000000000 11.000000000000000 z" />
<glyph unicode="b" horiz-adv-x="43.100000000000001" d="M30.500000000000000 47.100000000000001 Q35.299999999999955 47.100000000000023 37.649999999999977 41.800000000000011 Q40.000000000000000 36.500000000000000 40.000000000000000 29.199999999999989 Q40.000000000000000 22.000000000000000 38.450000000000045 14.899999999999977 Q36.899999999999977 7.800000000000011 33.500000000000000 2.800000000000011 Q30.200000000000045 -2.100000000000023 25.899999999999977 -2.100000000000023 Q19.600000000000023 -2.100000000000023 15.500000000000000 3.500000000000000 Q15.500000000000000 2.100000000000023 15.700000000000045 -0.500000000000000 C12.766666666666652 -0.200000000000045 9.100000000000023 0.174999999999955 6.899999999999977 0.399999999999977 Q6.299999999999955 12.399999999999977 6.299999999999955 32.649999999999977 Q6.299999999999955 52.899999999999977 7.399999999999977 73.300000000000011 C11.200000000000045 72.966666666666697 15.950000000000045 72.550000000000011 18.799999999999955 72.300000000000011 Q17.600000000000023 52.600000000000023 17.600000000000023 36.500000000000000 Q24.299999999999955 47.100000000000023 30.500000000000000 47.100000000000023 zM17.600000000000001 19.399999999999999 C17.625000000000000 17.449999999999989 17.674999999999955 13.550000000000011 17.700000000000045 11.600000000000023 Q18.899999999999977 9.899999999999977 19.799999999999955 9.250000000000000 Q20.700000000000045 8.600000000000023 22.500000000000000 8.600000000000023 Q25.000000000000000 8.600000000000023 26.899999999999977 14.149999999999977 Q28.799999999999955 19.699999999999989 28.799999999999955 24.699999999999989 Q28.799999999999955 29.699999999999989 28.250000000000000 31.899999999999977 Q27.700000000000045 34.100000000000023 25.899999999999977 34.100000000000023 Q22.100000000000023 34.100000000000023 17.600000000000023 19.399999999999977 z" />
<glyph unicode="c" horiz-adv-x="35.399999999999999" d="M23.199999999999999 25.600000000000001 Q23.399999999999977 27.000000000000000 23.399999999999977 29.199999999999989 Q23.399999999999977 31.399999999999977 22.500000000000000 33.699999999999989 Q21.600000000000023 36.000000000000000 20.200000000000045 36.000000000000000 Q17.399999999999977 36.000000000000000 16.149999999999977 29.550000000000011 Q14.899999999999977 23.100000000000023 14.899999999999977 17.699999999999989 Q14.899999999999977 8.600000000000023 18.600000000000023 8.600000000000023 Q21.600000000000023 8.600000000000023 27.100000000000023 19.100000000000023 C29.566666666666720 17.333333333333314 32.649999999999977 15.125000000000000 34.500000000000000 13.800000000000011 Q31.799999999999955 6.500000000000000 27.750000000000000 2.199999999999989 Q23.700000000000045 -2.100000000000023 18.000000000000000 -2.100000000000023 Q12.299999999999955 -2.100000000000023 7.750000000000000 2.399999999999977 Q3.200000000000045 6.899999999999977 3.200000000000045 16.100000000000023 Q3.200000000000045 25.899999999999977 6.399999999999977 35.600000000000023 Q8.200000000000045 40.899999999999977 11.750000000000000 44.300000000000011 Q15.299999999999955 47.699999999999989 20.799999999999955 47.699999999999989 Q26.299999999999955 47.699999999999989 29.950000000000045 42.100000000000023 Q33.600000000000023 36.500000000000000 33.600000000000023 29.699999999999989 Q33.600000000000023 26.800000000000011 32.700000000000045 24.699999999999989 C29.533333333333303 25.000000000000000 25.575000000000045 25.375000000000000 23.200000000000045 25.600000000000023 z" />
<glyph unicode="d" horiz-adv-x="41" d="M25.000000000000000 45.299999999999997 C25.024999999999977 48.399999999999977 25.075000000000045 54.600000000000023 25.100000000000023 57.699999999999989 Q25.100000000000023 64.600000000000023 24.799999999999955 73.399999999999977 C28.700000000000045 73.066666666666663 33.575000000000045 72.649999999999977 36.500000000000000 72.399999999999977 Q36.700000000000045 65.300000000000011 36.700000000000045 46.649999999999977 Q36.700000000000045 28.000000000000000 35.100000000000023 -1.399999999999977 C32.133333333333326 -1.133333333333326 28.424999999999955 -0.799999999999955 26.200000000000045 -0.600000000000023 Q25.899999999999977 3.399999999999977 25.600000000000023 8.800000000000011 Q21.299999999999955 0.200000000000045 16.299999999999955 0.200000000000045 Q8.600000000000023 0.200000000000045 5.600000000000023 5.000000000000000 Q2.600000000000023 9.800000000000011 2.600000000000023 18.899999999999977 Q2.600000000000023 28.100000000000023 6.549999999999955 37.899999999999977 Q10.500000000000000 47.699999999999989 15.500000000000000 47.699999999999989 Q20.000000000000000 47.699999999999989 25.000000000000000 45.300000000000011 zM25.300000000000001 36.000000000000000 Q22.799999999999955 37.899999999999977 20.350000000000023 37.899999999999977 Q17.899999999999977 37.899999999999977 16.100000000000023 31.399999999999977 Q14.299999999999955 25.000000000000000 14.299999999999955 18.000000000000000 Q14.299999999999955 11.000000000000000 17.700000000000045 11.000000000000000 Q19.000000000000000 11.000000000000000 21.200000000000045 15.350000000000023 Q23.399999999999977 19.699999999999989 25.200000000000045 26.399999999999977 C25.233333333333348 29.600000000000023 25.274999999999977 33.600000000000023 25.299999999999955 36.000000000000000 z" />
<glyph unicode="e" horiz-adv-x="36.700000000000003" d="M18.399999999999999 7.200000000000000 Q22.200000000000045 7.199999999999989 26.500000000000000 14.500000000000000 C29.033333333333303 13.000000000000000 32.200000000000045 11.125000000000000 34.100000000000023 10.000000000000000 Q32.200000000000045 6.699999999999989 30.450000000000045 4.399999999999977 Q28.700000000000045 2.100000000000023 25.200000000000045 0.000000000000000 Q21.700000000000045 -2.100000000000023 17.399999999999977 -2.100000000000023 Q11.100000000000023 -2.100000000000023 6.799999999999955 3.250000000000000 Q2.500000000000000 8.600000000000023 2.500000000000000 17.699999999999989 Q2.500000000000000 28.100000000000023 6.200000000000045 37.100000000000023 Q8.200000000000045 41.800000000000011 11.950000000000045 44.750000000000000 Q15.700000000000045 47.699999999999989 19.600000000000023 47.699999999999989 Q23.600000000000023 47.699999999999989 26.000000000000000 46.449999999999989 Q28.399999999999977 45.199999999999989 29.799999999999955 43.600000000000023 Q31.299999999999955 42.100000000000023 32.399999999999977 39.100000000000023 Q33.500000000000000 36.100000000000023 33.899999999999977 34.199999999999989 Q34.399999999999977 32.300000000000011 34.700000000000045 28.699999999999989 Q35.100000000000023 23.899999999999977 35.100000000000023 20.000000000000000 Q27.100000000000023 17.800000000000011 14.399999999999977 16.000000000000000 Q14.700000000000045 12.000000000000000 15.799999999999955 9.600000000000023 Q16.899999999999977 7.199999999999989 18.399999999999977 7.199999999999989 zM20.600000000000001 37.899999999999999 Q18.399999999999977 37.899999999999977 16.649999999999977 33.500000000000000 Q14.899999999999977 29.100000000000023 14.600000000000023 23.300000000000011 Q19.899999999999977 24.399999999999977 23.799999999999955 25.399999999999977 Q23.799999999999955 37.899999999999977 20.600000000000023 37.899999999999977 z" />
<glyph unicode="f" horiz-adv-x="28.699999999999999" d="M7.100000000000000 44.500000000000000 Q7.100000000000023 58.000000000000000 11.149999999999977 65.750000000000000 Q15.200000000000045 73.500000000000000 21.500000000000000 73.500000000000000 Q27.899999999999977 73.500000000000000 31.250000000000000 67.050000000000011 Q34.600000000000023 60.600000000000023 34.600000000000023 49.300000000000011 C31.500000000000000 49.633333333333326 27.625000000000000 50.050000000000011 25.299999999999955 50.300000000000011 Q25.299999999999955 61.500000000000000 21.799999999999955 61.500000000000000 Q18.799999999999955 61.500000000000000 18.799999999999955 44.500000000000000 C18.799999999999955 43.533333333333303 18.799999999999955 42.324999999999989 18.799999999999955 41.600000000000023 Q25.500000000000000 42.100000000000023 29.700000000000045 42.100000000000023 C29.700000000000045 39.000000000000000 29.700000000000045 35.125000000000000 29.700000000000045 32.800000000000011 Q22.799999999999955 32.800000000000011 18.899999999999977 32.300000000000011 Q18.899999999999977 17.000000000000000 20.000000000000000 -1.700000000000045 C16.100000000000023 -1.299999999999955 11.225000000000023 -0.799999999999955 8.299999999999955 -0.500000000000000 Q7.500000000000000 13.300000000000011 7.200000000000045 30.699999999999989 Q4.600000000000023 30.300000000000011 3.600000000000023 30.000000000000000 C2.899999999999977 33.000000000000000 2.024999999999977 36.750000000000000 1.500000000000000 39.000000000000000 Q2.500000000000000 39.300000000000011 7.100000000000023 40.100000000000023 C7.100000000000023 41.566666666666663 7.100000000000023 43.399999999999977 7.100000000000023 44.500000000000000 z" />
<glyph unicode="g" horiz-adv-x="40.399999999999999" d="M19.300000000000001 -13.400000000000000 Q22.399999999999977 -13.399999999999977 24.299999999999955 -7.049999999999955 Q26.200000000000045 -0.700000000000045 26.200000000000045 8.699999999999989 Q20.899999999999977 -0.799999999999955 15.250000000000000 -0.799999999999955 Q9.600000000000023 -0.799999999999955 6.100000000000023 3.000000000000000 Q2.700000000000045 6.899999999999977 2.700000000000045 14.750000000000000 Q2.700000000000045 22.600000000000023 5.399999999999977 30.300000000000011 Q8.100000000000023 38.100000000000023 12.049999999999955 42.750000000000000 Q16.000000000000000 47.399999999999977 19.600000000000023 47.399999999999977 Q25.899999999999977 47.399999999999977 31.200000000000045 42.300000000000011 C33.533333333333303 41.966666666666640 36.450000000000045 41.550000000000011 38.200000000000045 41.300000000000011 Q36.899999999999977 34.800000000000011 36.899999999999977 21.350000000000023 Q36.899999999999977 7.899999999999977 36.100000000000023 1.500000000000000 Q35.399999999999977 -4.799999999999955 33.700000000000045 -10.899999999999977 Q32.000000000000000 -17.000000000000000 28.700000000000045 -20.600000000000023 Q25.399999999999977 -24.200000000000045 20.000000000000000 -24.200000000000045 Q14.600000000000023 -24.200000000000045 9.700000000000045 -19.799999999999955 Q4.799999999999955 -15.500000000000000 1.799999999999955 -9.399999999999977 C4.600000000000023 -8.200000000000045 8.100000000000023 -6.700000000000045 10.200000000000045 -5.799999999999955 Q14.100000000000023 -13.399999999999977 19.299999999999955 -13.399999999999977 zM22.100000000000001 37.200000000000003 Q19.600000000000023 37.199999999999989 17.049999999999955 30.000000000000000 Q14.500000000000000 22.800000000000011 14.500000000000000 14.699999999999989 Q14.500000000000000 11.600000000000023 15.350000000000023 10.000000000000000 Q16.200000000000045 8.399999999999977 17.200000000000045 8.399999999999977 Q18.299999999999955 8.399999999999977 20.000000000000000 10.399999999999977 Q21.700000000000045 12.399999999999977 23.600000000000023 16.800000000000011 Q25.600000000000023 21.199999999999989 26.500000000000000 26.500000000000000 C26.566666666666720 29.033333333333360 26.649999999999977 32.199999999999989 26.700000000000045 34.100000000000023 Q23.799999999999955 37.199999999999989 22.100000000000023 37.199999999999989 z" />
<glyph unicode="h" horiz-adv-x="42.5" d="M18.100000000000001 40.700000000000003 Q22.700000000000045 46.399999999999977 27.149999999999977 46.399999999999977 Q31.600000000000023 46.399999999999977 34.399999999999977 43.399999999999977 Q39.299999999999955 38.199999999999989 39.299999999999955 30.199999999999989 Q39.299999999999955 15.699999999999989 38.200000000000045 -0.100000000000023 C34.333333333333371 0.266666666666652 29.500000000000000 0.725000000000023 26.600000000000023 1.000000000000000 Q27.299999999999955 15.699999999999989 27.299999999999955 29.899999999999977 Q27.299999999999955 35.199999999999989 24.600000000000023 35.199999999999989 Q21.399999999999977 35.199999999999989 17.700000000000045 21.199999999999989 Q17.500000000000000 11.199999999999989 16.700000000000045 -1.500000000000000 C12.799999999999955 -1.133333333333326 7.924999999999955 -0.674999999999955 5.000000000000000 -0.399999999999977 Q6.299999999999955 16.800000000000011 6.299999999999955 38.000000000000000 Q6.299999999999955 59.199999999999989 5.600000000000023 72.100000000000023 C9.500000000000000 71.733333333333348 14.375000000000000 71.274999999999977 17.299999999999955 71.000000000000000 Q18.100000000000023 56.899999999999977 18.100000000000023 40.699999999999989 z" />
<glyph unicode="i" horiz-adv-x="23.600000000000001" d="M6.900000000000000 47.700000000000003 C9.750000000000000 47.425000000000011 15.450000000000045 46.875000000000000 18.299999999999955 46.600000000000023 C18.299999999999955 34.600000000000023 18.299999999999955 10.600000000000023 18.299999999999955 -1.399999999999977 C15.450000000000045 -1.125000000000000 9.750000000000000 -0.575000000000045 6.899999999999977 -0.299999999999955 C6.899999999999977 11.699999999999989 6.899999999999977 35.699999999999989 6.899999999999977 47.699999999999989 zM7.700000000000000 65.299999999999997 C10.500000000000000 64.975000000000023 16.100000000000023 64.324999999999989 18.899999999999977 64.000000000000000 C18.649999999999977 61.199999999999989 18.149999999999977 55.600000000000023 17.899999999999977 52.800000000000011 C15.100000000000023 53.149999999999977 9.500000000000000 53.850000000000023 6.700000000000045 54.199999999999989 C6.950000000000045 56.975000000000023 7.450000000000045 62.524999999999977 7.700000000000045 65.300000000000011 z" />
<glyph unicode="j" horiz-adv-x="25.199999999999999" d="M20.300000000000001 -0.500000000000000 Q20.299999999999955 -12.000000000000000 16.399999999999977 -18.250000000000000 Q12.500000000000000 -24.500000000000000 7.000000000000000 -24.500000000000000 Q4.600000000000023 -24.500000000000000 1.049999999999955 -22.600000000000023 Q-2.500000000000000 -20.700000000000045 -5.100000000000023 -17.500000000000000 C-3.933333333333280 -14.933333333333280 -2.475000000000023 -11.725000000000023 -1.600000000000023 -9.799999999999955 Q2.299999999999955 -12.799999999999955 4.250000000000000 -12.799999999999955 Q6.200000000000045 -12.799999999999955 7.600000000000023 -9.799999999999955 Q9.100000000000023 -6.899999999999977 9.100000000000023 -1.500000000000000 Q9.100000000000023 32.600000000000023 8.600000000000023 46.800000000000011 C12.200000000000045 46.433333333333337 16.700000000000045 45.975000000000023 19.399999999999977 45.699999999999989 Q20.299999999999955 30.600000000000023 20.299999999999955 -0.500000000000000 zM9.199999999999999 65.299999999999997 C12.000000000000000 64.975000000000023 17.600000000000023 64.324999999999989 20.399999999999977 64.000000000000000 C20.149999999999977 61.199999999999989 19.649999999999977 55.600000000000023 19.399999999999977 52.800000000000011 C16.600000000000023 53.149999999999977 11.000000000000000 53.850000000000023 8.200000000000045 54.199999999999989 C8.450000000000045 56.975000000000023 8.950000000000045 62.524999999999977 9.200000000000045 65.300000000000011 z" />
<glyph unicode="k" horiz-adv-x="41" d="M6.300000000000000 -0.800000000000000 Q5.899999999999977 9.600000000000023 5.899999999999977 30.000000000000000 Q5.899999999999977 50.399999999999977 7.399999999999977 73.100000000000023 C11.299999999999955 72.800000000000011 16.174999999999955 72.425000000000011 19.100000000000023 72.199999999999989 Q17.600000000000023 47.699999999999989 17.600000000000023 25.000000000000000 Q28.000000000000000 37.699999999999989 33.200000000000045 49.699999999999989 C35.866666666666674 47.366666666666674 39.200000000000045 44.449999999999989 41.200000000000045 42.699999999999989 Q36.700000000000045 32.199999999999989 29.200000000000045 21.899999999999977 Q37.000000000000000 12.800000000000011 41.600000000000023 4.899999999999977 C39.066666666666720 2.500000000000000 35.899999999999977 -0.500000000000000 34.000000000000000 -2.299999999999955 Q28.600000000000023 6.100000000000023 17.600000000000023 17.600000000000023 Q17.600000000000023 6.500000000000000 18.000000000000000 -1.899999999999977 C14.100000000000023 -1.533333333333303 9.225000000000023 -1.075000000000045 6.299999999999955 -0.799999999999955 z" />
<glyph unicode="l" horiz-adv-x="23.600000000000001" d="M19.600000000000001 72.200000000000003 Q18.100000000000023 46.899999999999977 18.100000000000023 26.600000000000023 Q18.100000000000023 6.300000000000011 18.600000000000023 -1.899999999999977 C14.666666666666629 -1.533333333333303 9.750000000000000 -1.075000000000045 6.799999999999955 -0.799999999999955 Q6.399999999999977 9.600000000000023 6.399999999999977 28.750000000000000 Q6.399999999999977 47.899999999999977 7.899999999999977 73.100000000000023 C11.799999999999955 72.800000000000011 16.674999999999955 72.425000000000011 19.600000000000023 72.199999999999989 z" />
<glyph unicode="m" horiz-adv-x="64.700000000000003" d="M27.100000000000001 44.600000000000001 Q33.200000000000045 44.600000000000023 36.399999999999977 40.399999999999977 Q41.600000000000023 48.000000000000000 46.700000000000045 48.000000000000000 Q60.600000000000023 48.000000000000000 60.600000000000023 27.100000000000023 Q60.600000000000023 15.300000000000011 58.600000000000023 -1.500000000000000 C54.733333333333348 -1.166666666666629 49.899999999999977 -0.750000000000000 47.000000000000000 -0.500000000000000 Q48.899999999999977 18.199999999999989 48.899999999999977 28.000000000000000 Q48.899999999999977 37.800000000000011 45.700000000000045 37.800000000000011 Q44.299999999999955 37.800000000000011 42.399999999999977 33.300000000000011 Q40.500000000000000 28.800000000000011 39.899999999999977 23.300000000000011 Q39.700000000000045 10.800000000000011 39.100000000000023 1.000000000000000 C35.200000000000045 1.366666666666674 30.325000000000045 1.825000000000045 27.399999999999977 2.100000000000023 Q28.200000000000045 16.199999999999989 28.200000000000045 25.300000000000011 Q28.200000000000045 34.399999999999977 25.700000000000045 34.399999999999977 Q24.100000000000023 34.399999999999977 21.549999999999955 28.850000000000023 Q19.000000000000000 23.300000000000011 17.899999999999977 17.199999999999989 Q18.000000000000000 8.000000000000000 18.799999999999955 -1.799999999999955 C14.899999999999977 -1.433333333333394 10.024999999999977 -0.975000000000023 7.100000000000023 -0.700000000000045 Q6.000000000000000 13.399999999999977 6.000000000000000 25.000000000000000 Q6.000000000000000 36.600000000000023 6.600000000000023 46.699999999999989 C9.366666666666674 46.500000000000000 12.825000000000045 46.250000000000000 14.899999999999977 46.100000000000023 Q15.500000000000000 43.399999999999977 16.600000000000023 36.300000000000011 Q21.899999999999977 44.600000000000023 27.100000000000023 44.600000000000023 z" />
<glyph unicode="n" horiz-adv-x="42.399999999999999" d="M25.699999999999999 47.600000000000001 Q38.899999999999977 47.600000000000023 38.899999999999977 25.600000000000023 Q38.899999999999977 14.000000000000000 37.600000000000023 1.000000000000000 C33.700000000000045 1.366666666666674 28.825000000000045 1.825000000000045 25.899999999999977 2.100000000000023 Q27.000000000000000 13.500000000000000 27.000000000000000 25.149999999999977 Q27.000000000000000 36.800000000000011 23.700000000000045 36.800000000000011 Q22.100000000000023 36.800000000000011 19.600000000000023 28.750000000000000 Q17.100000000000023 20.699999999999989 16.500000000000000 13.000000000000000 Q16.700000000000045 8.899999999999977 17.299999999999955 -1.799999999999955 C13.399999999999977 -1.433333333333394 8.524999999999977 -0.975000000000023 5.600000000000023 -0.700000000000045 Q4.500000000000000 13.399999999999977 4.500000000000000 24.100000000000023 Q4.500000000000000 34.800000000000011 5.100000000000023 43.300000000000011 C7.566666666666720 43.033333333333303 10.649999999999977 42.699999999999989 12.500000000000000 42.500000000000000 Q12.700000000000045 41.699999999999989 14.000000000000000 36.000000000000000 Q19.799999999999955 47.600000000000023 25.700000000000045 47.600000000000023 z" />
<glyph unicode="o" horiz-adv-x="36.799999999999997" d="M14.100000000000000 18.000000000000000 Q14.100000000000023 6.699999999999989 19.100000000000023 6.699999999999989 Q21.299999999999955 6.699999999999989 22.799999999999955 13.050000000000011 Q24.299999999999955 19.399999999999977 24.299999999999955 25.199999999999989 Q24.299999999999955 38.000000000000000 20.100000000000023 38.000000000000000 Q17.399999999999977 38.000000000000000 15.750000000000000 31.149999999999977 Q14.100000000000023 24.300000000000011 14.100000000000023 18.000000000000000 zM2.400000000000000 18.899999999999999 Q2.399999999999977 28.199999999999989 6.200000000000045 37.100000000000023 Q8.200000000000045 41.600000000000023 11.850000000000023 44.449999999999989 Q15.500000000000000 47.300000000000011 20.000000000000000 47.300000000000011 Q24.500000000000000 47.300000000000011 27.750000000000000 45.250000000000000 Q31.000000000000000 43.199999999999989 32.700000000000045 39.800000000000011 Q36.000000000000000 33.100000000000023 36.000000000000000 25.199999999999989 Q36.000000000000000 14.300000000000011 31.549999999999955 5.850000000000023 Q27.100000000000023 -2.600000000000023 19.100000000000023 -2.600000000000023 Q2.399999999999977 -2.600000000000023 2.399999999999977 18.899999999999977 z" />
<glyph unicode="p" horiz-adv-x="41" d="M17.199999999999999 40.500000000000000 Q21.200000000000045 46.600000000000023 27.100000000000023 46.600000000000023 Q33.000000000000000 46.600000000000023 36.299999999999955 41.800000000000011 Q39.600000000000023 37.000000000000000 39.600000000000023 29.199999999999989 Q39.600000000000023 17.600000000000023 34.649999999999977 8.100000000000023 Q29.700000000000045 -1.399999999999977 24.100000000000023 -1.399999999999977 Q20.100000000000023 -1.399999999999977 17.200000000000045 -0.399999999999977 Q17.399999999999977 -14.200000000000045 17.899999999999977 -24.500000000000000 C14.000000000000000 -24.100000000000023 9.125000000000000 -23.600000000000023 6.200000000000045 -23.299999999999955 Q5.700000000000045 -5.299999999999955 5.700000000000045 14.949999999999989 Q5.700000000000045 35.199999999999989 7.100000000000023 49.899999999999977 C10.566666666666720 49.533333333333303 14.899999999999977 49.074999999999989 17.500000000000000 48.800000000000011 C17.424999999999955 46.725000000000023 17.274999999999977 42.574999999999989 17.200000000000045 40.500000000000000 zM20.199999999999999 8.600000000000000 Q23.000000000000000 8.600000000000023 25.450000000000045 14.100000000000023 Q27.899999999999977 19.600000000000023 27.899999999999977 25.100000000000023 Q27.899999999999977 30.699999999999989 26.899999999999977 33.750000000000000 Q25.899999999999977 36.800000000000011 24.600000000000023 36.800000000000011 Q22.399999999999977 36.800000000000011 20.750000000000000 34.199999999999989 Q19.100000000000023 31.600000000000023 17.299999999999955 26.699999999999989 Q17.200000000000045 21.500000000000000 17.200000000000045 10.699999999999989 Q18.700000000000045 8.600000000000023 20.200000000000045 8.600000000000023 z" />
<glyph unicode="q" horiz-adv-x="40.200000000000003" d="M37.299999999999997 44.200000000000003 Q35.500000000000000 31.100000000000023 35.500000000000000 8.949999999999989 Q35.500000000000000 -13.200000000000045 36.100000000000023 -23.899999999999977 C32.200000000000045 -23.533333333333303 27.325000000000045 -23.075000000000045 24.399999999999977 -22.799999999999955 Q23.799999999999955 -12.899999999999977 23.799999999999955 1.500000000000000 Q20.000000000000000 -1.399999999999977 16.500000000000000 -1.399999999999977 Q10.700000000000045 -1.399999999999977 6.750000000000000 3.850000000000023 Q2.799999999999955 9.100000000000023 2.799999999999955 17.300000000000011 Q2.799999999999955 29.500000000000000 6.950000000000045 38.500000000000000 Q11.100000000000023 47.500000000000000 17.500000000000000 47.500000000000000 Q24.000000000000000 47.500000000000000 29.399999999999977 40.000000000000000 Q30.200000000000045 42.699999999999989 30.500000000000000 44.899999999999977 C32.766666666666652 44.666666666666686 35.600000000000023 44.375000000000000 37.299999999999955 44.199999999999989 zM18.000000000000000 7.900000000000000 Q19.700000000000045 7.899999999999977 21.350000000000023 10.500000000000000 Q23.000000000000000 13.100000000000023 24.000000000000000 16.199999999999989 Q24.200000000000045 23.699999999999989 24.799999999999955 32.300000000000011 Q24.299999999999955 34.500000000000000 23.049999999999955 35.899999999999977 Q21.799999999999955 37.300000000000011 20.399999999999977 37.300000000000011 Q18.000000000000000 37.300000000000011 16.250000000000000 31.250000000000000 Q14.500000000000000 25.199999999999989 14.500000000000000 19.800000000000011 Q14.500000000000000 14.399999999999977 15.500000000000000 11.149999999999977 Q16.500000000000000 7.899999999999977 18.000000000000000 7.899999999999977 z" />
<glyph unicode="r" horiz-adv-x="30.100000000000001" d="M23.899999999999999 36.100000000000001 Q19.700000000000045 36.100000000000023 17.600000000000023 25.500000000000000 Q17.799999999999955 18.500000000000000 17.799999999999955 12.100000000000023 Q17.799999999999955 5.699999999999989 17.399999999999977 -2.299999999999955 C13.533333333333303 -1.966666666666697 8.700000000000045 -1.549999999999955 5.799999999999955 -1.299999999999955 Q6.100000000000023 13.399999999999977 6.100000000000023 14.899999999999977 Q6.100000000000023 33.399999999999977 4.299999999999955 43.199999999999989 C6.799999999999955 42.933333333333337 9.924999999999955 42.600000000000023 11.799999999999955 42.399999999999977 Q12.500000000000000 39.500000000000000 13.399999999999977 37.300000000000011 Q18.299999999999955 47.800000000000011 23.299999999999955 47.800000000000011 Q27.399999999999977 47.800000000000011 30.500000000000000 44.199999999999989 C29.633333333333326 41.133333333333326 28.549999999999955 37.300000000000011 27.899999999999977 35.000000000000000 Q26.299999999999955 36.100000000000023 23.899999999999977 36.100000000000023 z" />
<glyph unicode="s" horiz-adv-x="34.700000000000003" d="M23.699999999999999 31.500000000000000 Q23.700000000000045 37.500000000000000 20.700000000000045 37.500000000000000 Q19.200000000000045 37.500000000000000 17.950000000000045 36.050000000000011 Q16.700000000000045 34.600000000000023 16.700000000000045 32.100000000000023 Q16.700000000000045 29.699999999999989 17.649999999999977 28.100000000000023 Q18.600000000000023 26.500000000000000 21.100000000000023 24.899999999999977 Q23.700000000000045 23.399999999999977 25.149999999999977 22.449999999999989 Q26.600000000000023 21.500000000000000 28.600000000000023 19.800000000000011 Q32.700000000000045 16.199999999999989 32.700000000000045 10.550000000000011 Q32.700000000000045 4.899999999999977 28.399999999999977 1.399999999999977 Q24.200000000000045 -2.100000000000023 18.899999999999977 -2.100000000000023 Q13.600000000000023 -2.100000000000023 9.299999999999955 0.700000000000045 Q5.100000000000023 3.600000000000023 2.500000000000000 7.899999999999977 C4.299999999999955 9.933333333333337 6.549999999999955 12.475000000000023 7.899999999999977 14.000000000000000 Q11.899999999999977 7.100000000000023 16.299999999999955 7.100000000000023 Q17.799999999999955 7.100000000000023 18.899999999999977 7.949999999999989 Q20.000000000000000 8.800000000000011 20.000000000000000 10.300000000000011 Q20.000000000000000 13.500000000000000 15.399999999999977 16.199999999999989 Q10.500000000000000 18.899999999999977 7.700000000000045 22.199999999999989 Q4.899999999999977 25.500000000000000 4.899999999999977 31.500000000000000 Q4.899999999999977 37.600000000000023 9.899999999999977 42.449999999999989 Q14.899999999999977 47.300000000000011 20.600000000000023 47.300000000000011 Q26.399999999999977 47.300000000000011 29.750000000000000 43.350000000000023 Q33.100000000000023 39.399999999999977 33.100000000000023 32.699999999999989 Q33.100000000000023 30.000000000000000 32.500000000000000 26.899999999999977 C29.466666666666697 27.166666666666686 25.674999999999955 27.500000000000000 23.399999999999977 27.699999999999989 Q23.700000000000045 30.000000000000000 23.700000000000045 31.500000000000000 z" />
<glyph unicode="t" horiz-adv-x="28.699999999999999" d="M28.500000000000000 41.799999999999997 C28.500000000000000 39.425000000000011 28.500000000000000 34.675000000000011 28.500000000000000 32.300000000000011 Q23.700000000000045 32.300000000000011 21.100000000000023 32.199999999999989 Q20.799999999999955 22.199999999999989 20.799999999999955 -1.399999999999977 C16.866666666666674 -1.033333333333303 11.950000000000045 -0.575000000000045 9.000000000000000 -0.299999999999955 Q9.000000000000000 17.199999999999989 9.299999999999955 31.399999999999977 Q7.799999999999955 31.399999999999977 3.600000000000023 30.899999999999977 C3.100000000000023 33.633333333333326 2.475000000000023 37.050000000000011 2.100000000000023 39.100000000000023 Q4.500000000000000 39.600000000000023 9.600000000000023 40.399999999999977 Q9.799999999999955 47.800000000000011 10.399999999999977 62.000000000000000 C14.366666666666674 61.633333333333326 19.325000000000045 61.175000000000011 22.299999999999955 60.899999999999977 Q21.700000000000045 51.000000000000000 21.399999999999977 41.699999999999989 Q23.899999999999977 41.800000000000011 28.500000000000000 41.800000000000011 z" />
<glyph unicode="u" horiz-adv-x="42" d="M37.799999999999997 46.899999999999999 C37.750000000000000 42.949999999999989 37.649999999999977 35.050000000000011 37.600000000000023 31.100000000000023 Q37.600000000000023 8.800000000000011 38.399999999999977 -1.700000000000045 C35.100000000000023 -1.366666666666674 30.975000000000023 -0.950000000000045 28.500000000000000 -0.700000000000045 Q28.200000000000045 3.500000000000000 27.200000000000045 7.800000000000011 Q21.700000000000045 -0.299999999999955 16.149999999999977 -0.299999999999955 Q10.600000000000023 -0.299999999999955 7.299999999999955 3.500000000000000 Q4.000000000000000 7.300000000000011 4.000000000000000 14.000000000000000 Q4.000000000000000 27.000000000000000 5.899999999999977 45.000000000000000 C9.766666666666652 44.633333333333326 14.600000000000023 44.175000000000011 17.500000000000000 43.899999999999977 Q15.700000000000045 26.800000000000011 15.700000000000045 15.500000000000000 Q15.700000000000045 10.399999999999977 18.899999999999977 10.399999999999977 Q20.399999999999977 10.399999999999977 22.549999999999955 14.500000000000000 Q24.700000000000045 18.600000000000023 26.000000000000000 24.399999999999977 Q25.899999999999977 26.600000000000023 25.899999999999977 29.600000000000023 Q25.899999999999977 32.600000000000023 26.200000000000045 47.899999999999977 C30.066666666666720 47.566666666666663 34.899999999999977 47.149999999999977 37.799999999999955 46.899999999999977 z" />
<glyph unicode="v" horiz-adv-x="36.600000000000001" d="M23.800000000000001 -1.600000000000000 C20.600000000000023 -1.299999999999955 14.200000000000045 -0.700000000000045 11.000000000000000 -0.399999999999977 Q3.600000000000023 29.399999999999977 2.000000000000000 46.300000000000011 C5.799999999999955 45.966666666666640 10.549999999999955 45.550000000000011 13.399999999999977 45.300000000000011 Q15.100000000000023 26.899999999999977 18.100000000000023 12.300000000000011 Q22.200000000000045 27.300000000000011 26.799999999999955 50.000000000000000 C30.399999999999977 49.699999999999989 34.899999999999977 49.324999999999989 37.600000000000023 49.100000000000023 Q31.899999999999977 22.800000000000011 23.799999999999955 -1.600000000000023 z" />
<glyph unicode="w" horiz-adv-x="51.600000000000001" d="M39.899999999999999 -1.200000000000000 C37.549999999999955 -1.000000000000000 32.850000000000023 -0.600000000000023 30.500000000000000 -0.399999999999977 Q28.000000000000000 10.600000000000023 26.000000000000000 20.000000000000000 Q23.500000000000000 11.100000000000023 19.399999999999977 -1.500000000000000 C15.933333333333280 -1.133333333333326 11.600000000000023 -0.674999999999955 9.000000000000000 -0.399999999999977 Q2.899999999999977 29.399999999999977 1.500000000000000 46.300000000000011 C5.299999999999955 45.933333333333337 10.049999999999955 45.475000000000023 12.899999999999977 45.199999999999989 Q14.500000000000000 23.300000000000011 16.100000000000023 11.800000000000011 Q19.700000000000045 26.000000000000000 23.299999999999955 44.399999999999977 C25.866666666666674 44.166666666666686 29.075000000000045 43.875000000000000 31.000000000000000 43.699999999999989 Q32.200000000000045 27.600000000000023 34.700000000000045 14.300000000000011 Q38.200000000000045 28.000000000000000 42.399999999999977 49.899999999999977 C46.000000000000000 49.566666666666663 50.500000000000000 49.149999999999977 53.200000000000045 48.899999999999977 Q48.799999999999955 27.800000000000011 39.899999999999977 -1.200000000000045 z" />
<glyph unicode="x" horiz-adv-x="36.799999999999997" d="M11.300000000000001 -2.900000000000000 C8.649999999999977 -2.125000000000000 3.350000000000023 -0.575000000000045 0.700000000000045 0.200000000000045 Q5.299999999999955 10.899999999999977 12.299999999999955 22.800000000000011 Q6.299999999999955 33.899999999999977 3.899999999999977 47.500000000000000 C7.600000000000023 47.133333333333326 12.225000000000023 46.675000000000011 15.000000000000000 46.399999999999977 Q16.399999999999977 39.399999999999977 19.100000000000023 32.000000000000000 Q25.100000000000023 41.600000000000023 27.799999999999955 49.699999999999989 C30.666666666666629 48.300000000000011 34.250000000000000 46.550000000000011 36.399999999999977 45.500000000000000 Q32.899999999999977 34.600000000000023 24.100000000000023 23.199999999999989 Q28.500000000000000 12.899999999999977 35.299999999999955 4.899999999999977 C32.799999999999955 2.533333333333360 29.674999999999955 -0.424999999999955 27.799999999999955 -2.200000000000045 Q22.100000000000023 5.199999999999989 17.899999999999977 14.000000000000000 Q13.000000000000000 2.300000000000011 11.299999999999955 -2.899999999999977 z" />
<glyph unicode="y" horiz-adv-x="37.600000000000001" d="M28.699999999999999 50.100000000000001 C31.100000000000023 48.699999999999989 35.899999999999977 45.899999999999977 38.299999999999955 44.500000000000000 Q30.000000000000000 18.800000000000011 21.299999999999955 -23.700000000000045 C17.633333333333326 -23.366666666666674 13.049999999999955 -22.950000000000045 10.299999999999955 -22.700000000000045 Q11.899999999999977 -14.799999999999955 15.600000000000023 -0.899999999999977 Q6.000000000000000 17.500000000000000 3.500000000000000 45.500000000000000 C7.233333333333348 45.133333333333326 11.899999999999977 44.675000000000011 14.700000000000045 44.399999999999977 Q16.200000000000045 26.000000000000000 19.500000000000000 13.000000000000000 Q24.100000000000023 34.399999999999977 28.700000000000045 50.100000000000023 z" />
<glyph unicode="z" horiz-adv-x="34.399999999999999" d="M5.500000000000000 46.100000000000001 Q13.500000000000000 47.699999999999989 20.250000000000000 47.699999999999989 Q27.000000000000000 47.699999999999989 31.000000000000000 47.399999999999977 C31.533333333333303 44.333333333333314 32.200000000000045 40.500000000000000 32.600000000000023 38.199999999999989 Q23.799999999999955 25.899999999999977 15.200000000000045 10.399999999999977 C16.799999999999955 10.399999999999977 18.799999999999955 10.399999999999977 20.000000000000000 10.399999999999977 Q26.500000000000000 10.399999999999977 32.799999999999955 9.699999999999989 C32.366666666666674 6.633333333333326 31.825000000000045 2.800000000000011 31.500000000000000 0.500000000000000 Q25.299999999999955 1.100000000000023 20.299999999999955 1.100000000000023 Q15.299999999999955 1.100000000000023 6.200000000000045 -0.399999999999977 C5.600000000000023 3.033333333333360 4.850000000000023 7.324999999999989 4.399999999999977 9.899999999999977 Q15.700000000000045 30.800000000000011 21.100000000000023 38.100000000000023 Q12.500000000000000 37.400000000000034 7.399999999999977 36.199999999999989 C6.766666666666652 39.500000000000000 5.975000000000023 43.625000000000000 5.500000000000000 46.100000000000023 z" />
<glyph unicode="{" horiz-adv-x="50" d="M27.300000000000001 12.100000000000000 Q27.299999999999955 9.500000000000000 26.200000000000045 4.149999999999977 Q25.100000000000023 -1.200000000000045 25.100000000000023 -3.399999999999977 Q25.100000000000023 -7.399999999999977 27.950000000000045 -9.850000000000023 Q30.799999999999955 -12.299999999999955 36.000000000000000 -13.000000000000000 C35.333333333333371 -16.833333333333371 34.500000000000000 -21.625000000000000 34.000000000000000 -24.500000000000000 Q24.100000000000023 -24.000000000000000 18.100000000000023 -18.500000000000000 Q12.100000000000023 -13.000000000000000 12.100000000000023 -4.899999999999977 Q12.100000000000023 -2.100000000000023 13.200000000000045 3.350000000000023 Q14.299999999999955 8.800000000000011 14.299999999999955 11.600000000000023 Q14.299999999999955 17.800000000000011 6.700000000000045 18.000000000000000 C6.200000000000045 21.633333333333326 5.575000000000045 26.175000000000011 5.200000000000045 28.899999999999977 Q10.399999999999977 29.000000000000000 12.350000000000023 31.050000000000011 Q14.299999999999955 33.100000000000023 14.299999999999955 36.000000000000000 Q14.299999999999955 39.000000000000000 13.450000000000045 44.100000000000023 Q12.600000000000023 49.199999999999989 12.600000000000023 51.800000000000011 Q12.600000000000023 60.800000000000011 19.700000000000045 66.850000000000023 Q26.799999999999955 72.900000000000034 38.500000000000000 73.399999999999977 C38.500000000000000 70.066666666666663 38.500000000000000 65.899999999999977 38.500000000000000 63.399999999999977 Q31.700000000000045 62.300000000000011 28.649999999999977 59.000000000000000 Q25.600000000000023 55.699999999999989 25.600000000000023 49.800000000000011 Q25.600000000000023 47.899999999999977 26.450000000000045 43.449999999999989 Q27.299999999999955 39.000000000000000 27.299999999999955 36.800000000000011 Q27.299999999999955 29.199999999999989 18.700000000000045 24.500000000000000 Q27.299999999999955 19.800000000000011 27.299999999999955 12.100000000000023 z" />
<glyph unicode="|" horiz-adv-x="50" d="M28.399999999999999 76.000000000000000 C28.600000000000023 62.250000000000000 29.000000000000000 34.750000000000000 29.200000000000045 21.000000000000000 Q29.200000000000045 -7.100000000000023 28.100000000000023 -24.500000000000000 C25.433333333333280 -24.266666666666652 22.100000000000023 -23.975000000000023 20.100000000000023 -23.799999999999955 Q21.200000000000045 -7.200000000000045 21.200000000000045 20.000000000000000 C20.933333333333394 38.666666666666686 20.600000000000023 62.000000000000000 20.399999999999977 76.000000000000000 C22.399999999999977 76.000000000000000 26.399999999999977 76.000000000000000 28.399999999999977 76.000000000000000 z" />
<glyph unicode="}" horiz-adv-x="50" d="M14.400000000000000 36.799999999999997 Q14.399999999999977 39.399999999999977 15.500000000000000 44.750000000000000 Q16.600000000000023 50.100000000000023 16.600000000000023 52.300000000000011 Q16.600000000000023 56.300000000000011 13.750000000000000 58.750000000000000 Q10.899999999999977 61.199999999999989 5.700000000000045 61.899999999999977 C6.366666666666674 65.733333333333348 7.200000000000045 70.524999999999977 7.700000000000045 73.399999999999977 Q17.600000000000023 72.899999999999977 23.600000000000023 67.399999999999977 Q29.600000000000023 61.899999999999977 29.600000000000023 53.800000000000011 Q29.600000000000023 51.000000000000000 28.500000000000000 45.550000000000011 Q27.399999999999977 40.100000000000023 27.399999999999977 37.399999999999977 Q27.399999999999977 31.099999999999966 35.000000000000000 30.899999999999977 C35.500000000000000 27.266666666666652 36.125000000000000 22.725000000000023 36.500000000000000 20.000000000000000 Q31.299999999999955 19.899999999999977 29.350000000000023 17.850000000000023 Q27.399999999999977 15.800000000000011 27.399999999999977 12.800000000000011 Q27.399999999999977 9.899999999999977 28.250000000000000 4.800000000000011 Q29.100000000000023 -0.299999999999955 29.100000000000023 -2.899999999999977 Q29.100000000000023 -11.899999999999977 22.000000000000000 -17.950000000000045 Q14.899999999999977 -24.000000000000000 3.200000000000045 -24.500000000000000 C3.200000000000045 -21.166666666666629 3.200000000000045 -17.000000000000000 3.200000000000045 -14.500000000000000 Q10.000000000000000 -13.399999999999977 13.049999999999955 -10.100000000000023 Q16.100000000000023 -6.799999999999955 16.100000000000023 -0.899999999999977 Q16.100000000000023 1.000000000000000 15.250000000000000 5.449999999999989 Q14.399999999999977 9.899999999999977 14.399999999999977 12.100000000000023 Q14.399999999999977 19.699999999999989 23.000000000000000 24.399999999999977 Q14.399999999999977 29.100000000000023 14.399999999999977 36.800000000000011 z" />
<glyph unicode="~" horiz-adv-x="83.299999999999997" d="M15.100000000000000 33.500000000000000 Q20.600000000000023 39.199999999999989 26.549999999999955 39.199999999999989 Q32.500000000000000 39.199999999999989 40.399999999999977 37.100000000000023 Q48.299999999999955 35.000000000000000 52.000000000000000 35.000000000000000 Q60.799999999999955 35.000000000000000 66.000000000000000 40.699999999999989 C68.933333333333394 40.466666666666697 72.600000000000023 40.175000000000011 74.799999999999955 40.000000000000000 Q73.399999999999977 31.699999999999989 67.850000000000023 27.050000000000011 Q62.299999999999955 22.399999999999977 53.799999999999955 22.399999999999977 Q47.600000000000023 22.399999999999977 39.549999999999955 24.899999999999977 Q31.500000000000000 27.399999999999977 28.299999999999955 27.399999999999977 Q25.200000000000045 27.399999999999977 22.850000000000023 25.300000000000011 Q20.500000000000000 23.199999999999989 19.700000000000045 20.300000000000011 C15.966666666666697 20.666666666666686 11.299999999999955 21.125000000000000 8.500000000000000 21.399999999999977 Q9.700000000000045 27.899999999999977 15.100000000000023 33.500000000000000 z" />
<glyph unicode="" horiz-adv-x="48.399999999999999" d="" />
<glyph unicode="" horiz-adv-x="27.800000000000001" d="M18.500000000000000 51.200000000000003 Q20.299999999999955 36.300000000000011 20.299999999999955 24.050000000000011 Q20.299999999999955 11.800000000000011 18.399999999999977 -2.299999999999955 C13.533333333333303 -1.366666666666674 7.450000000000045 -0.200000000000045 3.799999999999955 0.500000000000000 Q8.799999999999955 19.899999999999977 10.500000000000000 52.199999999999989 C13.166666666666629 51.866666666666674 16.500000000000000 51.449999999999989 18.500000000000000 51.199999999999989 zM9.000000000000000 57.399999999999999 Q7.899999999999977 59.399999999999977 7.899999999999977 64.399999999999977 Q7.899999999999977 69.399999999999977 9.500000000000000 73.100000000000023 C13.466666666666697 72.333333333333314 18.424999999999955 71.375000000000000 21.399999999999977 70.800000000000011 Q20.399999999999977 67.100000000000023 20.399999999999977 63.050000000000011 Q20.399999999999977 59.000000000000000 20.600000000000023 56.199999999999989 C16.733333333333348 56.600000000000023 11.899999999999977 57.100000000000023 9.000000000000000 57.399999999999977 z" />
<glyph unicode="" horiz-adv-x="48.399999999999999" d="M30.300000000000001 35.399999999999999 Q30.500000000000000 36.800000000000011 30.500000000000000 39.000000000000000 Q30.500000000000000 41.199999999999989 29.399999999999977 43.500000000000000 Q28.399999999999977 45.800000000000011 26.799999999999955 45.800000000000011 Q24.000000000000000 45.800000000000011 22.750000000000000 39.350000000000023 Q21.500000000000000 32.899999999999977 21.500000000000000 27.500000000000000 Q21.500000000000000 18.399999999999977 25.200000000000045 18.399999999999977 Q28.200000000000045 18.399999999999977 33.700000000000045 28.899999999999977 C36.166666666666629 27.133333333333326 39.250000000000000 24.925000000000011 41.100000000000023 23.600000000000023 Q36.799999999999955 12.000000000000000 30.200000000000045 8.800000000000011 Q30.100000000000023 3.699999999999989 29.100000000000023 -2.600000000000023 C25.766666666666652 -2.299999999999955 21.600000000000023 -1.924999999999955 19.100000000000023 -1.700000000000045 Q20.000000000000000 4.300000000000011 20.100000000000023 8.500000000000000 Q15.500000000000000 10.100000000000023 12.649999999999977 14.399999999999977 Q9.799999999999955 18.699999999999989 9.799999999999955 24.899999999999977 Q9.799999999999955 31.199999999999989 10.700000000000045 36.850000000000023 Q11.600000000000023 42.500000000000000 14.399999999999977 48.399999999999977 Q17.299999999999955 54.300000000000011 21.700000000000045 56.399999999999977 Q21.399999999999977 62.399999999999977 21.399999999999977 68.199999999999989 C24.733333333333348 67.933333333333337 28.899999999999977 67.600000000000023 31.399999999999977 67.399999999999977 Q31.399999999999977 64.500000000000000 31.799999999999955 56.300000000000011 Q36.000000000000000 54.300000000000011 38.350000000000023 49.500000000000000 Q40.700000000000045 44.699999999999989 40.700000000000045 40.300000000000011 Q40.700000000000045 35.899999999999977 39.799999999999955 34.500000000000000 C36.633333333333326 34.800000000000011 32.674999999999955 35.175000000000011 30.299999999999955 35.399999999999977 z" />
<glyph unicode="" horiz-adv-x="48.399999999999999" d="M33.299999999999997 65.400000000000006 Q39.399999999999977 65.399999999999977 42.850000000000023 60.050000000000011 Q46.299999999999955 54.699999999999989 46.299999999999955 46.600000000000023 Q46.299999999999955 44.000000000000000 45.700000000000045 40.600000000000023 C42.433333333333394 40.933333333333337 38.350000000000023 41.350000000000023 35.899999999999977 41.600000000000023 Q36.299999999999955 44.600000000000023 36.299999999999955 46.600000000000023 Q36.299999999999955 54.399999999999977 32.799999999999955 54.399999999999977 Q28.500000000000000 54.399999999999977 26.299999999999955 34.300000000000011 C26.233333333333348 33.833333333333314 26.149999999999977 33.250000000000000 26.100000000000023 32.899999999999977 Q33.399999999999977 33.399999999999977 40.000000000000000 33.399999999999977 C40.466666666666697 30.233333333333348 41.049999999999955 26.274999999999977 41.399999999999977 23.899999999999977 Q30.500000000000000 23.899999999999977 24.600000000000023 23.699999999999989 Q22.700000000000045 15.399999999999977 18.399999999999977 10.100000000000023 Q33.899999999999977 12.200000000000273 47.700000000000045 12.300000000000011 C48.033333333333303 8.633333333333326 48.450000000000045 4.050000000000011 48.700000000000045 1.299999999999955 Q22.299999999999955 1.099999999999795 6.299999999999955 -2.100000000000023 C4.766666666666652 1.266666666666652 2.850000000000023 5.475000000000023 1.700000000000045 8.000000000000000 Q6.600000000000023 10.699999999999989 9.049999999999955 14.050000000000011 Q11.500000000000000 17.399999999999977 12.799999999999955 23.100000000000023 Q8.100000000000023 22.800000000000011 4.500000000000000 22.199999999999989 C3.766666666666652 24.800000000000011 2.850000000000023 28.050000000000011 2.299999999999955 30.000000000000000 Q9.500000000000000 31.100000000000023 14.000000000000000 31.699999999999989 C14.100000000000023 32.899999999999977 14.225000000000023 34.399999999999977 14.299999999999955 35.300000000000011 Q16.600000000000023 65.399999999999977 33.299999999999955 65.399999999999977 z" />
<glyph unicode="" horiz-adv-x="60.600000000000001" d="M2.000000000000000 23.199999999999999 C4.100000000000023 25.449999999999989 8.299999999999955 29.949999999999989 10.399999999999977 32.199999999999989 Q9.100000000000023 35.699999999999989 9.100000000000023 41.649999999999977 Q9.100000000000023 47.600000000000023 11.700000000000045 53.500000000000000 Q4.600000000000023 61.000000000000000 0.700000000000045 65.800000000000011 C3.899999999999977 67.866666666666674 7.899999999999977 70.449999999999989 10.299999999999955 72.000000000000000 Q14.500000000000000 67.100000000000023 18.799999999999955 62.600000000000023 Q23.899999999999977 66.300000000000011 30.600000000000023 66.300000000000011 Q37.299999999999955 66.300000000000011 41.799999999999955 63.399999999999977 Q47.200000000000045 68.199999999999989 52.399999999999977 72.199999999999989 C54.799999999999955 68.966666666666697 57.799999999999955 64.925000000000011 59.600000000000023 62.500000000000000 Q54.700000000000045 58.899999999999977 49.000000000000000 53.899999999999977 Q50.700000000000045 49.399999999999977 50.700000000000045 44.000000000000000 Q50.700000000000045 38.600000000000023 48.600000000000023 33.399999999999977 C52.100000000000023 29.899999999999977 56.475000000000023 25.524999999999977 59.100000000000023 22.899999999999977 C56.975000000000023 20.774999999999977 52.725000000000023 16.524999999999977 50.600000000000023 14.399999999999977 Q44.799999999999955 20.600000000000023 41.399999999999977 24.000000000000000 Q36.200000000000045 20.399999999999977 29.500000000000000 20.399999999999977 Q22.799999999999955 20.399999999999977 18.000000000000000 23.000000000000000 C15.166666666666629 20.233333333333348 11.625000000000000 16.774999999999977 9.500000000000000 14.699999999999989 C7.625000000000000 16.824999999999989 3.875000000000000 21.074999999999989 2.000000000000000 23.199999999999989 zM23.399999999999999 51.600000000000001 Q20.799999999999955 46.199999999999989 20.799999999999955 40.550000000000011 Q20.799999999999955 34.899999999999977 23.299999999999955 32.300000000000011 Q25.899999999999977 29.699999999999989 29.100000000000023 29.699999999999989 Q33.899999999999977 29.699999999999989 36.450000000000045 34.750000000000000 Q39.000000000000000 39.800000000000011 39.000000000000000 44.800000000000011 Q39.000000000000000 49.800000000000011 37.100000000000023 53.399999999999977 Q35.200000000000045 57.000000000000000 30.600000000000023 57.000000000000000 Q26.100000000000023 57.000000000000000 23.399999999999977 51.600000000000023 z" />
<glyph unicode="" horiz-adv-x="48.100000000000001" d="M17.100000000000001 19.100000000000001 C17.100000000000023 19.800000000000011 17.100000000000023 21.199999999999989 17.100000000000023 21.899999999999977 Q10.200000000000045 21.399999999999977 4.500000000000000 20.699999999999989 C4.100000000000023 22.966666666666640 3.600000000000023 25.800000000000011 3.299999999999955 27.500000000000000 C6.250000000000000 27.800000000000011 12.149999999999977 28.399999999999977 15.100000000000023 28.699999999999989 C14.575000000000045 29.699999999999989 13.524999999999977 31.699999999999989 13.000000000000000 32.699999999999989 Q9.399999999999977 32.300000000000011 4.500000000000000 31.399999999999977 C4.100000000000023 33.666666666666686 3.600000000000023 36.500000000000000 3.299999999999955 38.199999999999989 C4.950000000000045 38.425000000000011 8.250000000000000 38.875000000000000 9.899999999999977 39.100000000000023 Q2.600000000000023 54.699999999999989 1.600000000000023 62.699999999999989 C5.600000000000023 62.300000000000011 10.600000000000023 61.800000000000011 13.600000000000023 61.500000000000000 Q15.899999999999977 51.399999999999977 23.299999999999955 36.699999999999989 Q29.399999999999977 50.800000000000011 34.700000000000045 67.399999999999977 C38.399999999999977 67.033333333333303 43.024999999999977 66.574999999999989 45.799999999999955 66.300000000000011 Q41.700000000000045 54.100000000000023 36.399999999999977 41.500000000000000 Q38.200000000000045 41.600000000000023 42.000000000000000 41.600000000000023 C42.133333333333326 39.100000000000023 42.299999999999955 35.975000000000023 42.399999999999977 34.100000000000023 Q36.299999999999955 34.100000000000023 33.100000000000023 34.000000000000000 C32.433333333333394 32.566666666666663 31.600000000000023 30.774999999999977 31.100000000000023 29.699999999999989 Q38.100000000000023 29.899999999999977 42.000000000000000 29.899999999999977 C42.133333333333326 27.399999999999977 42.299999999999955 24.274999999999977 42.399999999999977 22.399999999999977 Q33.700000000000045 22.399999999999977 28.899999999999977 22.300000000000011 Q28.799999999999955 19.300000000000011 28.799999999999955 12.050000000000011 Q28.799999999999955 4.800000000000011 29.200000000000045 -2.100000000000023 C25.466666666666697 -1.633333333333326 20.799999999999955 -1.049999999999955 18.000000000000000 -0.700000000000045 Q17.100000000000023 5.500000000000000 17.100000000000023 19.100000000000023 z" />
<glyph unicode="" horiz-adv-x="50" d="M28.399999999999999 76.000000000000000 Q28.399999999999977 66.699999999999989 29.000000000000000 42.100000000000023 C26.299999999999955 42.266666666666652 22.924999999999955 42.475000000000023 20.899999999999977 42.600000000000023 Q20.399999999999977 70.100000000000023 20.399999999999977 76.000000000000000 C23.066666666666720 76.000000000000000 26.399999999999977 76.000000000000000 28.399999999999977 76.000000000000000 zM21.199999999999999 14.000000000000000 C23.200000000000045 13.824999999999989 27.200000000000045 13.475000000000023 29.200000000000045 13.300000000000011 Q29.000000000000000 -8.899999999999977 28.100000000000023 -24.500000000000000 C25.433333333333280 -24.266666666666652 22.100000000000023 -23.975000000000023 20.100000000000023 -23.799999999999955 Q21.000000000000000 -10.100000000000023 21.200000000000045 14.000000000000000 z" />
<glyph unicode="" horiz-adv-x="52" d="M8.500000000000000 18.300000000000001 Q3.700000000000045 23.399999999999977 3.700000000000045 30.750000000000000 Q3.700000000000045 38.100000000000023 8.799999999999955 43.500000000000000 Q4.700000000000045 48.199999999999989 4.700000000000045 53.800000000000011 Q4.700000000000045 63.100000000000023 11.000000000000000 68.550000000000011 Q17.299999999999955 74.000000000000000 25.500000000000000 74.000000000000000 Q33.700000000000045 74.000000000000000 39.450000000000045 67.449999999999989 Q45.200000000000045 60.899999999999977 45.200000000000045 54.800000000000011 Q45.200000000000045 48.800000000000011 42.600000000000023 44.399999999999977 C38.466666666666697 45.766666666666652 33.299999999999955 47.475000000000023 30.200000000000045 48.500000000000000 Q31.500000000000000 52.199999999999989 31.500000000000000 55.050000000000011 Q31.500000000000000 57.899999999999977 29.700000000000045 60.100000000000023 Q28.000000000000000 62.300000000000011 25.350000000000023 62.300000000000011 Q22.700000000000045 62.300000000000011 20.500000000000000 59.899999999999977 Q18.399999999999977 57.600000000000023 18.399999999999977 53.699999999999989 Q18.399999999999977 49.800000000000011 27.100000000000023 45.699999999999989 Q35.899999999999977 41.699999999999989 40.649999999999977 36.649999999999977 Q45.399999999999977 31.600000000000023 45.399999999999977 24.899999999999977 Q45.399999999999977 16.300000000000011 40.399999999999977 10.600000000000023 Q44.399999999999977 6.300000000000011 44.399999999999977 1.100000000000023 Q44.399999999999977 -8.700000000000045 38.399999999999977 -13.950000000000045 Q32.399999999999977 -19.200000000000045 24.000000000000000 -19.200000000000045 Q15.700000000000045 -19.200000000000045 9.600000000000023 -12.200000000000045 Q4.600000000000023 -6.500000000000000 1.500000000000000 0.100000000000023 C4.733333333333348 1.666666666666629 8.774999999999977 3.625000000000000 11.200000000000045 4.800000000000011 Q18.399999999999977 -7.500000000000000 24.000000000000000 -7.500000000000000 Q26.799999999999955 -7.500000000000000 28.799999999999955 -5.950000000000045 Q30.799999999999955 -4.399999999999977 30.799999999999955 -1.399999999999977 Q30.799999999999955 3.600000000000023 22.000000000000000 8.399999999999977 Q13.299999999999955 13.199999999999989 8.500000000000000 18.300000000000011 zM32.799999999999997 24.399999999999999 Q32.799999999999955 30.199999999999989 21.399999999999977 34.600000000000023 Q18.799999999999955 35.600000000000023 17.600000000000023 36.300000000000011 Q16.399999999999977 33.199999999999989 16.399999999999977 30.199999999999989 Q16.399999999999977 24.600000000000023 26.399999999999977 20.300000000000011 Q29.399999999999977 18.899999999999977 30.700000000000045 18.199999999999989 Q32.799999999999955 20.600000000000023 32.799999999999955 24.399999999999977 z" />
<glyph unicode="" horiz-adv-x="50" d="M21.300000000000001 64.900000000000006 Q22.399999999999977 63.300000000000011 22.399999999999977 59.100000000000023 Q22.399999999999977 54.899999999999977 21.000000000000000 52.699999999999989 C17.833333333333371 53.033333333333360 13.875000000000000 53.449999999999989 11.500000000000000 53.699999999999989 Q12.399999999999977 58.600000000000023 12.399999999999977 61.250000000000000 Q12.399999999999977 63.899999999999977 12.299999999999955 65.699999999999989 C15.299999999999955 65.433333333333337 19.049999999999955 65.100000000000023 21.299999999999955 64.899999999999977 zM36.799999999999997 65.099999999999994 Q37.899999999999977 63.500000000000000 37.899999999999977 59.300000000000011 Q37.899999999999977 55.100000000000023 36.500000000000000 52.899999999999977 C33.333333333333371 53.233333333333348 29.375000000000000 53.649999999999977 27.000000000000000 53.899999999999977 Q27.899999999999977 58.800000000000011 27.899999999999977 61.449999999999989 Q27.899999999999977 64.100000000000023 27.799999999999955 65.899999999999977 C30.799999999999955 65.633333333333326 34.549999999999955 65.300000000000011 36.799999999999955 65.100000000000023 z" />
<glyph unicode="" horiz-adv-x="74.599999999999994" d="M69.599999999999994 38.200000000000003 Q69.600000000000023 28.000000000000000 65.700000000000045 19.000000000000000 Q61.799999999999955 10.000000000000000 54.200000000000045 4.300000000000011 Q46.600000000000023 -1.399999999999977 36.899999999999977 -1.399999999999977 Q23.200000000000045 -1.399999999999977 14.100000000000023 7.149999999999977 Q5.000000000000000 15.699999999999989 5.000000000000000 33.100000000000023 Q5.000000000000000 50.600000000000023 14.750000000000000 61.600000000000023 Q24.500000000000000 72.600000000000023 38.000000000000000 72.600000000000023 Q51.600000000000023 72.600000000000023 60.600000000000023 64.000000000000000 Q69.600000000000023 55.399999999999977 69.600000000000023 38.199999999999989 zM36.899999999999999 7.200000000000000 Q43.799999999999955 7.199999999999989 48.799999999999955 11.600000000000023 Q58.799999999999955 20.300000000000011 58.799999999999955 38.500000000000000 Q58.799999999999955 51.300000000000011 52.950000000000045 57.600000000000023 Q47.100000000000023 63.899999999999977 38.000000000000000 63.899999999999977 Q29.000000000000000 63.899999999999977 22.399999999999977 55.250000000000000 Q15.799999999999955 46.600000000000023 15.799999999999955 33.300000000000011 Q15.799999999999955 20.000000000000000 21.799999999999955 13.600000000000023 Q27.799999999999955 7.199999999999989 36.899999999999977 7.199999999999989 zM37.899999999999999 49.100000000000001 Q35.700000000000045 49.100000000000023 34.049999999999955 43.050000000000011 Q32.399999999999977 37.000000000000000 32.399999999999977 32.000000000000000 Q32.399999999999977 22.899999999999977 36.899999999999977 22.899999999999977 Q39.799999999999955 22.899999999999977 41.399999999999977 29.899999999999977 C44.899999999999977 29.633333333333326 49.274999999999977 29.300000000000011 51.899999999999977 29.100000000000023 Q50.200000000000045 21.899999999999977 46.700000000000045 18.100000000000023 Q43.200000000000045 14.300000000000011 36.299999999999955 14.300000000000011 Q29.500000000000000 14.300000000000011 25.500000000000000 19.149999999999977 Q21.500000000000000 24.000000000000000 21.500000000000000 30.500000000000000 Q21.500000000000000 37.100000000000023 23.100000000000023 42.850000000000023 Q24.700000000000045 48.600000000000023 28.700000000000045 53.100000000000023 Q32.799999999999955 57.699999999999989 38.500000000000000 57.699999999999989 Q41.700000000000045 57.699999999999989 44.049999999999955 56.449999999999989 Q46.399999999999977 55.199999999999989 47.600000000000023 53.500000000000000 Q48.799999999999955 51.800000000000011 49.600000000000023 49.000000000000000 Q50.500000000000000 45.399999999999977 50.700000000000045 38.800000000000011 C47.166666666666629 39.133333333333326 42.750000000000000 39.550000000000011 40.100000000000023 39.800000000000011 Q40.100000000000023 49.100000000000023 37.899999999999977 49.100000000000023 z" />
<glyph unicode="" horiz-adv-x="29.300000000000001" d="M7.100000000000000 67.299999999999997 Q10.299999999999955 71.199999999999989 15.549999999999955 71.199999999999989 Q20.799999999999955 71.199999999999989 23.299999999999955 67.199999999999989 Q25.799999999999955 63.199999999999989 25.799999999999955 57.000000000000000 Q25.799999999999955 50.800000000000011 25.000000000000000 35.800000000000011 C22.533333333333303 35.933333333333337 19.450000000000045 36.100000000000023 17.600000000000023 36.199999999999989 C17.450000000000045 36.774999999999977 17.149999999999977 37.925000000000011 17.000000000000000 38.500000000000000 Q14.100000000000023 36.600000000000023 10.500000000000000 36.600000000000023 Q6.899999999999977 36.600000000000023 4.299999999999955 38.899999999999977 Q1.799999999999955 41.199999999999989 1.799999999999955 45.449999999999989 Q1.799999999999955 49.699999999999989 6.200000000000045 52.800000000000011 Q10.600000000000023 55.899999999999977 16.399999999999977 56.100000000000023 C16.399999999999977 56.699999999999989 16.399999999999977 57.449999999999989 16.399999999999977 57.899999999999977 Q16.399999999999977 62.500000000000000 14.250000000000000 62.500000000000000 Q12.100000000000023 62.500000000000000 11.200000000000045 57.399999999999977 C8.366666666666674 57.600000000000023 4.825000000000045 57.850000000000023 2.700000000000045 58.000000000000000 Q3.899999999999977 63.500000000000000 7.100000000000023 67.300000000000011 zM11.000000000000000 45.500000000000000 Q11.000000000000000 43.800000000000011 12.649999999999977 43.800000000000011 Q14.299999999999955 43.800000000000011 16.000000000000000 44.600000000000023 C16.066666666666720 45.899999999999977 16.149999999999977 47.524999999999977 16.200000000000045 48.500000000000000 Q13.700000000000045 48.300000000000011 12.350000000000023 47.399999999999977 Q11.000000000000000 46.500000000000000 11.000000000000000 45.500000000000000 z" />
<glyph unicode="" horiz-adv-x="47.799999999999997" d="M14.500000000000000 42.500000000000000 C17.125000000000000 41.875000000000000 22.375000000000000 40.625000000000000 25.000000000000000 40.000000000000000 Q21.399999999999977 31.000000000000000 15.600000000000023 21.800000000000011 Q20.200000000000045 11.300000000000011 25.500000000000000 4.500000000000000 C22.299999999999955 3.133333333333326 18.299999999999955 1.424999999999955 15.899999999999977 0.399999999999977 Q9.200000000000045 8.100000000000023 2.799999999999955 22.199999999999989 Q10.500000000000000 32.899999999999977 14.500000000000000 42.500000000000000 zM34.500000000000000 42.500000000000000 C37.125000000000000 41.875000000000000 42.375000000000000 40.625000000000000 45.000000000000000 40.000000000000000 Q41.399999999999977 31.000000000000000 35.600000000000023 21.800000000000011 Q40.200000000000045 11.300000000000011 45.500000000000000 4.500000000000000 C42.299999999999955 3.133333333333326 38.299999999999955 1.424999999999955 35.899999999999977 0.399999999999977 Q29.200000000000045 8.100000000000023 22.799999999999955 22.199999999999989 Q30.500000000000000 32.899999999999977 34.500000000000000 42.500000000000000 z" />
<glyph unicode="" horiz-adv-x="83.299999999999997" d="M12.300000000000001 42.299999999999997 C21.200000000000045 42.500000000000000 39.000000000000000 42.899999999999977 47.899999999999977 43.100000000000023 Q61.600000000000023 43.100000000000023 70.000000000000000 42.000000000000000 Q71.000000000000000 35.600000000000023 71.000000000000000 28.250000000000000 Q71.000000000000000 20.899999999999977 70.000000000000000 17.300000000000011 C66.000000000000000 17.633333333333326 61.000000000000000 18.050000000000011 58.000000000000000 18.300000000000011 Q58.799999999999955 22.000000000000000 58.799999999999955 25.300000000000011 C58.799999999999955 27.500000000000000 58.799999999999955 30.250000000000000 58.799999999999955 31.899999999999977 Q52.399999999999977 32.099999999999966 48.899999999999977 32.100000000000023 C36.700000000000045 31.833333333333314 21.450000000000045 31.500000000000000 12.299999999999955 31.300000000000011 C12.299999999999955 34.050000000000011 12.299999999999955 39.550000000000011 12.299999999999955 42.300000000000011 z" />
<glyph unicode="" horiz-adv-x="32.399999999999999" d="M3.400000000000000 27.399999999999999 C8.250000000000000 27.625000000000000 17.950000000000045 28.074999999999989 22.799999999999955 28.300000000000011 Q25.799999999999955 28.300000000000011 28.299999999999955 28.000000000000000 C28.433333333333280 24.399999999999977 28.600000000000023 19.899999999999977 28.700000000000045 17.199999999999989 Q25.700000000000045 17.500000000000000 22.799999999999955 17.500000000000000 C16.733333333333348 17.199999999999989 9.149999999999977 16.824999999999989 4.600000000000023 16.600000000000023 C4.299999999999955 19.300000000000011 3.700000000000045 24.699999999999989 3.399999999999977 27.399999999999977 z" />
<glyph unicode="" horiz-adv-x="74.599999999999994" d="M69.599999999999994 38.200000000000003 Q69.600000000000023 28.000000000000000 65.700000000000045 19.000000000000000 Q61.799999999999955 10.000000000000000 54.200000000000045 4.300000000000011 Q46.600000000000023 -1.399999999999977 36.899999999999977 -1.399999999999977 Q23.200000000000045 -1.399999999999977 14.100000000000023 7.149999999999977 Q5.000000000000000 15.699999999999989 5.000000000000000 33.100000000000023 Q5.000000000000000 50.600000000000023 14.750000000000000 61.600000000000023 Q24.500000000000000 72.600000000000023 38.000000000000000 72.600000000000023 Q51.600000000000023 72.600000000000023 60.600000000000023 64.000000000000000 Q69.600000000000023 55.399999999999977 69.600000000000023 38.199999999999989 zM36.899999999999999 7.200000000000000 Q43.799999999999955 7.199999999999989 48.799999999999955 11.600000000000023 Q58.799999999999955 20.300000000000011 58.799999999999955 38.500000000000000 Q58.799999999999955 51.300000000000011 52.950000000000045 57.600000000000023 Q47.100000000000023 63.899999999999977 38.000000000000000 63.899999999999977 Q29.000000000000000 63.899999999999977 22.399999999999977 55.250000000000000 Q15.799999999999955 46.600000000000023 15.799999999999955 33.300000000000011 Q15.799999999999955 20.000000000000000 21.799999999999955 13.600000000000023 Q27.799999999999955 7.199999999999989 36.899999999999977 7.199999999999989 zM23.399999999999999 16.399999999999999 Q24.200000000000045 35.199999999999989 24.200000000000045 43.300000000000011 Q24.200000000000045 51.399999999999977 24.100000000000023 54.800000000000011 Q31.299999999999955 57.699999999999989 38.100000000000023 57.699999999999989 Q44.899999999999977 57.699999999999989 48.899999999999977 54.500000000000000 Q52.899999999999977 51.300000000000011 52.899999999999977 45.600000000000023 Q52.899999999999977 38.800000000000011 43.399999999999977 32.699999999999989 Q48.200000000000045 26.500000000000000 53.000000000000000 19.399999999999977 C50.533333333333303 17.699999999999989 47.450000000000045 15.574999999999989 45.600000000000023 14.300000000000011 Q44.000000000000000 16.899999999999977 34.700000000000045 30.000000000000000 Q34.600000000000023 24.899999999999977 34.200000000000045 15.500000000000000 C30.600000000000023 15.800000000000011 26.100000000000023 16.175000000000011 23.399999999999977 16.399999999999977 zM40.600000000000001 40.700000000000003 Q43.000000000000000 43.699999999999989 43.000000000000000 45.600000000000023 Q43.000000000000000 49.100000000000023 39.200000000000045 49.100000000000023 Q37.100000000000023 49.100000000000023 34.799999999999955 48.100000000000023 Q34.799999999999955 46.000000000000000 34.850000000000023 41.899999999999977 Q34.899999999999977 37.800000000000011 34.899999999999977 35.800000000000011 Q38.299999999999955 37.800000000000011 40.600000000000023 40.699999999999989 z" />
<glyph unicode="" horiz-adv-x="40.299999999999997" d="M4.500000000000000 63.500000000000000 C9.850000000000023 63.725000000000023 20.549999999999955 64.175000000000011 25.899999999999977 64.399999999999977 Q31.000000000000000 64.399999999999977 35.399999999999977 64.100000000000023 C35.533333333333303 60.833333333333314 35.700000000000045 56.750000000000000 35.799999999999955 54.300000000000011 Q31.000000000000000 54.600000000000023 25.899999999999977 54.600000000000023 C19.166666666666629 54.300000000000011 10.750000000000000 53.925000000000011 5.700000000000045 53.699999999999989 C5.399999999999977 56.149999999999977 4.799999999999955 61.050000000000011 4.500000000000000 63.500000000000000 z" />
<glyph unicode="" horiz-adv-x="32.899999999999999" d="M11.100000000000000 50.299999999999997 Q12.799999999999955 48.699999999999989 15.950000000000045 48.699999999999989 Q19.100000000000023 48.699999999999989 21.200000000000045 51.600000000000023 Q23.399999999999977 54.600000000000023 23.399999999999977 57.800000000000011 Q23.399999999999977 61.000000000000000 21.700000000000045 62.500000000000000 Q20.100000000000023 64.000000000000000 16.899999999999977 64.000000000000000 Q13.700000000000045 64.000000000000000 11.600000000000023 61.199999999999989 Q9.500000000000000 58.399999999999977 9.500000000000000 55.149999999999977 Q9.500000000000000 51.899999999999977 11.100000000000023 50.300000000000011 zM27.100000000000001 46.299999999999997 Q22.500000000000000 41.100000000000023 15.799999999999955 41.100000000000023 Q9.100000000000023 41.100000000000023 5.100000000000023 44.800000000000011 Q1.200000000000045 48.600000000000023 1.200000000000045 54.899999999999977 Q1.200000000000045 61.199999999999989 5.799999999999955 66.399999999999977 Q10.399999999999977 71.600000000000023 17.100000000000023 71.600000000000023 Q23.799999999999955 71.600000000000023 27.700000000000045 67.800000000000011 Q31.700000000000045 64.100000000000023 31.700000000000045 57.850000000000023 Q31.700000000000045 51.600000000000023 27.100000000000023 46.300000000000011 z" />
<glyph unicode="" horiz-adv-x="83.299999999999997" d="M70.400000000000006 34.000000000000000 Q65.100000000000023 34.500000000000000 59.950000000000045 34.500000000000000 Q54.799999999999955 34.500000000000000 47.799999999999955 34.300000000000011 Q47.799999999999955 26.899999999999977 48.299999999999955 17.899999999999977 C43.633333333333326 18.199999999999989 37.799999999999955 18.574999999999989 34.299999999999955 18.800000000000011 Q33.799999999999955 27.300000000000011 33.799999999999955 33.500000000000000 Q15.000000000000000 32.400000000000034 12.700000000000045 32.300000000000011 C12.500000000000000 36.300000000000011 12.250000000000000 41.300000000000011 12.100000000000023 44.300000000000011 Q23.700000000000045 44.600000000000023 33.899999999999977 45.600000000000023 Q34.399999999999977 54.800000000000011 35.399999999999977 62.300000000000011 C40.066666666666606 61.899999999999977 45.899999999999977 61.399999999999977 49.399999999999977 61.100000000000023 Q48.299999999999955 53.800000000000011 48.000000000000000 46.300000000000011 Q55.000000000000000 46.500000000000000 60.799999999999955 46.500000000000000 Q66.600000000000023 46.500000000000000 71.799999999999955 46.000000000000000 C71.333333333333371 42.000000000000000 70.750000000000000 37.000000000000000 70.399999999999977 34.000000000000000 zM12.300000000000001 10.500000000000000 C21.200000000000045 10.700000000000045 39.000000000000000 11.099999999999966 47.899999999999977 11.300000000000011 Q62.799999999999955 11.300000000000011 72.000000000000000 10.199999999999989 C71.399999999999977 6.199999999999989 70.649999999999977 1.200000000000045 70.200000000000045 -1.799999999999955 Q62.100000000000023 -0.700000000000045 48.899999999999977 -0.700000000000045 C36.700000000000045 -0.966666666666697 21.450000000000045 -1.299999999999955 12.299999999999955 -1.500000000000000 C12.299999999999955 1.500000000000000 12.299999999999955 7.500000000000000 12.299999999999955 10.500000000000000 z" />
<glyph unicode="" horiz-adv-x="36.399999999999999" d="M29.000000000000000 60.899999999999999 Q31.899999999999977 57.899999999999977 31.899999999999977 53.500000000000000 Q31.899999999999977 46.699999999999989 19.700000000000045 33.800000000000011 Q23.100000000000023 34.000000000000000 30.600000000000023 34.000000000000000 C30.366666666666674 31.066666666666663 30.075000000000045 27.399999999999977 29.899999999999977 25.199999999999989 Q26.600000000000023 25.500000000000000 21.700000000000045 25.500000000000000 Q16.799999999999955 25.500000000000000 8.299999999999955 23.699999999999989 C7.033333333333303 26.166666666666686 5.450000000000045 29.250000000000000 4.500000000000000 31.100000000000023 Q11.100000000000023 36.000000000000000 16.799999999999955 43.050000000000011 Q22.500000000000000 50.100000000000023 22.500000000000000 52.600000000000023 Q22.500000000000000 55.199999999999989 20.899999999999977 55.199999999999989 Q19.000000000000000 55.199999999999989 11.799999999999955 47.100000000000023 C9.600000000000023 49.033333333333303 6.850000000000023 51.449999999999989 5.200000000000045 52.899999999999977 Q9.299999999999955 57.699999999999989 11.700000000000045 60.000000000000000 Q16.200000000000045 64.000000000000000 21.200000000000045 64.000000000000000 Q26.200000000000045 64.000000000000000 29.000000000000000 60.899999999999977 z" />
<glyph unicode="" horiz-adv-x="32.399999999999999" d="M17.100000000000001 63.700000000000003 Q21.299999999999955 63.699999999999989 24.600000000000023 60.899999999999977 Q27.899999999999977 58.100000000000023 27.899999999999977 54.199999999999989 Q27.899999999999977 48.500000000000000 20.500000000000000 44.600000000000023 Q23.700000000000045 44.000000000000000 25.450000000000045 41.949999999999989 Q27.200000000000045 39.899999999999977 27.200000000000045 36.899999999999977 Q27.200000000000045 30.800000000000011 22.399999999999977 27.550000000000011 Q17.600000000000023 24.300000000000011 11.200000000000045 24.300000000000011 Q7.700000000000045 24.300000000000011 5.500000000000000 24.899999999999977 C5.200000000000045 27.633333333333326 4.825000000000045 31.050000000000011 4.600000000000023 33.100000000000023 Q7.000000000000000 32.899999999999977 9.450000000000045 32.899999999999977 Q11.899999999999977 32.899999999999977 14.600000000000023 33.899999999999977 Q17.299999999999955 35.000000000000000 17.299999999999955 36.699999999999989 Q17.299999999999955 38.399999999999977 16.000000000000000 39.399999999999977 Q14.799999999999955 40.500000000000000 12.299999999999955 40.500000000000000 Q9.799999999999955 40.500000000000000 8.100000000000023 39.600000000000023 C7.200000000000045 41.733333333333348 6.075000000000045 44.399999999999977 5.399999999999977 46.000000000000000 Q11.500000000000000 47.800000000000011 15.000000000000000 50.199999999999989 Q18.500000000000000 52.600000000000023 18.500000000000000 54.199999999999989 Q18.500000000000000 55.899999999999977 17.100000000000023 55.899999999999977 Q13.799999999999955 55.899999999999977 8.899999999999977 52.300000000000011 C7.433333333333280 54.500000000000000 5.600000000000023 57.250000000000000 4.500000000000000 58.899999999999977 Q11.000000000000000 63.699999999999989 17.100000000000023 63.699999999999989 z" />
<glyph unicode="" horiz-adv-x="50" d="M23.000000000000000 51.500000000000000 C21.875000000000000 52.925000000000011 19.625000000000000 55.774999999999977 18.500000000000000 57.199999999999989 Q29.799999999999955 64.600000000000023 36.899999999999977 67.699999999999989 C38.700000000000045 64.733333333333348 40.950000000000045 61.024999999999977 42.299999999999955 58.800000000000011 Q32.799999999999955 56.500000000000000 23.000000000000000 51.500000000000000 z" />
<glyph unicode="" horiz-adv-x="42" d="M37.799999999999997 46.899999999999999 C37.750000000000000 42.949999999999989 37.649999999999977 35.050000000000011 37.600000000000023 31.100000000000023 Q37.600000000000023 8.800000000000011 38.399999999999977 -1.700000000000045 C35.100000000000023 -1.366666666666674 30.975000000000023 -0.950000000000045 28.500000000000000 -0.700000000000045 Q28.200000000000045 3.500000000000000 27.200000000000045 7.800000000000011 Q21.700000000000045 -0.299999999999955 16.500000000000000 -0.299999999999955 Q15.700000000000045 -0.299999999999955 14.500000000000000 -0.100000000000023 Q13.899999999999977 -7.399999999999977 13.500000000000000 -24.399999999999977 C9.899999999999977 -24.100000000000023 5.399999999999977 -23.725000000000023 2.700000000000045 -23.500000000000000 Q3.200000000000045 -9.700000000000045 5.299999999999955 6.800000000000011 Q4.000000000000000 9.699999999999989 4.000000000000000 14.000000000000000 Q4.000000000000000 27.000000000000000 5.899999999999977 45.000000000000000 C9.766666666666652 44.633333333333326 14.600000000000023 44.175000000000011 17.500000000000000 43.899999999999977 Q15.700000000000045 26.800000000000011 15.700000000000045 15.500000000000000 Q15.700000000000045 10.399999999999977 18.899999999999977 10.399999999999977 Q20.399999999999977 10.399999999999977 22.549999999999955 14.500000000000000 Q24.700000000000045 18.600000000000023 26.000000000000000 24.399999999999977 Q25.899999999999977 26.600000000000023 25.899999999999977 29.600000000000023 Q25.899999999999977 32.600000000000023 26.200000000000045 47.899999999999977 C30.066666666666720 47.566666666666663 34.899999999999977 47.149999999999977 37.799999999999955 46.899999999999977 z" />
<glyph unicode="" horiz-adv-x="50" d="M26.800000000000001 65.000000000000000 Q27.600000000000023 40.199999999999989 27.600000000000023 25.699999999999989 Q27.600000000000023 11.199999999999989 26.500000000000000 -1.000000000000000 C23.833333333333371 -0.766666666666652 20.500000000000000 -0.475000000000023 18.500000000000000 -0.299999999999955 Q19.600000000000023 11.199999999999989 19.600000000000023 23.699999999999989 Q19.600000000000023 36.199999999999989 19.500000000000000 39.300000000000011 Q17.500000000000000 38.699999999999989 12.850000000000023 38.699999999999989 Q8.200000000000045 38.699999999999989 4.700000000000045 42.600000000000023 Q1.299999999999955 46.600000000000023 1.299999999999955 52.100000000000023 Q1.299999999999955 73.399999999999977 29.500000000000000 73.399999999999977 Q39.299999999999955 73.399999999999977 49.600000000000023 72.399999999999977 C49.133333333333326 69.866666666666674 48.549999999999955 66.699999999999989 48.200000000000045 64.800000000000011 Q47.500000000000000 64.899999999999977 42.500000000000000 65.199999999999989 Q42.500000000000000 63.699999999999989 42.850000000000023 52.050000000000011 Q43.200000000000045 40.399999999999977 43.200000000000045 26.399999999999977 Q43.200000000000045 12.500000000000000 42.100000000000023 -0.500000000000000 C39.433333333333394 -0.266666666666652 36.100000000000023 0.024999999999977 34.100000000000023 0.200000000000045 Q35.200000000000045 12.399999999999977 35.200000000000045 32.000000000000000 Q35.200000000000045 33.300000000000011 34.399999999999977 65.300000000000011 Q27.000000000000000 65.000000000000000 26.799999999999955 65.000000000000000 z" />
<glyph unicode="" horiz-adv-x="26" d="M18.800000000000001 39.899999999999999 Q19.899999999999977 36.399999999999977 19.899999999999977 30.949999999999989 Q19.899999999999977 25.500000000000000 18.500000000000000 21.899999999999977 C14.000000000000000 22.266666666666652 8.375000000000000 22.725000000000023 5.000000000000000 23.000000000000000 Q5.899999999999977 30.699999999999989 5.899999999999977 34.699999999999989 Q5.899999999999977 38.699999999999989 5.799999999999955 41.100000000000023 C10.133333333333326 40.699999999999989 15.549999999999955 40.199999999999989 18.799999999999955 39.899999999999977 z" />
<glyph unicode="" horiz-adv-x="50" d="M26.699999999999999 -0.600000000000000 Q26.700000000000045 -4.100000000000023 27.500000000000000 -6.500000000000000 Q28.700000000000045 -6.200000000000045 29.799999999999955 -6.200000000000045 Q33.200000000000045 -6.200000000000045 35.750000000000000 -8.299999999999955 Q38.299999999999955 -10.399999999999977 38.299999999999955 -14.399999999999977 Q38.299999999999955 -18.500000000000000 35.000000000000000 -20.850000000000023 Q31.700000000000045 -23.200000000000045 24.799999999999955 -23.200000000000045 Q17.899999999999977 -23.200000000000045 12.200000000000045 -18.899999999999977 C12.799999999999955 -17.399999999999977 13.549999999999955 -15.524999999999977 14.000000000000000 -14.399999999999977 Q20.899999999999977 -18.100000000000023 25.500000000000000 -18.100000000000023 Q27.200000000000045 -18.100000000000023 28.450000000000045 -17.350000000000023 Q29.700000000000045 -16.600000000000023 29.700000000000045 -15.299999999999955 Q29.700000000000045 -14.100000000000023 28.700000000000045 -13.299999999999955 Q27.700000000000045 -12.500000000000000 26.200000000000045 -12.500000000000000 Q24.799999999999955 -12.500000000000000 23.399999999999977 -13.200000000000045 C22.466666666666697 -13.100000000000023 21.299999999999955 -12.975000000000023 20.600000000000023 -12.899999999999977 Q20.700000000000045 -6.299999999999955 23.200000000000045 -0.600000000000023 C24.366666666666674 -0.600000000000023 25.825000000000045 -0.600000000000023 26.700000000000045 -0.600000000000023 z" />
<glyph unicode="" horiz-adv-x="27.399999999999999" d="M22.899999999999999 63.500000000000000 Q21.700000000000045 56.100000000000023 21.700000000000045 45.399999999999977 Q21.700000000000045 34.699999999999989 22.500000000000000 24.500000000000000 C19.166666666666629 24.766666666666652 15.000000000000000 25.100000000000023 12.500000000000000 25.300000000000011 Q12.100000000000023 30.800000000000011 12.100000000000023 37.899999999999977 Q12.100000000000023 45.000000000000000 12.500000000000000 50.500000000000000 C11.700000000000045 49.399999999999977 10.700000000000045 48.024999999999977 10.100000000000023 47.199999999999989 C8.700000000000045 48.175000000000011 5.899999999999977 50.125000000000000 4.500000000000000 51.100000000000023 Q8.899999999999977 56.399999999999977 13.500000000000000 64.300000000000011 C16.633333333333326 64.033333333333303 20.549999999999955 63.699999999999989 22.899999999999977 63.500000000000000 z" />
<glyph unicode="" horiz-adv-x="27.600000000000001" d="M11.400000000000000 50.399999999999999 Q11.399999999999977 44.399999999999977 13.899999999999977 44.399999999999977 Q15.000000000000000 44.399999999999977 15.799999999999955 48.250000000000000 Q16.600000000000023 52.100000000000023 16.600000000000023 57.300000000000011 Q16.600000000000023 62.600000000000023 14.600000000000023 62.600000000000023 Q13.200000000000045 62.600000000000023 12.299999999999955 58.449999999999989 Q11.399999999999977 54.300000000000011 11.399999999999977 50.399999999999977 zM1.600000000000000 51.100000000000001 Q1.600000000000023 61.500000000000000 7.000000000000000 67.600000000000023 Q10.100000000000023 71.199999999999989 14.600000000000023 71.199999999999989 Q20.799999999999955 71.199999999999989 23.600000000000023 66.449999999999989 Q26.399999999999977 61.699999999999989 26.399999999999977 54.699999999999989 Q26.399999999999977 47.800000000000011 23.100000000000023 41.850000000000023 Q19.799999999999955 35.899999999999977 13.899999999999977 35.899999999999977 Q1.600000000000023 35.899999999999977 1.600000000000023 51.100000000000023 z" />
<glyph unicode="" horiz-adv-x="47.799999999999997" d="M12.800000000000001 0.400000000000000 C10.174999999999955 1.024999999999977 4.924999999999955 2.274999999999977 2.299999999999955 2.899999999999977 Q5.899999999999977 11.899999999999977 11.700000000000045 21.100000000000023 Q7.100000000000023 31.600000000000023 1.799999999999955 38.399999999999977 C5.000000000000000 39.766666666666652 9.000000000000000 41.475000000000023 11.399999999999977 42.500000000000000 Q18.100000000000023 34.800000000000011 24.500000000000000 20.699999999999989 Q16.799999999999955 10.000000000000000 12.799999999999955 0.399999999999977 zM32.500000000000000 0.400000000000000 C29.875000000000000 1.024999999999977 24.625000000000000 2.274999999999977 22.000000000000000 2.899999999999977 Q25.600000000000023 11.899999999999977 31.399999999999977 21.100000000000023 Q26.799999999999955 31.600000000000023 21.500000000000000 38.399999999999977 C24.700000000000045 39.766666666666652 28.700000000000045 41.475000000000023 31.100000000000023 42.500000000000000 Q37.799999999999955 34.800000000000011 44.200000000000045 20.699999999999989 Q36.500000000000000 10.000000000000000 32.500000000000000 0.399999999999977 z" />
<glyph unicode="" horiz-adv-x="77.099999999999994" d="M58.799999999999997 8.900000000000000 Q57.899999999999977 8.899999999999977 51.799999999999955 8.199999999999989 C48.833333333333371 9.766666666666652 45.125000000000000 11.725000000000023 42.899999999999977 12.899999999999977 Q42.899999999999977 14.300000000000011 48.399999999999977 24.100000000000023 Q53.899999999999977 33.899999999999977 57.000000000000000 37.399999999999977 C61.200000000000045 37.033333333333360 66.450000000000045 36.574999999999989 69.600000000000023 36.300000000000011 Q68.100000000000023 26.100000000000023 67.899999999999977 16.600000000000023 C69.466666666666697 16.466666666666697 71.424999999999955 16.300000000000011 72.600000000000023 16.199999999999989 C72.399999999999977 14.350000000000023 72.000000000000000 10.649999999999977 71.799999999999955 8.800000000000011 C70.799999999999955 8.800000000000011 68.799999999999955 8.800000000000011 67.799999999999955 8.800000000000011 Q67.799999999999955 1.100000000000023 68.000000000000000 -2.500000000000000 C65.033333333333303 -2.233333333333348 61.325000000000045 -1.899999999999977 59.100000000000023 -1.700000000000045 Q58.799999999999955 1.600000000000023 58.799999999999955 8.899999999999977 zM53.600000000000001 16.199999999999999 Q56.799999999999955 16.600000000000023 58.799999999999955 16.600000000000023 Q59.299999999999955 24.800000000000011 60.200000000000045 28.199999999999989 Q56.100000000000023 21.699999999999989 53.600000000000023 16.199999999999989 zM19.800000000000001 -2.300000000000000 C17.875000000000000 -1.575000000000045 14.024999999999977 -0.125000000000000 12.100000000000023 0.600000000000023 Q37.100000000000023 44.199999999999989 57.500000000000000 66.600000000000023 C59.633333333333326 65.266666666666652 62.299999999999955 63.600000000000023 63.899999999999977 62.600000000000023 Q52.299999999999955 49.600000000000023 42.000000000000000 34.199999999999989 Q31.700000000000045 18.800000000000011 19.799999999999955 -2.299999999999955 zM22.899999999999999 63.500000000000000 Q21.700000000000045 56.100000000000023 21.700000000000045 45.399999999999977 Q21.700000000000045 34.699999999999989 22.500000000000000 24.500000000000000 C19.166666666666629 24.766666666666652 15.000000000000000 25.100000000000023 12.500000000000000 25.300000000000011 Q12.100000000000023 30.800000000000011 12.100000000000023 37.899999999999977 Q12.100000000000023 45.000000000000000 12.500000000000000 50.500000000000000 C11.700000000000045 49.399999999999977 10.700000000000045 48.024999999999977 10.100000000000023 47.199999999999989 C8.700000000000045 48.175000000000011 5.899999999999977 50.125000000000000 4.500000000000000 51.100000000000023 Q8.899999999999977 56.399999999999977 13.500000000000000 64.300000000000011 C16.633333333333326 64.033333333333303 20.549999999999955 63.699999999999989 22.899999999999977 63.500000000000000 z" />
<glyph unicode="" horiz-adv-x="79.299999999999997" d="M19.800000000000001 -2.300000000000000 C17.875000000000000 -1.575000000000045 14.024999999999977 -0.125000000000000 12.100000000000023 0.600000000000023 Q37.100000000000023 44.199999999999989 57.500000000000000 66.600000000000023 C59.633333333333326 65.266666666666652 62.299999999999955 63.600000000000023 63.899999999999977 62.600000000000023 Q52.299999999999955 49.600000000000023 42.000000000000000 34.199999999999989 Q31.700000000000045 18.800000000000011 19.799999999999955 -2.299999999999955 zM22.899999999999999 63.500000000000000 Q21.700000000000045 56.100000000000023 21.700000000000045 45.399999999999977 Q21.700000000000045 34.699999999999989 22.500000000000000 24.500000000000000 C19.166666666666629 24.766666666666652 15.000000000000000 25.100000000000023 12.500000000000000 25.300000000000011 Q12.100000000000023 30.800000000000011 12.100000000000023 37.899999999999977 Q12.100000000000023 45.000000000000000 12.500000000000000 50.500000000000000 C11.700000000000045 49.399999999999977 10.700000000000045 48.024999999999977 10.100000000000023 47.199999999999989 C8.700000000000045 48.175000000000011 5.899999999999977 50.125000000000000 4.500000000000000 51.100000000000023 Q8.899999999999977 56.399999999999977 13.500000000000000 64.300000000000011 C16.633333333333326 64.033333333333303 20.549999999999955 63.699999999999989 22.899999999999977 63.500000000000000 zM71.900000000000006 34.200000000000003 Q74.799999999999955 31.199999999999989 74.799999999999955 26.800000000000011 Q74.799999999999955 20.000000000000000 62.600000000000023 7.100000000000023 Q66.000000000000000 7.300000000000011 73.500000000000000 7.300000000000011 C73.266666666666652 4.366666666666674 72.975000000000023 0.700000000000045 72.799999999999955 -1.500000000000000 Q69.500000000000000 -1.200000000000045 64.600000000000023 -1.200000000000045 Q59.700000000000045 -1.200000000000045 51.200000000000045 -3.000000000000000 C49.933333333333394 -0.533333333333303 48.350000000000023 2.550000000000011 47.399999999999977 4.399999999999977 Q54.000000000000000 9.300000000000011 59.700000000000045 16.350000000000023 Q65.399999999999977 23.399999999999977 65.399999999999977 25.899999999999977 Q65.399999999999977 28.500000000000000 63.799999999999955 28.500000000000000 Q61.899999999999977 28.500000000000000 54.700000000000045 20.399999999999977 C52.500000000000000 22.333333333333314 49.750000000000000 24.750000000000000 48.100000000000023 26.199999999999989 Q52.200000000000045 31.000000000000000 54.600000000000023 33.300000000000011 Q59.100000000000023 37.300000000000011 64.100000000000023 37.300000000000011 Q69.100000000000023 37.300000000000011 71.899999999999977 34.199999999999989 z" />
<glyph unicode="" horiz-adv-x="78.200000000000003" d="M59.899999999999999 8.900000000000000 Q59.000000000000000 8.899999999999977 52.899999999999977 8.199999999999989 C49.933333333333280 9.766666666666652 46.225000000000023 11.725000000000023 44.000000000000000 12.899999999999977 Q44.000000000000000 14.300000000000011 49.500000000000000 24.100000000000023 Q55.000000000000000 33.899999999999977 58.100000000000023 37.399999999999977 C62.299999999999955 37.033333333333360 67.549999999999955 36.574999999999989 70.700000000000045 36.300000000000011 Q69.200000000000045 26.100000000000023 69.000000000000000 16.600000000000023 C70.566666666666606 16.466666666666697 72.524999999999977 16.300000000000011 73.700000000000045 16.199999999999989 C73.500000000000000 14.350000000000023 73.100000000000023 10.649999999999977 72.899999999999977 8.800000000000011 C71.899999999999977 8.800000000000011 69.899999999999977 8.800000000000011 68.899999999999977 8.800000000000011 Q68.899999999999977 1.100000000000023 69.100000000000023 -2.500000000000000 C66.133333333333326 -2.233333333333348 62.424999999999955 -1.899999999999977 60.200000000000045 -1.700000000000045 Q59.899999999999977 1.600000000000023 59.899999999999977 8.899999999999977 zM54.700000000000003 16.199999999999999 Q57.899999999999977 16.600000000000023 59.899999999999977 16.600000000000023 Q60.399999999999977 24.800000000000011 61.299999999999955 28.199999999999989 Q57.200000000000045 21.699999999999989 54.700000000000045 16.199999999999989 zM20.899999999999999 -2.300000000000000 C18.975000000000023 -1.575000000000045 15.125000000000000 -0.125000000000000 13.200000000000045 0.600000000000023 Q38.200000000000045 44.199999999999989 58.600000000000023 66.600000000000023 C60.733333333333348 65.266666666666652 63.399999999999977 63.600000000000023 65.000000000000000 62.600000000000023 Q53.399999999999977 49.600000000000023 43.100000000000023 34.199999999999989 Q32.799999999999955 18.800000000000011 20.899999999999977 -2.299999999999955 zM17.100000000000001 63.700000000000003 Q21.299999999999955 63.699999999999989 24.600000000000023 60.899999999999977 Q27.899999999999977 58.100000000000023 27.899999999999977 54.199999999999989 Q27.899999999999977 48.500000000000000 20.500000000000000 44.600000000000023 Q23.700000000000045 44.000000000000000 25.450000000000045 41.949999999999989 Q27.200000000000045 39.899999999999977 27.200000000000045 36.899999999999977 Q27.200000000000045 30.800000000000011 22.399999999999977 27.550000000000011 Q17.600000000000023 24.300000000000011 11.200000000000045 24.300000000000011 Q7.700000000000045 24.300000000000011 5.500000000000000 24.899999999999977 C5.200000000000045 27.633333333333326 4.825000000000045 31.050000000000011 4.600000000000023 33.100000000000023 Q7.000000000000000 32.899999999999977 9.450000000000045 32.899999999999977 Q11.899999999999977 32.899999999999977 14.600000000000023 33.899999999999977 Q17.299999999999955 35.000000000000000 17.299999999999955 36.699999999999989 Q17.299999999999955 38.399999999999977 16.000000000000000 39.399999999999977 Q14.799999999999955 40.500000000000000 12.299999999999955 40.500000000000000 Q9.799999999999955 40.500000000000000 8.100000000000023 39.600000000000023 C7.200000000000045 41.733333333333348 6.075000000000045 44.399999999999977 5.399999999999977 46.000000000000000 Q11.500000000000000 47.800000000000011 15.000000000000000 50.199999999999989 Q18.500000000000000 52.600000000000023 18.500000000000000 54.199999999999989 Q18.500000000000000 55.899999999999977 17.100000000000023 55.899999999999977 Q13.799999999999955 55.899999999999977 8.899999999999977 52.300000000000011 C7.433333333333280 54.500000000000000 5.600000000000023 57.250000000000000 4.500000000000000 58.899999999999977 Q11.000000000000000 63.699999999999989 17.100000000000023 63.699999999999989 z" />
<glyph unicode="" horiz-adv-x="41.899999999999999" d="M18.899999999999999 -2.300000000000000 Q11.200000000000045 -2.299999999999955 6.799999999999955 2.649999999999977 Q2.399999999999977 7.600000000000023 2.399999999999977 15.100000000000023 Q2.399999999999977 18.600000000000023 3.700000000000045 21.000000000000000 Q5.000000000000000 23.399999999999977 5.700000000000045 24.600000000000023 Q6.500000000000000 25.800000000000011 8.250000000000000 27.800000000000011 Q10.000000000000000 29.800000000000011 10.799999999999955 30.800000000000011 Q14.200000000000045 34.500000000000000 17.100000000000023 37.399999999999977 Q21.600000000000023 42.199999999999989 21.600000000000023 46.000000000000000 Q21.600000000000023 47.399999999999977 21.100000000000023 49.100000000000023 C23.933333333333280 48.766666666666652 27.475000000000023 48.350000000000023 29.600000000000023 48.100000000000023 Q32.799999999999955 45.899999999999977 32.799999999999955 42.850000000000023 Q32.799999999999955 39.800000000000011 30.799999999999955 36.600000000000023 Q28.799999999999955 33.500000000000000 26.200000000000045 30.550000000000011 Q23.600000000000023 27.600000000000023 21.600000000000023 25.399999999999977 Q19.700000000000045 23.300000000000011 18.750000000000000 22.199999999999989 Q17.799999999999955 21.100000000000023 16.600000000000023 19.399999999999977 Q14.399999999999977 16.399999999999977 14.399999999999977 14.350000000000023 Q14.399999999999977 12.300000000000011 15.600000000000023 11.000000000000000 Q16.799999999999955 9.699999999999989 18.899999999999977 9.699999999999989 Q23.600000000000023 9.699999999999989 33.700000000000045 19.600000000000023 C36.766666666666652 16.933333333333337 40.600000000000023 13.600000000000023 42.899999999999977 11.600000000000023 Q29.799999999999955 -2.299999999999955 18.899999999999977 -2.299999999999955 zM20.399999999999999 54.299999999999997 Q19.299999999999955 56.300000000000011 19.299999999999955 61.300000000000011 Q19.299999999999955 66.300000000000011 20.899999999999977 70.000000000000000 C24.866666666666674 69.233333333333348 29.825000000000045 68.274999999999977 32.799999999999955 67.699999999999989 Q31.799999999999955 64.000000000000000 31.799999999999955 59.949999999999989 Q31.799999999999955 55.899999999999977 32.000000000000000 53.100000000000023 C28.133333333333326 53.500000000000000 23.299999999999955 54.000000000000000 20.399999999999977 54.300000000000011 z" />
<glyph unicode="" horiz-adv-x="51.600000000000001" d="M35.299999999999997 1.000000000000000 C34.725000000000023 4.475000000000023 33.575000000000045 11.425000000000011 33.000000000000000 14.899999999999977 C29.274999999999977 14.750000000000000 21.825000000000045 14.449999999999989 18.100000000000023 14.300000000000011 C17.149999999999977 9.600000000000023 15.250000000000000 0.200000000000045 14.299999999999955 -4.500000000000000 C10.799999999999955 -4.200000000000045 3.799999999999955 -3.600000000000023 0.299999999999955 -3.299999999999955 C4.774999999999977 14.824999999999989 13.725000000000023 51.074999999999989 18.200000000000045 69.199999999999989 C22.825000000000045 68.800000000000011 32.075000000000045 68.000000000000000 36.700000000000045 67.600000000000023 C39.975000000000023 50.649999999999977 46.524999999999977 16.750000000000000 49.799999999999955 -0.200000000000045 C46.174999999999955 0.100000000000023 38.924999999999955 0.700000000000045 35.299999999999955 1.000000000000000 zM26.500000000000000 56.100000000000001 C24.924999999999955 48.324999999999989 21.774999999999977 32.774999999999977 20.200000000000045 25.000000000000000 C23.000000000000000 25.100000000000023 28.600000000000023 25.300000000000011 31.399999999999977 25.399999999999977 C30.174999999999955 33.074999999999989 27.725000000000023 48.425000000000011 26.500000000000000 56.100000000000023 zM33.700000000000003 82.299999999999997 C32.575000000000045 80.875000000000000 30.325000000000045 78.024999999999977 29.200000000000045 76.600000000000023 Q19.399999999999977 81.600000000000023 9.899999999999977 83.899999999999977 C11.700000000000045 86.866666666666674 13.950000000000045 90.574999999999989 15.299999999999955 92.800000000000011 Q22.399999999999977 89.699999999999989 33.700000000000045 82.300000000000011 z" />
<glyph unicode="" horiz-adv-x="51.600000000000001" d="M35.299999999999997 1.000000000000000 C34.725000000000023 4.475000000000023 33.575000000000045 11.425000000000011 33.000000000000000 14.899999999999977 C29.274999999999977 14.750000000000000 21.825000000000045 14.449999999999989 18.100000000000023 14.300000000000011 C17.149999999999977 9.600000000000023 15.250000000000000 0.200000000000045 14.299999999999955 -4.500000000000000 C10.799999999999955 -4.200000000000045 3.799999999999955 -3.600000000000023 0.299999999999955 -3.299999999999955 C4.774999999999977 14.824999999999989 13.725000000000023 51.074999999999989 18.200000000000045 69.199999999999989 C22.825000000000045 68.800000000000011 32.075000000000045 68.000000000000000 36.700000000000045 67.600000000000023 C39.975000000000023 50.649999999999977 46.524999999999977 16.750000000000000 49.799999999999955 -0.200000000000045 C46.174999999999955 0.100000000000023 38.924999999999955 0.700000000000045 35.299999999999955 1.000000000000000 zM26.500000000000000 56.100000000000001 C24.924999999999955 48.324999999999989 21.774999999999977 32.774999999999977 20.200000000000045 25.000000000000000 C23.000000000000000 25.100000000000023 28.600000000000023 25.300000000000011 31.399999999999977 25.399999999999977 C30.174999999999955 33.074999999999989 27.725000000000023 48.425000000000011 26.500000000000000 56.100000000000023 zM24.399999999999999 76.599999999999994 C23.274999999999977 78.024999999999977 21.024999999999977 80.875000000000000 19.899999999999977 82.300000000000011 Q31.200000000000045 89.699999999999989 38.299999999999955 92.800000000000011 C40.100000000000023 89.833333333333314 42.350000000000023 86.125000000000000 43.700000000000045 83.899999999999977 Q34.200000000000045 81.600000000000023 24.399999999999977 76.600000000000023 z" />
<glyph unicode="" horiz-adv-x="51.600000000000001" d="M35.299999999999997 1.000000000000000 C34.725000000000023 4.475000000000023 33.575000000000045 11.425000000000011 33.000000000000000 14.899999999999977 C29.274999999999977 14.750000000000000 21.825000000000045 14.449999999999989 18.100000000000023 14.300000000000011 C17.149999999999977 9.600000000000023 15.250000000000000 0.200000000000045 14.299999999999955 -4.500000000000000 C10.799999999999955 -4.200000000000045 3.799999999999955 -3.600000000000023 0.299999999999955 -3.299999999999955 C4.774999999999977 14.824999999999989 13.725000000000023 51.074999999999989 18.200000000000045 69.199999999999989 C22.825000000000045 68.800000000000011 32.075000000000045 68.000000000000000 36.700000000000045 67.600000000000023 C39.975000000000023 50.649999999999977 46.524999999999977 16.750000000000000 49.799999999999955 -0.200000000000045 C46.174999999999955 0.100000000000023 38.924999999999955 0.700000000000045 35.299999999999955 1.000000000000000 zM26.500000000000000 56.100000000000001 C24.924999999999955 48.324999999999989 21.774999999999977 32.774999999999977 20.200000000000045 25.000000000000000 C23.000000000000000 25.100000000000023 28.600000000000023 25.300000000000011 31.399999999999977 25.399999999999977 C30.174999999999955 33.074999999999989 27.725000000000023 48.425000000000011 26.500000000000000 56.100000000000023 zM23.699999999999999 92.299999999999997 C25.399999999999977 92.175000000000011 28.799999999999955 91.925000000000011 30.500000000000000 91.800000000000011 Q33.600000000000023 88.800000000000011 40.600000000000023 80.300000000000011 C38.666666666666629 78.833333333333314 36.250000000000000 77.000000000000000 34.799999999999955 75.899999999999977 Q29.600000000000023 80.500000000000000 26.700000000000045 82.899999999999977 Q21.700000000000045 79.399999999999977 16.700000000000045 75.000000000000000 C14.766666666666652 76.433333333333337 12.350000000000023 78.225000000000023 10.899999999999977 79.300000000000011 Q18.100000000000023 87.399999999999977 23.700000000000045 92.300000000000011 z" />
<glyph unicode="" horiz-adv-x="51.600000000000001" d="M35.299999999999997 1.000000000000000 C34.725000000000023 4.475000000000023 33.575000000000045 11.425000000000011 33.000000000000000 14.899999999999977 C29.274999999999977 14.750000000000000 21.825000000000045 14.449999999999989 18.100000000000023 14.300000000000011 C17.149999999999977 9.600000000000023 15.250000000000000 0.200000000000045 14.299999999999955 -4.500000000000000 C10.799999999999955 -4.200000000000045 3.799999999999955 -3.600000000000023 0.299999999999955 -3.299999999999955 C4.774999999999977 14.824999999999989 13.725000000000023 51.074999999999989 18.200000000000045 69.199999999999989 C22.825000000000045 68.800000000000011 32.075000000000045 68.000000000000000 36.700000000000045 67.600000000000023 C39.975000000000023 50.649999999999977 46.524999999999977 16.750000000000000 49.799999999999955 -0.200000000000045 C46.174999999999955 0.100000000000023 38.924999999999955 0.700000000000045 35.299999999999955 1.000000000000000 zM26.500000000000000 56.100000000000001 C24.924999999999955 48.324999999999989 21.774999999999977 32.774999999999977 20.200000000000045 25.000000000000000 C23.000000000000000 25.100000000000023 28.600000000000023 25.300000000000011 31.399999999999977 25.399999999999977 C30.174999999999955 33.074999999999989 27.725000000000023 48.425000000000011 26.500000000000000 56.100000000000023 zM38.700000000000003 82.099999999999994 Q35.799999999999955 78.600000000000023 32.850000000000023 78.600000000000023 Q29.899999999999977 78.600000000000023 27.100000000000023 79.500000000000000 Q24.299999999999955 80.399999999999977 22.250000000000000 80.399999999999977 Q20.200000000000045 80.399999999999977 17.899999999999977 78.100000000000023 C15.899999999999977 79.166666666666629 13.399999999999977 80.500000000000000 11.899999999999977 81.300000000000011 Q15.899999999999977 89.800000000000011 21.200000000000045 89.800000000000011 Q23.200000000000045 89.800000000000011 26.200000000000045 88.399999999999977 Q29.200000000000045 87.000000000000000 30.700000000000045 87.000000000000000 Q33.500000000000000 87.000000000000000 35.899999999999977 90.199999999999989 C37.899999999999977 90.033333333333303 40.399999999999977 89.824999999999989 41.899999999999977 89.699999999999989 Q41.600000000000023 85.699999999999989 38.700000000000045 82.100000000000023 z" />
<glyph unicode="" horiz-adv-x="51.600000000000001" d="M35.299999999999997 1.000000000000000 C34.725000000000023 4.475000000000023 33.575000000000045 11.425000000000011 33.000000000000000 14.899999999999977 C29.274999999999977 14.750000000000000 21.825000000000045 14.449999999999989 18.100000000000023 14.300000000000011 C17.149999999999977 9.600000000000023 15.250000000000000 0.200000000000045 14.299999999999955 -4.500000000000000 C10.799999999999955 -4.200000000000045 3.799999999999955 -3.600000000000023 0.299999999999955 -3.299999999999955 C4.774999999999977 14.824999999999989 13.725000000000023 51.074999999999989 18.200000000000045 69.199999999999989 C22.825000000000045 68.800000000000011 32.075000000000045 68.000000000000000 36.700000000000045 67.600000000000023 C39.975000000000023 50.649999999999977 46.524999999999977 16.750000000000000 49.799999999999955 -0.200000000000045 C46.174999999999955 0.100000000000023 38.924999999999955 0.700000000000045 35.299999999999955 1.000000000000000 zM26.500000000000000 56.100000000000001 C24.924999999999955 48.324999999999989 21.774999999999977 32.774999999999977 20.200000000000045 25.000000000000000 C23.000000000000000 25.100000000000023 28.600000000000023 25.300000000000011 31.399999999999977 25.399999999999977 C30.174999999999955 33.074999999999989 27.725000000000023 48.425000000000011 26.500000000000000 56.100000000000023 zM22.699999999999999 90.000000000000000 Q23.799999999999955 88.399999999999977 23.799999999999955 84.199999999999989 Q23.799999999999955 80.000000000000000 22.399999999999977 77.800000000000011 C19.233333333333348 78.133333333333326 15.274999999999977 78.550000000000011 12.899999999999977 78.800000000000011 Q13.799999999999955 83.800000000000011 13.799999999999955 86.399999999999977 Q13.799999999999955 89.000000000000000 13.700000000000045 90.800000000000011 C16.700000000000045 90.533333333333303 20.450000000000045 90.199999999999989 22.700000000000045 90.000000000000000 zM38.200000000000003 90.200000000000003 Q39.299999999999955 88.600000000000023 39.299999999999955 84.399999999999977 Q39.299999999999955 80.199999999999989 37.899999999999977 78.000000000000000 C34.733333333333348 78.333333333333314 30.774999999999977 78.750000000000000 28.399999999999977 79.000000000000000 Q29.299999999999955 84.000000000000000 29.299999999999955 86.600000000000023 Q29.299999999999955 89.199999999999989 29.200000000000045 91.000000000000000 C32.200000000000045 90.733333333333348 35.950000000000045 90.399999999999977 38.200000000000045 90.199999999999989 z" />
</font>
</defs>
</svg>
